<?xml version="1.0" standalone="no"?>
<!DOCTYPE svg PUBLIC "-//W3C//DTD SVG 1.1//EN" "http://www.w3.org/Graphics/SVG/1.1/DTD/svg11.dtd" >
<svg>
<metadata>
Created by FontForge 20090914 at Tue Nov  6 08:43:44 2018
 By www-data
&#194;&#169; 2014 Apple Inc. All rights reserved.
</metadata>
<defs>
<font id="SFUIDisplay-Black" horiz-adv-x="0" >
  <font-face 
    font-family="SF UI Display"
    font-weight="250"
    font-stretch="normal"
    units-per-em="2048"
    panose-1="0 0 3 0 0 0 0 0 0 0"
    ascent="1638"
    descent="-410"
    x-height="1124"
    cap-height="1443"
    bbox="-660 -854 2717 2231"
    underline-thickness="50"
    underline-position="-75"
    unicode-range="U+0020-U+FB02"
  />
<missing-glyph horiz-adv-x="1293" 
d="M119 1365h1053v-1365h-1053v1365zM533 236c22.667 -20 51.667 -30 87 -30c36.667 0 66.334 10 89.001 30c22 19.333 33 45 33 77c0 32.667 -11 58.667 -33 78c-22.667 20 -52.334 30 -89.001 30c-36 0 -65 -10 -87 -30s-33 -46 -33 -78c0 -31.333 11 -57 33 -77zM507 888
c0.666992 39.333 11.998 71 33.998 95c22.667 23.333 53 35 91 35c36 0 65 -10 87 -30s33 -46.667 33 -80c0 -25.333 -6.66699 -47.333 -20 -66c-14 -18 -41.667 -42 -83 -72c-85.333 -60 -124.666 -133.667 -117.999 -221l1 -18h166v15c0 32 6.33301 57.333 19 76
s42 44.334 88 77.001c88.667 64 133 136.667 133 218c0 75.333 -27 136 -81 182c-54 45.333 -125.667 68 -215 68c-95.333 0 -170.333 -25.333 -225 -76c-55.333 -50.667 -81.666 -118.334 -78.999 -203.001h169z" />
    <glyph glyph-name=".notdef" horiz-adv-x="1293" 
d="M119 1365h1053v-1365h-1053v1365zM533 236c22.667 -20 51.667 -30 87 -30c36.667 0 66.334 10 89.001 30c22 19.333 33 45 33 77c0 32.667 -11 58.667 -33 78c-22.667 20 -52.334 30 -89.001 30c-36 0 -65 -10 -87 -30s-33 -46 -33 -78c0 -31.333 11 -57 33 -77zM507 888
c0.666992 39.333 11.998 71 33.998 95c22.667 23.333 53 35 91 35c36 0 65 -10 87 -30s33 -46.667 33 -80c0 -25.333 -6.66699 -47.333 -20 -66c-14 -18 -41.667 -42 -83 -72c-85.333 -60 -124.666 -133.667 -117.999 -221l1 -18h166v15c0 32 6.33301 57.333 19 76
s42 44.334 88 77.001c88.667 64 133 136.667 133 218c0 75.333 -27 136 -81 182c-54 45.333 -125.667 68 -215 68c-95.333 0 -170.333 -25.333 -225 -76c-55.333 -50.667 -81.666 -118.334 -78.999 -203.001h169z" />
    <glyph glyph-name="space" unicode=" " horiz-adv-x="390" 
 />
    <glyph glyph-name="exclam" unicode="!" horiz-adv-x="749" 
d="M584 1443l-36 -972h-348l-36 972h420zM223 18c-41.333 38.667 -62 86 -62 142c0 55.333 20.667 102.333 62 141s91.666 58 150.999 58c58 0 108 -19.333 150 -58c41.333 -38.667 62 -85.667 62 -141c0 -56 -20.667 -103.333 -62 -142c-42 -38.667 -92 -58 -150 -58
c-59.333 0 -109.666 19.333 -150.999 58z" />
    <glyph glyph-name="quotedbl" unicode="&#x22;" horiz-adv-x="1050" 
d="M80 801v642h340v-642h-340zM628 801v642h340v-642h-340z" />
    <glyph glyph-name="numbersign" unicode="#" horiz-adv-x="1336" 
d="M1059 821l-34 -177h201l-53 -287h-204l-70 -357h-301l71 357h-161l-71 -357h-299l70 357h-196l54 287h197l35 177h-194l54 284h196l67 339h299l-66 -339h161l66 339h301l-66 -339h203l-53 -284h-207zM529 610h214l51 244h-216z" />
    <glyph glyph-name="dollar" unicode="$" horiz-adv-x="1413" 
d="M644 -136l0.000976562 120.999c-179.333 8 -317.666 50.333 -414.999 127c-97.333 77.333 -146.333 182.666 -147 315.999h401c1.33301 -36.667 17.666 -69 48.999 -97c30.667 -28 68 -44 112 -48v261l-131 27c-271.333 56.667 -407 201 -407 433
c0 135.333 46.667 243.333 140 324c93.333 80 226 125.667 398 137v135h148v-137c155.333 -15.333 278.666 -63 369.999 -143s137.333 -181 138 -303h-387c-1.33301 32.667 -13.333 62.334 -36 89.001c-24 26.667 -52.333 43.334 -85 50.001v-257l129 -22
c272 -47.333 408 -188.333 408 -423c0 -136 -46 -244.333 -138 -325c-92.667 -80 -225.667 -127.333 -399 -142v-123h-148zM792.001 519.999v-235.999c44.667 4 79.667 16.667 105 38s38 48.666 38 81.999c0 61.333 -47.667 100 -143 116zM644.001 928v230.001
c-39.333 -2.66699 -71 -14.334 -95 -35.001s-36 -46.667 -36 -78c0 -59.333 43.667 -98.333 131 -117z" />
    <glyph glyph-name="percent" unicode="%" horiz-adv-x="1733" 
d="M156 0l1051 1443h340l-1051 -1443h-340zM1597 79c-64 -70 -150.668 -105 -260.001 -105s-196 35 -260 105c-63.333 69.333 -95 164 -95 284c0 119.333 31.667 213.333 95 282c62.667 68 149.334 102 260.001 102s197.667 -34 261 -102c62.667 -68 94 -162 94 -282
s-31.667 -214.667 -95 -284zM1405 363c0 104 -22.667 156 -68 156c-44.667 0 -67 -52.333 -67 -157c0 -106.667 22.333 -160 67 -160c45.333 0 68 53.667 68 161zM653.999 837c-64 -70 -150.668 -105 -260.001 -105s-196 35 -260 105c-63.333 69.333 -95 164 -95 284
c0 119.333 31.667 213.333 95 282c62.667 68 149.334 102 260.001 102s197.667 -34 261 -102c62.667 -68 94 -162 94 -282s-31.667 -214.667 -95 -284zM461.998 1121c0 104 -22.667 156 -68 156c-44.667 0 -67 -52.333 -67 -157c0 -106.667 22.333 -160 67 -160
c45.333 0 68 53.667 68 161z" />
    <glyph glyph-name="ampersand" unicode="&#x26;" horiz-adv-x="1504" 
d="M1007 94c-98.667 -81.333 -242.668 -121.999 -432.001 -121.999c-163.333 0 -291.333 35.333 -384 106s-139 168.334 -139 293.001c0 80 20 149 60 207c39.333 57.333 103.333 111.333 192 162c0.666992 0 25.334 13.667 74.001 41
c-118.667 119.333 -178 227.666 -178 324.999c0 101.333 42.667 185 128 251s193.666 99 324.999 99c130.667 0 236.334 -31 317.001 -93c81.333 -62 122 -143.333 122 -244c0 -150.667 -91.667 -277.334 -275 -380.001l192 -207c22.667 37.333 34 91 34 161v109h321v-142
c0 -144.667 -41.667 -267 -125 -367l284 -293h-427zM419.999 406.001c0 -48.667 18.333 -87.334 55 -116.001c36 -29.333 84 -44 144 -44c88 0 150.333 22 187 66l-255 270c-12 -4.66699 -22.667 -10 -32 -16c-66 -43.333 -99 -96.666 -99 -159.999zM774.999 1085
c0 36.667 -11.333 66.667 -34 90c-22 23.333 -50.667 35 -86 35c-36 0 -65.667 -11.667 -89 -35c-24 -24 -36 -53.667 -36 -89c0 -47.333 38 -106 114 -176c87.333 46.667 131 105 131 175z" />
    <glyph glyph-name="quotesingle" unicode="'" horiz-adv-x="502" 
d="M80 801v642h340v-642h-340z" />
    <glyph glyph-name="parenleft" unicode="(" horiz-adv-x="784" 
d="M360 -277c-180.667 227.333 -271 519.668 -271 877.001c0 324 93.333 605 280 843h392c-71.333 -82.667 -130.333 -202.334 -177 -359.001c-46.667 -158 -70 -318.667 -70 -482c0 -300.667 81.333 -593.667 244 -879h-398z" />
    <glyph glyph-name="parenright" unicode=")" horiz-adv-x="784" 
d="M24 -277c162.667 285.333 244 578.333 244 879c0 162 -23.333 322.333 -70 481c-46.667 156.667 -105.667 276.667 -177 360h391c187.333 -238.667 281 -519.667 281 -843c0 -360 -90.667 -652.333 -272 -877h-397z" />
    <glyph glyph-name="asterisk" unicode="*" horiz-adv-x="1000" 
d="M570 912l62 -287h-266l62 287l-217 -197l-133 230l283 90l-283 89l133 230l220 -202l-65 292h266l-65 -292l220 202l133 -230l-283 -89l283 -90l-133 -230z" />
    <glyph glyph-name="plus" unicode="+" horiz-adv-x="1413" 
d="M886 -2h-361v416h-390v348h390v416h361v-416h390v-348h-390v-416z" />
    <glyph glyph-name="comma" unicode="," horiz-adv-x="618" 
d="M77 -285l66 622h364l-123 -622h-307z" />
    <glyph glyph-name="hyphen" unicode="-" horiz-adv-x="931" 
d="M135 414v348h659v-348h-659z" />
    <glyph glyph-name="period" unicode="." horiz-adv-x="618" 
d="M161 47c-40.667 40.667 -61 89.667 -61 147s20.333 106.333 61 147s89.667 61 147 61s106.333 -20.333 147 -61s61 -89.667 61 -147s-20.333 -106.333 -61 -147s-89.667 -61 -147 -61s-106.333 20.333 -147 61z" />
    <glyph glyph-name="slash" unicode="/" horiz-adv-x="783" 
d="M0 -257l388 1701h395l-396 -1701h-387z" />
    <glyph glyph-name="zero" unicode="0" horiz-adv-x="1423" 
d="M247 164c-114.667 136.667 -171.998 323.667 -171.998 561c0 238 57.667 424.667 173 560c113.333 132.667 267.666 199 462.999 199s349.666 -66.333 462.999 -199c114.667 -134.667 172 -321 172 -559c0 -237.333 -57 -424.333 -171 -561s-268.667 -205 -464 -205
c-196 0 -350.667 68 -464 204zM857.002 394c38 77.333 57 187.666 57 330.999s-19 252.666 -57 327.999c-35.333 70 -84 105 -146 105s-110.667 -35 -146 -105c-38.667 -75.333 -58 -184.666 -58 -327.999s19.333 -253.666 58 -330.999c36 -72 84.667 -108 146 -108
s110 36 146 108z" />
    <glyph glyph-name="one" unicode="1" horiz-adv-x="1058" 
d="M439 1080h-8l-354 -234v355l362 242h424v-1443h-424v1080z" />
    <glyph glyph-name="two" unicode="2" horiz-adv-x="1311" 
d="M61 990c0 148 53.666 267 160.999 357c107.333 90.667 250 136 428 136c173.333 0 311.333 -40.333 414 -121c100.667 -80 151 -186 151 -318c0 -134 -81 -272.667 -243 -416l-339 -300v-8h599v-320h-1146v282l580 513c94 84 141 162.667 141 236c0 40 -15 73 -45 99
c-31.333 26.667 -73.666 40 -126.999 40c-55.333 0 -100.333 -16.667 -135 -50c-35.333 -33.333 -53 -76.333 -53 -129v-9h-386v8z" />
    <glyph glyph-name="three" unicode="3" horiz-adv-x="1367" 
d="M494 878h176c55.333 0 99.333 13.333 132 40c32 26.667 48 63 48 109c0 45.333 -16.333 81.333 -49 108c-32.667 26 -78 39 -136 39c-56.667 0 -102.667 -16 -138 -48c-35.333 -31.333 -53 -72.333 -53 -123h-382c0.666992 144.667 55 260.667 163 348
c108 88 250.667 132 428 132c170.667 0 306 -35.667 406 -107c100.667 -72 151 -169 151 -291c0 -85.333 -28.333 -158.333 -85 -219c-55.333 -58.667 -127.333 -96 -216 -112v-8c107.333 -12 192.333 -47.667 255 -107c64 -61.333 96 -140.666 96 -237.999
c0 -134.667 -56.667 -242 -170 -322c-113.333 -79.333 -265.666 -119 -456.999 -119c-174.667 0 -316.334 44 -425.001 132c-108 87.333 -165.667 204.666 -173 351.999h404c1.33301 -48 20 -85.667 56 -113c36 -28 85 -42 147 -42c56 0 101.333 14.333 136 43
c34 28 51 65.333 51 112c0 47.333 -16.667 84 -50 110c-34 26.667 -81 40 -141 40h-174v284z" />
    <glyph glyph-name="four" unicode="4" horiz-adv-x="1414" 
d="M775 214l-710 -0.000976562v351c122 238.667 296.667 531.334 524 878.001h586v-904h172v-325h-172v-214h-400v214zM417 521.999l370 -0.000976562v643h-8c-156 -239.333 -276.667 -449.666 -362 -630.999v-12z" />
    <glyph glyph-name="five" unicode="5" horiz-adv-x="1362" 
d="M277 92c-109.333 88 -164.665 201 -165.998 339h381c8.66699 -44.667 32.334 -81 71.001 -109c39.333 -28 85.666 -42 138.999 -42c60 0 108.667 19 146 57c36.667 38 55 87 55 147c0 63.333 -18.333 114.333 -55 153s-85.334 58 -146.001 58
c-86.667 0 -152.334 -35 -197.001 -105h-371l64 853h1009v-320h-683l-22 -320h8c57.333 117.333 163.666 176 318.999 176c136.667 0 249.334 -45.667 338.001 -137c88.667 -90.667 133 -206.667 133 -348c0 -160.667 -55 -289.667 -165 -387
c-110 -98 -255.333 -147 -436 -147c-171.333 0 -312 44 -422 132z" />
    <glyph glyph-name="six" unicode="6" horiz-adv-x="1407" 
d="M247 165c-114.667 137.333 -172.001 323 -172.001 557s59.333 419.667 178 557c117.333 136 274.666 204 471.999 204c152 0 282.667 -40 392 -120c109.333 -79.333 172.666 -180.666 189.999 -303.999h-411c-9.33301 31.333 -30 56.666 -62 75.999s-68.667 29 -110 29
c-82 0 -146.333 -39.667 -193 -119c-47.333 -81.333 -65.666 -188 -54.999 -320h8c26.667 72.667 70.334 129.667 131.001 171c64.667 43.333 143 65 235 65c136 0 249.333 -45 340 -135c90 -90 135 -203.333 135 -340c0 -154.667 -56 -281 -168 -379
c-111.333 -98 -254.666 -147 -429.999 -147c-206.667 0 -366.667 68.333 -480 205zM862.999 337c38 36.667 57 82.334 57 137.001c0 54 -19 99.333 -57 136s-84.667 55 -140 55s-101.666 -18.333 -138.999 -55c-38 -36.667 -57 -82 -57 -136
c0 -54.667 19 -100.334 57 -137.001c37.333 -37.333 83.666 -56 138.999 -56s102 18.667 140 56z" />
    <glyph glyph-name="seven" unicode="7" horiz-adv-x="1223" 
d="M742 1115v8h-692v320h1110v-319l-563 -1124h-444z" />
    <glyph glyph-name="eight" unicode="8" horiz-adv-x="1445" 
d="M250 78c-116.667 78.667 -175 183.001 -175 313.001c0 99.333 34.333 183 103 251c68 67.333 156.333 106.666 265 117.999v8c-90.667 15.333 -164.667 53.666 -222 114.999c-58.667 61.333 -88 133.666 -88 216.999c0 112 54.333 203.667 163 275
c109.333 72 251 108 425 108s315.667 -36 425 -108c108.667 -72 163 -164 163 -276c0 -82 -29 -154 -87 -216c-58 -61.333 -131.667 -99.666 -221 -114.999v-8c108.667 -11.333 197 -50.666 265 -117.999c68 -68 102 -152 102 -252c0 -128.667 -59.333 -232.667 -178 -312
c-118.667 -78.667 -275 -118 -469 -118c-196.667 0 -353.667 39.333 -471 118zM865 294.001c36.667 33.333 55 76 55 128s-18.333 94.667 -55 128c-37.333 34.667 -85.333 52 -144 52s-106.667 -17.333 -144 -52c-36.667 -33.333 -55 -76 -55 -128s18.333 -94.667 55 -128
c37.333 -34.667 85.333 -52 144 -52s106.667 17.333 144 52zM843 929.001c32 30.667 48 68.334 48 113.001c0 45.333 -16 83.333 -48 114c-32.667 30.667 -73.334 46 -122.001 46s-89 -15.333 -121 -46s-48 -68.667 -48 -114c0 -44.667 16 -82.334 48 -113.001
s72.333 -46 121 -46s89.334 15.333 122.001 46z" />
    <glyph glyph-name="nine" unicode="9" horiz-adv-x="1415" 
d="M290 80c-110.667 80 -174.668 181.666 -192.001 304.999h413c9.33301 -31.333 31 -56.666 65 -75.999c33.333 -19.333 72 -29 116 -29c81.333 0 144 38.333 188 115c46 80 63.667 188 53 324h-8c-22.667 -71.333 -64.667 -128 -126 -170
c-65.333 -44 -145.333 -66 -240 -66c-135.333 0 -248.666 45 -339.999 135c-92.667 90.667 -139 204 -139 340c0 154 56.667 280 170 378s257 147 431 147c210.667 0 372.334 -68 485.001 -204c114.667 -137.333 172 -323 172 -557c0 -235.333 -58 -421 -174 -557
c-116.667 -136.667 -276.334 -205 -479.001 -205c-153.333 0 -285 40 -395 120zM824.999 834.999c38 36.667 57 81.999 57 135.999c0 54.667 -19 100.334 -57 137.001c-37.333 37.333 -83.333 56 -138 56c-55.333 0 -102 -18.667 -140 -56c-38.667 -37.333 -58 -83 -58 -137
s19 -99.333 57 -136c38.667 -36.667 85.667 -55 141 -55c54.667 0 100.667 18.333 138 55z" />
    <glyph glyph-name="colon" unicode=":" horiz-adv-x="618" 
d="M161 47c-40.667 40.667 -61 89.667 -61 147s20.333 106.333 61 147s89.667 61 147 61s106.333 -20.333 147 -61s61 -89.667 61 -147s-20.333 -106.333 -61 -147s-89.667 -61 -147 -61s-106.333 20.333 -147 61zM161 741c-40.667 40.667 -61 89.667 -61 147
s20.333 106.333 61 147s89.667 61 147 61s106.333 -20.333 147 -61s61 -89.667 61 -147s-20.333 -106.333 -61 -147s-89.667 -61 -147 -61s-106.333 20.333 -147 61z" />
    <glyph glyph-name="semicolon" unicode=";" horiz-adv-x="618" 
d="M161 741c-40.667 40.667 -61 89.667 -61 147s20.333 106.333 61 147s89.667 61 147 61s106.333 -20.333 147 -61s61 -89.667 61 -147s-20.333 -106.333 -61 -147s-89.667 -61 -147 -61s-106.333 20.333 -147 61zM47 -285l66 622h364l-123 -622h-307z" />
    <glyph glyph-name="less" unicode="&#x3c;" horiz-adv-x="1413" 
d="M613 593v-11l606 -239v-395l-1027 485v309l1027 485v-395z" />
    <glyph glyph-name="equal" unicode="=" horiz-adv-x="1413" 
d="M146 138v349h1119v-349h-1119zM146 689v349h1119v-349h-1119z" />
    <glyph glyph-name="greater" unicode="&#x3e;" horiz-adv-x="1413" 
d="M192 1227l1027 -485v-309l-1027 -485v395l606 239v11l-606 239v395z" />
    <glyph glyph-name="question" unicode="?" horiz-adv-x="1184" 
d="M50 1010c0 138 47.999 247.002 143.999 327.002c95.333 80 226 120 392 120c160 0 287.667 -37.333 383 -112s143 -174.667 143 -300c0 -138 -72.667 -248.667 -218 -332c-70.667 -40.667 -117.667 -74.667 -141 -102c-24.667 -28.667 -37 -65.334 -37 -110.001v-42h-355
l-3 24c-12.667 90.667 -6.33398 162.334 18.999 215.001c23.333 51.333 70.333 97.333 141 138c71.333 41.333 118.333 74.666 141 99.999c22.667 26 34 59.333 34 100c0 33.333 -12.667 60.666 -38 81.999c-25.333 20.667 -57.666 31 -96.999 31s-71.666 -13 -96.999 -39
s-38.333 -59.333 -39 -100h-372zM395.999 18.002c-41.333 38.667 -62 86 -62 142c0 55.333 20.667 102.333 62 141s91.333 58 150 58s108.667 -19.333 150 -58c42 -38.667 63 -85.667 63 -141c0 -56 -21 -103.333 -63 -142c-41.333 -38.667 -91.333 -58 -150 -58
s-108.667 19.333 -150 58z" />
    <glyph glyph-name="at" unicode="@" horiz-adv-x="1828" 
d="M804 756c-22 -32.667 -33 -78.334 -33 -137.001c0 -58 11 -103.333 33 -136s52.667 -49 92 -49c38.667 0 69 16.333 91 49s33 78 33 136c0 58.667 -11 104.334 -33 137.001c-22 33.333 -52.333 50 -91 50c-39.333 0 -70 -16.667 -92 -50zM1513 1256
c150 -138 224.999 -319 224.999 -543c0 -155.333 -36.667 -278 -110 -368s-173.333 -135 -300 -135c-138 0 -223.667 48.667 -257 146h-20c-40 -99.333 -116.333 -149 -229 -149c-104 0 -187.333 38.333 -250 115c-63.333 76.667 -95 178.334 -95 305.001
c0 121.333 29.667 219.333 89 294c60 74 138.667 111 236 111c114 0 191.667 -47.333 233 -142h20v117h254v-483c0 -76 26 -114 78 -114c38.667 0 69 24.333 91 73c22.667 48.667 34 114.667 34 198c0 182 -52.667 326 -158 432c-105.333 105.333 -248 158 -428 158
c-190.667 0 -345 -59.667 -463 -179c-117.333 -118.667 -176 -274.667 -176 -468c0 -194.667 61 -348.334 183 -461.001c122.667 -112.667 289.334 -169 500.001 -169c86 0 156 7.33301 210 22v-194c-70 -16.667 -149.333 -25 -238 -25c-262.667 0 -475 76.667 -637 230
c-162.667 153.333 -244 353.666 -244 600.999c0 246.667 80.333 447.334 241 602.001c160.667 155.333 368.667 233 624 233c242 0 437.667 -69 587 -207z" />
    <glyph glyph-name="A" unicode="A" horiz-adv-x="1534" 
d="M976 287h-440l-75 -287h-432l471 1443h532l471 -1443h-452zM613 586h286l-139 524h-8z" />
    <glyph glyph-name="B" unicode="B" horiz-adv-x="1382" 
d="M99 0l0.000976562 1443h709c147.333 0 262.333 -32 345 -96c82 -63.333 123 -151.333 123 -264c0 -82 -28 -152 -84 -210c-54.667 -57.333 -124.334 -91.333 -209.001 -102v-8c98.667 -2.66699 182.667 -36.667 252 -102c70.667 -66 106 -146.333 106 -241
c0 -126.667 -46.333 -228.334 -139 -305.001s-216 -115 -370 -115h-733zM523.001 865.001h164c54 0 97 13 129 39s48 61 48 105c0 44.667 -15 79.667 -45 105c-30.667 25.333 -72.667 38 -126 38h-170v-287zM704.001 291.001c66 0 116.667 14.333 152 43
c36 29.333 54 71 54 125c0 51.333 -18 91.333 -54 120s-85.667 43 -149 43h-184v-331h181z" />
    <glyph glyph-name="C" unicode="C" horiz-adv-x="1513" 
d="M256 170c-128 132 -192 316 -192 552s64.333 420 193 552c126 129.333 300.333 194 523 194c192 0 351.333 -56.333 478 -169c127.333 -114 191.333 -259.667 192 -437h-406c-4.66699 82 -31.667 148 -81 198c-48 50 -109 75 -183 75
c-87.333 0 -156.333 -36.333 -207 -109c-51.333 -74 -77 -175 -77 -303c0 -130 25.667 -231.667 77 -305c50 -73.333 119.333 -110 208 -110c73.333 0 134 24.667 182 74c48.667 50 76.334 116.667 83.001 200h406c-0.666992 -179.333 -64.334 -325.333 -191.001 -438
c-125.333 -112.667 -285.666 -169 -480.999 -169c-222.667 0 -397.334 65 -524.001 195z" />
    <glyph glyph-name="D" unicode="D" horiz-adv-x="1477" 
d="M716 1443c220.667 0 391.333 -60.667 512 -182c122 -123.333 183 -299.666 183 -528.999c0 -230.667 -61.333 -410.334 -184 -539.001c-122 -128.667 -292.333 -193 -511 -193h-617v1443h617zM522.999 337l133 -0.000976562c215.333 0 323 131.667 323 395
c0 120.667 -28.333 213.334 -85 278.001c-56 64 -135.333 96 -238 96h-133v-769z" />
    <glyph glyph-name="E" unicode="E" horiz-adv-x="1216" 
d="M1117 0h-1018v1443h1018v-337h-594v-233h557v-304h-557v-232h594v-337z" />
    <glyph glyph-name="F" unicode="F" horiz-adv-x="1164" 
d="M99 0v1443h1014v-337h-590v-277h534v-318h-534v-511h-424z" />
    <glyph glyph-name="G" unicode="G" horiz-adv-x="1530" 
d="M1461 614c0 -198 -58.998 -353.999 -176.998 -467.999c-118.667 -114 -282.334 -171 -491.001 -171c-230 0 -408.667 64.667 -536 194c-128.667 130.667 -193 315.334 -193 554.001c0 235.333 63.667 418.666 191 549.999c126 130 301 195 525 195
c180 0 332 -47.667 456 -143c122.667 -95.333 192 -217.333 208 -366h-417c-14 53.333 -43 95.666 -87 126.999c-44.667 32 -97.334 48 -158.001 48c-90 0 -160 -35.333 -210 -106c-50.667 -71.333 -76 -171 -76 -299c0 -130.667 28 -233.667 84 -309
c54.667 -74 129 -111 223 -111c68.667 0 125.667 17.667 171 53s71 82 77 140l2 20h-220v282h628v-190z" />
    <glyph glyph-name="H" unicode="H" horiz-adv-x="1556" 
d="M1031 0v558h-508v-558h-424v1443h424v-548h508v548h424v-1443h-424z" />
    <glyph glyph-name="I" unicode="I" horiz-adv-x="624" 
d="M99 0v1443h424v-1443h-424z" />
    <glyph glyph-name="J" unicode="J" horiz-adv-x="1271" 
d="M425 511c0 -56.667 13.999 -101 41.999 -133c27.333 -32 65.333 -48 114 -48c95.333 0 143 58 143 174v939h424v-942c0 -168 -49.667 -298 -149 -390c-98 -90.667 -235.333 -136 -412 -136c-175.333 0 -313.666 47.667 -414.999 143c-102 95.333 -153 226.333 -153 393
h406z" />
    <glyph glyph-name="K" unicode="K" horiz-adv-x="1445" 
d="M99 0v1443h424v-612h8l446 612h445l-475 -641l497 -802h-493l-315 530l-113 -152v-378h-424z" />
    <glyph glyph-name="L" unicode="L" horiz-adv-x="1150" 
d="M1089 0h-990v1443h424v-1106h566v-337z" />
    <glyph glyph-name="M" unicode="M" horiz-adv-x="1833" 
d="M1732 0h-370v836h-8l-325 -819h-227l-325 819h-8v-836h-370v1443h490l323 -842h8l322 842h490v-1443z" />
    <glyph glyph-name="N" unicode="N" horiz-adv-x="1494" 
d="M99 0v1443h329l557 -748h8v748h400v-1443h-325l-561 760h-8v-760h-400z" />
    <glyph glyph-name="O" unicode="O" horiz-adv-x="1584" 
d="M1322 1267c130.667 -134 196 -316 196 -546s-65.333 -412 -196 -546c-130.667 -133.333 -307.667 -200 -531 -200c-224 0 -401 66.667 -531 200c-130.667 134 -196 316 -196 546s65.333 412 196 546s307.667 201 531 201s400.333 -67 531 -201zM577 1019
c-54 -74 -80.998 -173.333 -80.998 -298c0 -124 27 -223 81 -297c53.333 -74 124.666 -111 213.999 -111s160.666 37 213.999 111c54 74 81 173 81 297c0 124.667 -27 224 -81 298s-125.333 111 -214 111s-160 -37 -214 -111z" />
    <glyph glyph-name="P" unicode="P" horiz-adv-x="1346" 
d="M758 1443c161.333 0 290.999 -47.667 388.999 -143c98.667 -95.333 148 -223 148 -383c0 -158 -52.333 -285 -157 -381c-103.333 -94.667 -239.666 -142 -408.999 -142h-206v-394h-424v1443h659zM522.999 707h119c71.333 0 126.333 17.667 165 53c40 36 60 88 60 156
c0 67.333 -19.667 119 -59 155c-38.667 35.333 -93 53 -163 53h-122v-417z" />
    <glyph glyph-name="Q" unicode="Q" horiz-adv-x="1583" 
d="M1110 -108l-72.001 116.999c-76 -22.667 -158.333 -34 -247 -34c-224.667 0 -401.667 66 -531 198c-130.667 132.667 -196 315.334 -196 548.001c0 229.333 65.333 411.333 196 546c130.667 134 307.667 201 531 201c222.667 0 399.334 -67 530.001 -201
c130.667 -134.667 196 -316.667 196 -546c0 -239.333 -66 -420 -198 -542l175 -287h-384zM843.999 312.999l-135.999 222.999h345l3 -4c19.333 60 29 123 29 189c0 124.667 -27 225 -81 301c-53.333 76 -124.333 114 -213 114s-160 -38 -214 -114
c-54 -75.333 -81 -175.666 -81 -300.999c0 -124.667 27 -225 81 -301c53.333 -75.333 124.666 -113 213.999 -113c19.333 0 37 2 53 6z" />
    <glyph glyph-name="R" unicode="R" horiz-adv-x="1395" 
d="M523 764h175c59.333 0 106.333 16.667 141 50c34 33.333 51 77.333 51 132c0 54 -17.667 98 -53 132c-35.333 34.667 -81.333 52 -138 52h-176v-366zM523 0l-424 -0.000976562v1443h641c190.667 0 336 -43 436 -129c98 -84.667 147 -205 147 -361
c0 -87.333 -20 -167.333 -60 -240c-42 -75.333 -99.667 -130.666 -173 -165.999l274 -547h-474l-228 484h-139v-484z" />
    <glyph glyph-name="S" unicode="S" horiz-adv-x="1370" 
d="M460 425c6 -40 31 -73.002 75 -99.002c42.667 -24.667 93 -37 151 -37c62.667 0 112.667 11.333 150 34c36.667 22.667 55 51.667 55 87c0 33.333 -15.333 59 -46 77c-29.333 17.333 -83.333 33 -162 47l-191 34c-132 22.667 -233.333 71 -304 145
c-70 72.667 -105 165.667 -105 279c0 144 56 260 168 348c109.333 85.333 251.333 128 426 128c190 0 338 -41 444 -123c103.333 -80.667 155.666 -191.667 156.999 -333h-387c-1.33301 44 -21.666 79 -60.999 105c-38 25.333 -86.333 38 -145 38
c-55.333 0 -99.333 -10.667 -132 -32s-49 -50 -49 -86c0 -34 15.667 -61 47 -81c30 -20 79.667 -36 149 -48l198 -34c140 -24.667 243.667 -71 311 -139c66.667 -67.333 100 -159.666 100 -276.999c0 -147.333 -57 -264.666 -171 -351.999
c-114.667 -87.333 -268 -131 -460 -131c-194.667 0 -346 39 -454 117c-109.333 78.667 -164.333 189.667 -165 333h401z" />
    <glyph glyph-name="T" unicode="T" horiz-adv-x="1274" 
d="M424 0v1106h-380v337h1184v-337h-380v-1106h-424z" />
    <glyph glyph-name="U" unicode="U" horiz-adv-x="1472" 
d="M523 561c0 -76 18.333 -134 55 -174c36 -40.667 88.333 -61 157 -61s121 20.333 157 61c36.667 40 55 98 55 174v882h424v-929c0 -164 -58.333 -295 -175 -393c-116 -97.333 -269.667 -146 -461 -146s-345 48.667 -461 146c-116.667 98 -175 229 -175 393v929h424v-882z
" />
    <glyph glyph-name="V" unicode="V" horiz-adv-x="1486" 
d="M467 0l-438 1443h488l231 -1041h8l231 1041h468l-438 -1443h-550z" />
    <glyph glyph-name="W" unicode="W" horiz-adv-x="2062" 
d="M811 0h-400l-372 1443h438l166 -912h8l215 912h328l215 -912h8l166 912h438l-372 -1443h-400l-215 826h-8z" />
    <glyph glyph-name="X" unicode="X" horiz-adv-x="1507" 
d="M465 723v8l-426 712h494l227 -460h8l228 460h470l-447 -714v-8l445 -721h-472l-248 435h-9l-247 -435h-448z" />
    <glyph glyph-name="Y" unicode="Y" horiz-adv-x="1470" 
d="M522 0v457l-493 986h453l253 -585h8l253 585h443l-493 -986v-457h-424z" />
    <glyph glyph-name="Z" unicode="Z" horiz-adv-x="1321" 
d="M79 266l643 832v8h-637v337h1131v-265l-641 -833v-8h665v-337h-1161v266z" />
    <glyph glyph-name="bracketleft" unicode="[" horiz-adv-x="846" 
d="M786 1444v-294h-304v-1096h317v-294h-710v1684h697z" />
    <glyph glyph-name="backslash" unicode="\" horiz-adv-x="783" 
d="M0 1443h395l388 -1701h-386z" />
    <glyph glyph-name="bracketright" unicode="]" horiz-adv-x="846" 
d="M755 -240h-710v294h317v1096h-304v294h697v-1684z" />
    <glyph glyph-name="asciicircum" unicode="^" horiz-adv-x="1060" 
d="M359 829h-345l354 596h329l349 -596h-358l-150 279h-18z" />
    <glyph glyph-name="underscore" unicode="_" horiz-adv-x="886" 
d="M-38 -415v308h962v-308h-962z" />
    <glyph glyph-name="grave" unicode="`" horiz-adv-x="1015" 
d="M482 1275l-265 321h347l232 -321h-314z" />
    <glyph glyph-name="a" unicode="a" horiz-adv-x="1231" 
d="M695 297c36.667 26 55 59.667 55 101v74l-181 -13c-85.333 -6 -128 -39.667 -128 -101c0 -30.667 11.667 -55 35 -73c22.667 -17.333 53.334 -26 92.001 -26c49.333 0 91.666 12.667 126.999 38zM149 79c-74.667 66 -112 148.667 -112 248
c0 214.667 155 331.334 465 350.001l248 15v57c0 37.333 -13 66.666 -39 87.999c-25.333 20.667 -58.666 31 -99.999 31c-42 0 -77 -10.333 -105 -31c-26.667 -20 -41.667 -45 -45 -75h-366c5.33301 119.333 55.666 214 150.999 284c96 70.667 225 106 387 106
c154.667 0 279.667 -35.333 375 -106c94.667 -70.667 142 -163 142 -277v-769h-400v152h-8c-28.667 -53.333 -74 -95 -136 -125c-58 -28.667 -121.333 -43 -190 -43c-105.333 0 -194.333 31.667 -267 95z" />
    <glyph glyph-name="b" unicode="b" horiz-adv-x="1330" 
d="M630 40c-59.333 36.667 -102 88 -128 154h-8v-194h-410v1518h410v-596h8c57.333 145.333 169 218 335 218c142 0 251.333 -50 328 -150c76 -100 114 -242.667 114 -428s-37.667 -328 -113 -428c-76 -100 -184 -150 -324 -150c-82 0 -152.667 18.667 -212 56zM542 752
c-32.667 -47.333 -49.3359 -110.999 -50.0029 -190.999c0.666992 -80.667 17.334 -144 50.001 -190c32.667 -46.667 77.334 -70 134.001 -70c56 0 100.667 23.667 134 71c32.667 46.667 49 110 49 190c0 79.333 -16.667 142.666 -50 189.999s-77.666 71 -132.999 71
c-56 0 -100.667 -23.667 -134 -71z" />
    <glyph glyph-name="c" unicode="c" horiz-adv-x="1223" 
d="M804 662c-4.66699 56.667 -21.667 101.666 -51 134.999c-30 32.667 -68 49 -114 49c-56.667 0 -100 -24.333 -130 -73s-45 -118.667 -45 -210c0 -190 58.333 -285 175 -285c48 0 86.333 15.667 115 47c29.333 30.667 46 74 50 130h373
c-2.66699 -150.667 -52.334 -269 -149.001 -355c-96.667 -85.333 -228 -128 -394 -128c-182 0 -325 52.333 -429 157s-156 249.334 -156 434.001c0 182.667 52.333 326.667 157 432c104 104.667 246 157 426 157c162.667 0 293.334 -44 392.001 -132
c99.333 -88.667 150.333 -208 153 -358h-373z" />
    <glyph glyph-name="d" unicode="d" horiz-adv-x="1325" 
d="M165 137c-77.333 102.667 -116 245.334 -116 428.001c0 180.667 39.333 321.667 118 423s188 152 328 152c80 0 150.333 -20.667 211 -62c57.333 -39.333 97.333 -91.333 120 -156h8v596h410v-1518h-410v194h-8c-19.333 -60.667 -59.333 -110.334 -120 -149.001
c-62.667 -40.667 -135 -61 -217 -61c-138.667 0 -246.667 51 -324 153zM518 753c-32.667 -46 -48.999 -109.667 -48.999 -191c0 -82 16 -146 48 -192c32.667 -46 77.667 -69 135 -69c58 0 103.333 23 136 69c32 45.333 48 109 48 191c0 81.333 -16.333 145.333 -49 192
s-77.667 70 -135 70c-56.667 0 -101.334 -23.333 -134.001 -70z" />
    <glyph glyph-name="e" unicode="e" horiz-adv-x="1243" 
d="M507 821c-33.333 -32 -51.999 -73 -55.999 -123h358c-3.33301 52 -21.333 93.667 -54 125c-32.667 30.667 -74.334 46 -125.001 46c-48.667 0 -89.667 -16 -123 -48zM1187 363c-17.333 -120.667 -75.332 -215.999 -173.999 -285.999c-99.333 -70 -225.333 -105 -378 -105
c-183.333 0 -327 51.667 -431 155c-103.333 103.333 -155 246.333 -155 429c0 183.333 51.667 328.666 155 435.999c102.667 106.667 242 160 418 160c173.333 0 311.666 -51.333 414.999 -154s155 -240 155 -412v-111h-747v-26c0 -57.333 18.333 -104 55 -140
c36.667 -36.667 83.667 -55 141 -55c93.333 0 153.333 36.333 180 109h366z" />
    <glyph glyph-name="f" unicode="f" horiz-adv-x="839" 
d="M178 826h-149.001v298h149v96c0 112 32 191.667 96 239c64.667 47.333 174.334 71 329.001 71c60.667 0 118.334 -4 173.001 -12v-261c-26.667 4 -53.334 6 -80.001 6c-80 0 -120 -26 -120 -78v-61h202v-298h-190v-826h-410v826z" />
    <glyph glyph-name="g" unicode="g" horiz-adv-x="1325" 
d="M788 375c32 42.667 48.001 104.666 48.001 185.999s-16.333 145.333 -49 192s-77.667 70 -135 70c-56.667 0 -101.334 -23.333 -134.001 -70c-32.667 -46 -49 -109.667 -49 -191s16 -143.666 48 -186.999c32 -42.667 77 -64 135 -64c58.667 0 104 21.333 136 64z
M236.001 -326.001c-104 64 -157.333 150.001 -160 258.001h394c6 -27.333 26 -49.333 60 -66c33.333 -16.667 72.666 -25 117.999 -25c56 0 100.667 13 134 39c34.667 27.333 52 64 52 110v224h-8c-19.333 -59.333 -59.333 -107.333 -120 -144
c-61.333 -37.333 -133.666 -56 -216.999 -56c-134 0 -240.333 48 -319 144c-80.667 98 -121 233.667 -121 407c0 180.667 39.333 321.667 118 423s188 152 328 152c80 0 150.333 -20.667 211 -62c57.333 -39.333 97.333 -91.333 120 -156h8v202h410v-1104
c0 -132.667 -55 -239.334 -165 -320.001s-255 -121 -435 -121c-168.667 0 -304.667 31.667 -408 95z" />
    <glyph glyph-name="h" unicode="h" horiz-adv-x="1328" 
d="M84 1518l399.999 0.00195312v-614h8c28 78 74 138 138 180c62.667 41.333 137 62 223 62c126 0 224 -37.333 294 -112s105 -179.334 105 -314.001v-720h-410v629c0 57.333 -15.333 102.666 -46 135.999c-31.333 33.333 -73.666 50 -126.999 50
c-50.667 0 -92.667 -17.333 -126 -52c-32.667 -35.333 -49 -80 -49 -134v-629h-410v1518z" />
    <glyph glyph-name="i" unicode="i" horiz-adv-x="570" 
d="M79 1124h410v-1124h-410v1124zM139 1245c-40 37.333 -60 84 -60 140s20 102.667 60 140c39.333 36.667 87.666 55 144.999 55s105.666 -18.333 144.999 -55c40 -37.333 60 -84 60 -140s-20 -102.667 -60 -140c-39.333 -36.667 -87.666 -55 -144.999 -55
s-105.666 18.333 -144.999 55z" />
    <glyph glyph-name="j" unicode="j" horiz-adv-x="570" 
d="M490 7c0 -114 -39.666 -202.667 -118.999 -266c-78.667 -63.333 -189.334 -95 -332.001 -95c-51.333 0 -93 2 -125 6v286c12 -2 27.667 -3 47 -3c79.333 0 119 30 119 90v1099h410v-1117zM140.001 1245c-40 37.333 -60 84 -60 140s20 102.667 60 140
c39.333 36.667 87.666 55 144.999 55s105.666 -18.333 144.999 -55c40 -37.333 60 -84 60 -140s-20 -102.667 -60 -140c-39.333 -36.667 -87.666 -55 -144.999 -55s-105.666 18.333 -144.999 55z" />
    <glyph glyph-name="k" unicode="k" horiz-adv-x="1226" 
d="M782 1124h452l-378 -480l404 -644h-471l-238 399l-57 -74v-325h-410v1518h410v-803h8z" />
    <glyph glyph-name="l" unicode="l" horiz-adv-x="580" 
d="M84 1518h410v-1518h-410v1518z" />
    <glyph glyph-name="m" unicode="m" horiz-adv-x="1920" 
d="M79 1124l400 0.00292969v-226h8c20.667 75.333 60.334 135.666 119.001 180.999c58 44.667 125.333 67 202 67c85.333 0 155.333 -21.333 210 -64s89 -103.334 103 -182.001h8c19.333 74 60.333 133.667 123 179c63.333 44.667 137.333 67 222 67
c109.333 0 198.333 -35.667 267 -107s103 -164.333 103 -279v-760h-410v654c0 108.667 -46.667 163 -140 163c-42.667 0 -76.334 -14.667 -101.001 -44c-24.667 -28.667 -37 -68.334 -37 -119.001v-654h-389v654c0 108.667 -46.333 163 -139 163
c-42.667 0 -76.667 -14.667 -102 -44c-24.667 -29.333 -37 -69 -37 -119v-654h-410v1124z" />
    <glyph glyph-name="n" unicode="n" horiz-adv-x="1319" 
d="M79 1124l400.001 0.000976562v-220h8c58.667 161.333 177 242 355 242c126 0 224.333 -37.333 295 -112s106 -179.334 106 -314.001v-720h-410v629c0 58 -15 103.333 -45 136c-30.667 33.333 -72.667 50 -126 50c-50.667 0 -92.334 -17.333 -125.001 -52
c-32 -35.333 -48 -80 -48 -134v-629h-410v1124z" />
    <glyph glyph-name="o" unicode="o" horiz-adv-x="1278" 
d="M207 125c-105.333 104 -158 250.001 -158 438.001c0 183.333 53.333 327.666 160 432.999c105.333 104 248.333 156 429 156c182 0 325.333 -51.667 430 -155c106 -105.333 159 -250 159 -434c0 -188.667 -52.333 -334.667 -157 -438
c-103.333 -102 -247.333 -153 -432 -153c-184 0 -327.667 51 -431 153zM765 342.001c30.667 52 46 125.333 46 220c0 92.667 -15.667 165.334 -47 218.001c-30.667 52 -72.667 78 -126 78s-95.333 -26 -126 -78c-31.333 -52.667 -47 -125.334 -47 -218.001
c0 -94.667 15.333 -168 46 -220c30 -50.667 72.333 -76 127 -76c54 0 96.333 25.333 127 76z" />
    <glyph glyph-name="p" unicode="p" horiz-adv-x="1325" 
d="M1160 990c76 -100 114 -242.667 114 -428s-37.667 -328 -113 -428c-76 -100 -184 -150 -324 -150c-82 0 -152.667 18.667 -212 56c-59.333 36.667 -102 88 -128 154h-8v-526h-410v1456h410v-202h8c57.333 145.333 169 218 335 218c142 0 251.333 -50 328 -150zM805 372
c32.667 46.667 48.998 110.001 48.998 190.001c0 79.333 -16.667 142.666 -50 189.999s-77.666 71 -132.999 71c-56 0 -100.667 -23.667 -134 -71c-32.667 -47.333 -49.334 -111 -50.001 -191c0.666992 -80.667 17.334 -144 50.001 -190
c32.667 -46.667 77.334 -70 134.001 -70c56 0 100.667 23.667 134 71z" />
    <glyph glyph-name="q" unicode="q" horiz-adv-x="1325" 
d="M706 1078c57.333 -39.333 97.333 -91.333 120 -156h8v202h410v-1456h-410v526h-8c-19.333 -60.667 -59.333 -110.334 -120 -149.001c-62.667 -40.667 -135 -61 -217 -61c-138.667 0 -246.667 51 -324 153c-77.333 102.667 -116 245.334 -116 428.001
c0 180.667 39.333 321.667 118 423s188 152 328 152c80 0 150.333 -20.667 211 -62zM788 370c32 45.333 48.001 109 48.001 191c0 81.333 -16.333 145.333 -49 192s-77.667 70 -135 70c-56.667 0 -101.334 -23.333 -134.001 -70c-32.667 -46 -49 -109.667 -49 -191
c0 -82 16 -146 48 -192c32.667 -46 77.667 -69 135 -69c58 0 103.333 23 136 69z" />
    <glyph glyph-name="r" unicode="r" horiz-adv-x="868" 
d="M79 1124h400v-220h8c41.333 157.333 129 236 263 236c36 0 68.333 -5.33301 97 -16v-345c-36 15.333 -76.333 23 -121 23c-158 0 -237 -79.333 -237 -238v-564h-410v1124z" />
    <glyph glyph-name="s" unicode="s" horiz-adv-x="1172" 
d="M199 1051c92.667 67.333 220.336 101 383.003 101s290 -34.333 382 -103c92.667 -69.333 139 -165 139 -287h-372c-0.666992 37.333 -14.667 66.666 -42 87.999c-27.333 22 -64 33 -110 33c-38.667 0 -69.334 -7.33301 -92.001 -22c-23.333 -14.667 -35 -34 -35 -58
c0 -36.667 37 -62 111 -76l251 -50c111.333 -22 193 -57.667 245 -107c51.333 -50 77 -117.667 77 -203c0 -120.667 -50 -217 -150 -289c-98.667 -70.667 -230.334 -106 -395.001 -106c-171.333 0 -306 35.333 -404 106c-94.667 68.667 -145.667 163.667 -153 285h396
c4.66699 -38 21.667 -67.667 51 -89c29.333 -22 67.666 -33 114.999 -33c89.333 0 134 25.667 134 77c0 34.667 -36 59 -108 73l-216 43c-231.333 46 -347 160 -347 342c0 116.667 46.667 208.334 140 275.001z" />
    <glyph glyph-name="t" unicode="t" horiz-adv-x="847" 
d="M588 1371l0.000976562 -247h198v-298h-198v-423c0 -72 42.333 -108 127 -108c27.333 0 51 1.66699 71 5v-285c-48.667 -10 -105.334 -15 -170.001 -15c-156.667 -0 -269 24.333 -337 73c-67.333 48.667 -101 128.667 -101 240v513h-149v298h149v247h410z" />
    <glyph glyph-name="u" unicode="u" horiz-adv-x="1319" 
d="M1238 0h-400v220h-8c-22.667 -76 -63.667 -135.333 -123 -178c-60 -42.667 -132 -64 -216 -64c-123.333 0 -223 37.333 -299 112c-78.667 78 -118 182.333 -118 313v721h410v-629c0 -58.667 16.667 -104.667 50 -138c31.333 -32 73 -48 125 -48c48.667 0 89 17 121 51
c32 34.667 48 79.667 48 135v629h410v-1124z" />
    <glyph glyph-name="v" unicode="v" horiz-adv-x="1189" 
d="M837 0h-480l-367 1124h442l167 -791h8l163 791h429z" />
    <glyph glyph-name="w" unicode="w" horiz-adv-x="1796" 
d="M1502 0h-445l-159 729h-8l-157 -729h-437l-286 1124h415l122 -764h8l151 764h391l154 -764h8l122 764h405z" />
    <glyph glyph-name="x" unicode="x" horiz-adv-x="1216" 
d="M591 356l-158 -356h-422l326 558l-327 566h464l142 -344h8l141 344h441l-327 -558l327 -566h-443l-164 356h-8z" />
    <glyph glyph-name="y" unicode="y" horiz-adv-x="1246" 
d="M122 -412l-0.000976562 305.999h60c126 0 190 24.667 192 74v20l-374 1136h455l175 -828h8l175 828h433l-339 -1101c-48 -155.333 -121.667 -266.666 -221 -333.999s-238.666 -101 -417.999 -101h-146z" />
    <glyph glyph-name="z" unicode="z" horiz-adv-x="1128" 
d="M59 209l506 603v8h-490v304h970v-244l-446 -568v-8h468v-304h-1008v209z" />
    <glyph glyph-name="braceleft" unicode="{" horiz-adv-x="940" 
d="M409 588c157.333 -13.333 236.003 -100.001 236.003 -260.001v-198c0 -77.333 12.667 -128 38 -152c25.333 -24.667 77.666 -37 156.999 -37h44v-283h-149c-174.667 0 -298.667 31.333 -372 94c-74 62.667 -111 168.334 -111 317.001v161
c0 76.667 -11.333 129.667 -34 159s-64 44 -124 44v347c59.333 0 100.666 15 123.999 45c22.667 29.333 34 82.333 34 159v128c0 146.667 36.667 250.334 110 311.001s197.666 91 372.999 91h149v-284h-44c-80 0 -132.333 -12.333 -157 -37
c-25.333 -24 -38 -74.667 -38 -152v-188c0 -73.333 -18.667 -128 -56 -164c-37.333 -36.667 -97.333 -58.334 -180 -65.001v-36z" />
    <glyph glyph-name="bar" unicode="|" horiz-adv-x="760" 
d="M179 -259v1702h400v-1702h-400z" />
    <glyph glyph-name="braceright" unicode="}" horiz-adv-x="940" 
d="M531 624c-83.333 6.66699 -143.998 28.334 -181.998 65.001c-38 36 -57 90.667 -57 164v188c0 77.333 -12.333 128.333 -37 153c-25.333 24 -77.666 36 -156.999 36h-44v284h150c175.333 0 299.333 -30.333 372 -91s109 -164.334 109 -311.001v-128
c0 -76.667 11.667 -129.667 35 -159c23.333 -30 64.666 -45 123.999 -45v-347c-60 0 -101.333 -14.667 -124 -44c-23.333 -29.333 -35 -82.333 -35 -159v-161c0 -149.333 -36.667 -255.333 -110 -318c-72.667 -62 -196.334 -93 -371.001 -93h-150v283h44
c79.333 0 131.666 12.333 156.999 37c24.667 24 37 74.667 37 152v198c0 160 79.667 246.667 239 260v36z" />
    <glyph glyph-name="asciitilde" unicode="~" horiz-adv-x="1159" 
d="M424 675c-60.667 0 -90.999 -59 -90.999 -177h-296c-11.333 153.333 13.667 275.666 75 366.999c60.667 91.333 148 137 262 137c91.333 0 182.333 -45.333 273 -136c41.333 -41.333 80 -62 116 -62c60.667 0 91 59.333 91 178h296
c11.333 -153.333 -13.334 -275.666 -74.001 -366.999c-61.333 -91.333 -149 -137 -263 -137c-89.333 0 -179 44.333 -269 133c-42.667 42.667 -82.667 64 -120 64z" />
    <glyph glyph-name="uni00A0" unicode="&#xa0;" horiz-adv-x="390" 
 />
    <glyph glyph-name="exclamdown" unicode="&#xa1;" horiz-adv-x="749" 
d="M200 667h348l36 -972h-420zM223 838c-41.333 38.667 -62 85.666 -62 140.999c0 56 20.667 103.333 62 142c41.333 38 91.666 57 150.999 57c58.667 0 108.667 -19 150 -57c41.333 -39.333 62 -86.666 62 -141.999s-20.667 -102.333 -62 -141
c-42 -38.667 -92 -58 -150 -58c-59.333 0 -109.666 19.333 -150.999 58z" />
    <glyph glyph-name="cent" unicode="&#xa2;" horiz-adv-x="1413" 
d="M1297 545c-7.33301 -118 -49.999 -216.334 -127.999 -295.001c-75.333 -76.667 -174.666 -126.334 -297.999 -149.001v-195h-312v202c-136.667 30.667 -244.334 95 -323.001 193c-81.333 102 -122 228.333 -122 379c0 149.333 40.667 275 122 377
c79.333 98 187 162.333 323 193v203h312v-197c121.333 -24 220.333 -75.333 297 -154c78.667 -82 121.667 -181.667 129 -299h-370c-8.66699 46 -30.334 84 -65.001 114c-35.333 29.333 -76 44 -122 44c-63.333 0 -114.666 -24 -153.999 -72c-42 -51.333 -63 -121 -63 -209
c0 -89.333 20.667 -159.666 62 -210.999c39.333 -48 90.333 -72 153 -72c49.333 0 91 13.667 125 41c33.333 26.667 54.666 62.334 63.999 107.001h370z" />
    <glyph glyph-name="sterling" unicode="&#xa3;" horiz-adv-x="1413" 
d="M1298 342l0.000976562 -342.001h-1185v312c90.667 6.66699 162.667 37.334 216 92.001c54 54.667 81 125 81 211h-289v270h213c-37.333 87.333 -56 162.333 -56 225c0 119.333 52 211.333 156 276s251.667 97 443 97c150 0 270 -16 360 -48v-312
c-89.333 32 -187 48 -293 48c-78.667 0 -139.334 -13.333 -182.001 -40c-42 -26 -63 -63.667 -63 -113c0 -36.667 9.66699 -81 29 -133h359v-270h-288c-11.333 -122 -59 -209 -143 -261v-12h642z" />
    <glyph glyph-name="currency" unicode="&#xa4;" horiz-adv-x="1462" 
d="M586 497c40.667 -41.333 88.667 -62 144 -62s103.333 20.667 144 62s61 89.666 61 144.999s-20.333 103.666 -61 144.999s-88.667 62 -144 62s-103.333 -20.667 -144 -62s-61 -89.666 -61 -144.999s20.333 -103.666 61 -144.999zM1185 871
c36.667 -72 55 -148.333 55 -229s-18.333 -157 -55 -229l132 -132l-226 -226l-132 132c-72 -36.667 -148.333 -55 -229 -55s-157 18.333 -229 55l-132 -132l-226 226l132 132c-36.667 72 -55 148.333 -55 229s18.333 157 55 229l-132 132l226 226l132 -132
c72 36.667 148.333 55 229 55s157 -18.333 229 -55l132 132l226 -226z" />
    <glyph glyph-name="yen" unicode="&#xa5;" horiz-adv-x="1413" 
d="M919 155v-155h-424v155h-265v196h265v106h-265v196h167l-395 790h449l251 -579h12l248 579h449l-394 -790h167v-196h-265v-106h265v-196h-265z" />
    <glyph glyph-name="brokenbar" unicode="&#xa6;" horiz-adv-x="760" 
d="M179 773v670h400v-670h-400zM179 -259v670h400v-670h-400z" />
    <glyph glyph-name="section" unicode="&#xa7;" horiz-adv-x="1000" 
d="M594 444c40.667 24.667 61 56.333 61 95c0 48.667 -37.667 87 -113 115l-135 55c-40.667 -25.333 -61 -57 -61 -95c0 -48 37.667 -86.667 113 -116zM162 -210.001c-85.333 66.667 -129.666 154.332 -132.999 262.999h330c2.66699 -28.667 16.667 -52.667 42 -72
c24.667 -18.667 54.667 -28 90 -28s64 9.33301 86 28s33 43 33 73c0 38 -33.333 69.333 -100 94l-210 78c-101.333 38.667 -174.333 82.334 -219 131.001c-44 48.667 -66 109.334 -66 182.001c0 61.333 18.667 116.666 56 165.999c37.333 48.667 88 84 152 106v20
c-70 36.667 -119.333 76 -148 118c-29.333 41.333 -44 93.666 -44 156.999c0 108.667 43 195.334 129 260.001s201.333 97 346 97c134.667 0 244.667 -33.333 330 -100s129.666 -154.334 132.999 -263.001h-330c-2.66699 28.667 -16.667 52.667 -42 72
c-24.667 18.667 -54.667 28 -90 28s-64 -9.33301 -86 -28s-33 -43 -33 -73c0 -35.333 33.333 -66.666 100 -93.999l200 -78c105.333 -42 181 -87.333 227 -136c45.333 -48.667 68 -107.667 68 -177c0 -61.333 -18.667 -116.666 -56 -165.999
c-37.333 -48.667 -88 -84 -152 -106v-20c70 -38 119.667 -77.667 149 -119c28.667 -41.333 43 -93.333 43 -156c0 -108.667 -43 -195.334 -129 -260.001s-201.333 -97 -346 -97c-134.667 0 -244.667 33.333 -330 100z" />
    <glyph glyph-name="dieresis" unicode="&#xa8;" horiz-adv-x="1016" 
d="M172 1300c-30 29.333 -45 64.666 -45 105.999c0 42 15 77.333 45 106c30 29.333 67.667 44 113 44s83.333 -14.667 114 -44c29.333 -28.667 44 -64 44 -106c0 -41.333 -14.667 -76.666 -44 -105.999c-30.667 -29.333 -68.667 -44 -114 -44s-83 14.667 -113 44zM616 1300
c-30 29.333 -45 64.666 -45 105.999c0 42 15 77.333 45 106c30 29.333 67.667 44 113 44s83.333 -14.667 114 -44c29.333 -28.667 44 -64 44 -106c0 -41.333 -14.667 -76.666 -44 -105.999c-30.667 -29.333 -68.667 -44 -114 -44s-83 14.667 -113 44z" />
    <glyph glyph-name="copyright" unicode="&#xa9;" horiz-adv-x="1688" 
d="M289 120c-153.333 154 -230 338.667 -230 554s76.667 400 230 554c154 153.333 338.667 230 554 230s400 -76.667 554 -230c153.333 -154 230 -338.667 230 -554s-76.667 -400 -230 -554c-154 -153.333 -338.667 -230 -554 -230s-400 76.667 -554 230zM1265 252
c116.667 116.667 175 257.334 175 422.001s-58.333 305.334 -175 422.001s-257.334 175 -422.001 175s-305.334 -58.333 -422.001 -175s-175 -257.334 -175 -422.001s58.333 -305.334 175 -422.001s257.334 -175 422.001 -175s305.334 58.333 422.001 175zM962 752
c-7.33301 67.333 -41.332 101 -101.999 101c-74 0 -111 -59.333 -111 -178c0 -120 37 -180 111 -180c60.667 0 94.667 31.333 102 94h237c-6.66699 -90.667 -40.334 -161.667 -101.001 -213s-141 -77 -241 -77c-114.667 0 -205 33.333 -271 100
c-65.333 66.667 -98 158.667 -98 276c0 115.333 32.667 206.666 98 273.999c66 66.667 155.667 100 269 100c98.667 0 179 -26.667 241 -80s96.333 -125.666 103 -216.999h-237z" />
    <glyph glyph-name="ordfeminine" unicode="&#xaa;" horiz-adv-x="1041" 
d="M511 727c31.333 0 57 9.33203 77 27.999c19.333 19.333 29 44.333 29 75v50l-107 -8c-63.333 -5.33301 -95 -29.666 -95 -72.999c0 -48 32 -72 96 -72zM141 560.999c-54.667 52 -82.001 122.999 -82.001 212.999c0 175.333 129.667 271 389 287l169 9v70
c0.666992 20 -7 36.333 -23 49c-16.667 12 -38.667 18 -66 18c-57.333 0 -90 -19.667 -98 -59h-338c5.33301 100.667 47.333 179 126 235s186.334 84 323.001 84c135.333 0 242.333 -29.667 321 -89s118 -140 118 -242v-641h-357v108h-20
c-17.333 -37.333 -47.333 -66.666 -90 -87.999c-44 -22 -94.333 -33 -151 -33c-93.333 0 -167 26.333 -221 79z" />
    <glyph glyph-name="guillemotleft" unicode="&#xab;" horiz-adv-x="1409" 
d="M976 565l342 -409h-347l-338 406v8l347 407h338l-342 -406v-6zM432 565l342 -409h-347l-338 406v8l347 407h338l-342 -406v-6z" />
    <glyph glyph-name="logicalnot" unicode="&#xac;" horiz-adv-x="1413" 
d="M1276 5h-362v409h-779v348h1141v-757z" />
    <glyph glyph-name="registered" unicode="&#xae;" horiz-adv-x="1196" 
d="M217 525c-105.333 105.333 -158 232 -158 380s52.667 274.667 158 380s232 158 380 158s274.667 -52.667 380 -158s158 -232 158 -380s-52.667 -274.667 -158 -380s-232 -158 -380 -158s-274.667 52.667 -380 158zM863 639c73.333 73.333 110 162 110 266
s-36.667 192.667 -110 266s-162 110 -266 110s-192.667 -36.667 -266 -110s-110 -162 -110 -266s36.667 -192.667 110 -266s162 -110 266 -110s192.667 36.667 266 110zM379 671l0.000976562 477.001h263c57.333 0 102.666 -14.333 135.999 -43
c34 -28.667 51 -67.334 51 -116.001c0 -74 -30.333 -122.667 -91 -146l116 -172h-177l-94 150h-52v-150h-152zM531.001 928.001h74c43.333 0 65 16.667 65 50c0 36 -21 54 -63 54h-76v-104z" />
    <glyph glyph-name="macron" unicode="&#xaf;" horiz-adv-x="1000" 
d="M851 1276h-704v180h704v-180z" />
    <glyph glyph-name="degree" unicode="&#xb0;" horiz-adv-x="704" 
d="M124 858c-61.333 61.333 -91.999 137.332 -91.999 227.999s30.333 166.334 91 227.001s136.667 91 228 91s167.333 -30.333 228 -91c60.667 -60 91 -135.667 91 -227c0 -90.667 -30.333 -166.667 -91 -228c-60.667 -60.667 -136.667 -91 -228 -91
c-90.667 0 -166.334 30.333 -227.001 91zM429.001 1007c20 21.333 29.999 47.668 29.999 79.001s-10.333 57.666 -31 78.999c-20 21.333 -45.333 32 -76 32c-30 0 -55.667 -10.667 -77 -32c-21.333 -22 -32 -48.333 -32 -79s10.667 -57 32 -79c21.333 -22.667 47 -34 77 -34
c30.667 0 56.334 11.333 77.001 34z" />
    <glyph glyph-name="plusminus" unicode="&#xb1;" horiz-adv-x="1413" 
d="M1191 37h-975v288h975v-288zM880 452h-350v188h-314v296h314v188h350v-188h315v-296h-315v-188z" />
    <glyph glyph-name="uni00B2" unicode="&#xb2;" horiz-adv-x="719" 
d="M16 1546c0 82 30 146.668 90 194.001s141.667 71 245 71c96.667 0 174 -20.333 232 -61c58.667 -40.667 88 -94.667 88 -162c0 -73.333 -43 -142 -129 -206l-127 -94v-5h262v-218h-643v198l316 248c21.333 17.333 32 33.666 32 48.999c0 25.333 -15.333 38 -46 38
c-33.333 0 -50 -17.333 -50 -52v-7h-270v7z" />
    <glyph glyph-name="uni00B3" unicode="&#xb3;" horiz-adv-x="748" 
d="M279 1521l89 0.00195312c35.333 0 53 12.667 53 38c0 28 -18.667 42 -56 42c-18 0 -32.667 -5.33301 -44 -16s-17 -24.667 -17 -42h-264c-3.33301 81.333 25 146.333 85 195c59.333 48.667 140.333 73 243 73c97.333 0 176 -19 236 -57c59.333 -38 89 -88.333 89 -151
c0 -40 -14 -74.667 -42 -104c-28 -30 -64.667 -49 -110 -57v-6c54.667 -7.33301 97 -26 127 -56c30.667 -30 46 -67.667 46 -113c0 -70.667 -30.667 -126.334 -92 -167.001c-62 -40.667 -146.667 -61 -254 -61c-98.667 0 -179 24.667 -241 74
c-62.667 49.333 -96 114.666 -100 195.999h284c0 -28.667 18 -43 54 -43c34.667 0 52 12 52 36c0 24.667 -18 37 -54 37h-84v182z" />
    <glyph glyph-name="acute" unicode="&#xb4;" horiz-adv-x="1015" 
d="M217 1275l232 321h347l-265 -321h-314z" />
    <glyph glyph-name="paragraph" unicode="&#xb6;" horiz-adv-x="1744" 
d="M673 -290l-0.000976562 625h-20c-164.667 0 -302 54.333 -412 163c-108 106 -162 236 -162 390c0 160.667 52 292.667 156 396c106.667 106 246.334 159 419.001 159h399v-1733h-380zM1243 1443h380v-1733h-380v1733z" />
    <glyph glyph-name="periodcentered" unicode="&#xb7;" horiz-adv-x="744" 
d="M224 506c-40.667 40.667 -61 89.667 -61 147s20.333 106.333 61 147s89.667 61 147 61s106.333 -20.333 147 -61s61 -89.667 61 -147s-20.333 -106.333 -61 -147s-89.667 -61 -147 -61s-106.333 20.333 -147 61z" />
    <glyph glyph-name="cedilla" unicode="&#xb8;" horiz-adv-x="1015" 
d="M386 -98l63 114.001l180 -16l-46 -89c48 0 87 -15.333 117 -46s45 -71.334 45 -122.001c0 -130 -87.667 -195 -263 -195c-62.667 0 -107 5 -133 15v141c25.333 -8 58.333 -12 99 -12c62.667 0 94 12.333 94 37c0 17.333 -7.33301 29.333 -22 36s-40.667 10 -78 10h-56
v127z" />
    <glyph glyph-name="uni00B9" unicode="&#xb9;" horiz-adv-x="604" 
d="M208 1542h-5l-166 -102v237l172 108h302v-720h-303v477z" />
    <glyph glyph-name="ordmasculine" unicode="&#xba;" horiz-adv-x="1128" 
d="M470 802c22 -39.333 52.668 -59 92.001 -59c40 0 71 19.667 93 59c21.333 39.333 32 95 32 167c0 70.667 -11 126 -33 166c-22.667 40.667 -53.334 61 -92.001 61s-69 -20.333 -91 -61s-33 -96 -33 -166c0 -72 10.667 -127.667 32 -167zM191.001 599
c-88 88.667 -131.999 212.334 -131.999 371.001c0 155.333 45 277.666 135 366.999c90 90 212.667 135 368 135c156.667 0 280 -44.667 370 -134s135 -212 135 -368c0 -160 -44 -283.667 -132 -371c-88.667 -88 -213 -132 -373 -132c-158.667 0 -282.334 44 -371.001 132z
" />
    <glyph glyph-name="guillemotright" unicode="&#xbb;" horiz-adv-x="1409" 
d="M89 977h338l347 -407v-8l-338 -406h-347l342 409v6zM633 977h338l347 -407v-8l-338 -406h-347l342 409v6z" />
    <glyph glyph-name="onequarter" unicode="&#xbc;" horiz-adv-x="1787" 
d="M135 0l1051 1443h340l-1051 -1443h-340zM1388 76h-350v243c61.333 122 135.333 255.667 222 401h409v-422h74v-222h-74v-76h-281v76zM1275 283h123v253h-6c-29.333 -58 -68.333 -140.667 -117 -248v-5zM218 1205h-5l-166 -102v237l172 108h302v-720h-303v477z" />
    <glyph glyph-name="onehalf" unicode="&#xbd;" horiz-adv-x="1782" 
d="M135 0l1051 1443h340l-1051 -1443h-340zM218 1205h-5l-166 -102v237l172 108h302v-720h-303v477zM1079 481c0 82 30 146.668 90 194.001s141.667 71 245 71c96.667 0 174 -20.333 232 -61c58.667 -40.667 88 -94.667 88 -162c0 -73.333 -43 -142 -129 -206l-127 -94v-5
h262v-218h-643v198l316 248c21.333 17.333 32 33.666 32 48.999c0 25.333 -15.333 38 -46 38c-33.333 0 -50 -17.333 -50 -52v-7h-270v7z" />
    <glyph glyph-name="threequarters" unicode="&#xbe;" horiz-adv-x="1857" 
d="M235 0l1051 1443h340l-1051 -1443h-340zM1458 76h-350v243c61.333 122 135.333 255.667 222 401h409v-422h74v-222h-74v-76h-281v76zM1345 283h123v253h-6c-29.333 -58 -68.333 -140.667 -117 -248v-5zM279 1184l89 0.00195312c35.333 0 53 12.667 53 38
c0 28 -18.667 42 -56 42c-18 0 -32.667 -5.33301 -44 -16s-17 -24.667 -17 -42h-264c-3.33301 81.333 25 146.333 85 195c59.333 48.667 140.333 73 243 73c97.333 0 176 -19 236 -57c59.333 -38 89 -88.333 89 -151c0 -40 -14 -74.667 -42 -104
c-28 -30 -64.667 -49 -110 -57v-6c54.667 -7.33301 97 -26 127 -56c30.667 -30 46 -67.667 46 -113c0 -70.667 -30.667 -126.334 -92 -167.001c-62 -40.667 -146.667 -61 -254 -61c-98.667 0 -179 24.667 -241 74c-62.667 49.333 -96 114.666 -100 195.999h284
c0 -28.667 18 -43 54 -43c34.667 0 52 12 52 36c0 24.667 -18 37 -54 37h-84v182z" />
    <glyph glyph-name="questiondown" unicode="&#xbf;" horiz-adv-x="1184" 
d="M1133 128c-0.666992 -138 -48.667 -247.001 -144 -327.001c-96 -80 -226.667 -120 -392 -120c-160.667 0 -288.667 37.333 -384 112s-143 174.667 -143 300c0 137.333 73 248 219 332c70.667 40.667 117.667 74.667 141 102c24.667 28.667 37 65.334 37 110.001v42h354
l3 -24c12.667 -90.667 6.66699 -162.334 -18 -215.001c-24 -51.333 -71.333 -97.333 -142 -138c-71.333 -41.333 -118.333 -74.666 -141 -99.999c-22.667 -26 -34 -59.333 -34 -100c0 -33.333 12.667 -60.333 38 -81s58 -31 98 -31c39.333 0 71.333 12.667 96 38
c25.333 26 38.333 59.333 39 100h373zM486 837.999c-42 38.667 -63 85.666 -63 140.999c0 56 21 103.333 63 142c41.333 38 91.333 57 150 57s108.667 -19 150 -57c42 -39.333 63 -86.666 63 -141.999s-21 -102.333 -63 -141s-92 -58 -150 -58
c-58.667 0 -108.667 19.333 -150 58z" />
    <glyph glyph-name="Agrave" unicode="&#xc0;" horiz-adv-x="1534" 
d="M976 287h-440l-75 -287h-432l471 1443h532l471 -1443h-452zM613 586h286l-139 524h-8zM346 1885h348l232 -321h-306z" />
    <glyph glyph-name="Aacute" unicode="&#xc1;" horiz-adv-x="1534" 
d="M976 287h-440l-75 -287h-432l471 1443h532l471 -1443h-452zM613 586h286l-139 524h-8zM600 1555l232 321h348l-274 -321h-306z" />
    <glyph glyph-name="Acircumflex" unicode="&#xc2;" horiz-adv-x="1534" 
d="M976 287h-440l-75 -287h-432l471 1443h532l471 -1443h-452zM613 586h286l-139 524h-8zM923 1872l255 -336h-276l-132 192h-8l-132 -192h-276l255 336h314z" />
    <glyph glyph-name="Atilde" unicode="&#xc3;" horiz-adv-x="1534" 
d="M976 287h-440l-75 -287h-432l471 1443h532l471 -1443h-452zM613 586h286l-139 524h-8zM756 1606c-53.333 39.333 -88.333 59 -105 59c-42 0 -65 -33.667 -69 -101h-201c0 90 25 162.333 75 217c47.333 50.667 106 76 176 76c55.333 0 109.666 -19.667 162.999 -59
c53.333 -40 88.333 -60 105 -60c42.667 0 65.667 35.333 69 106h201c0 -90 -25 -163 -75 -219c-47.333 -52.667 -106 -79 -176 -79c-55.333 0 -109.666 20 -162.999 60z" />
    <glyph glyph-name="Adieresis" unicode="&#xc4;" horiz-adv-x="1534" 
d="M976 287h-440l-75 -287h-432l471 1443h532l471 -1443h-452zM613 586h286l-139 524h-8zM431 1580c-30 29.333 -45 64.666 -45 105.999c0 42 15 77.333 45 106c30 29.333 67.667 44 113 44s83.333 -14.667 114 -44c29.333 -28.667 44 -64 44 -106
c0 -41.333 -14.667 -76.666 -44 -105.999c-30.667 -29.333 -68.667 -44 -114 -44s-83 14.667 -113 44zM875 1580c-30 29.333 -45 64.666 -45 105.999c0 42 15 77.333 45 106c30 29.333 67.667 44 113 44s83.333 -14.667 114 -44c29.333 -28.667 44 -64 44 -106
c0 -41.333 -14.667 -76.666 -44 -105.999c-30.667 -29.333 -68.667 -44 -114 -44s-83 14.667 -113 44z" />
    <glyph glyph-name="Aring" unicode="&#xc5;" horiz-adv-x="1534" 
d="M976 287h-440l-75 -287h-432l471 1443h532l471 -1443h-452zM613 586h286l-139 524h-8zM595 1586c-48.667 46.667 -73 102 -73 166c0 64.667 24.333 120.334 73 167.001c48 46 105 69 171 69s123 -23 171 -69c48 -46.667 72 -102.334 72 -167.001s-24 -120 -72 -166
s-105 -69 -171 -69s-123 23 -171 69zM828 1693c17.333 16.667 26 36.334 26 59.001c0 23.333 -8.66699 43.666 -26 60.999c-18 16.667 -38.667 25 -62 25s-44 -8.33301 -62 -25c-17.333 -17.333 -26 -37.666 -26 -60.999c0 -22.667 8.66699 -42.334 26 -59.001
c18 -16.667 38.667 -25 62 -25s44 8.33301 62 25z" />
    <glyph glyph-name="AE" unicode="&#xc6;" horiz-adv-x="2104" 
d="M669 586h300v543h-112zM969 286h-403l-99 -286h-418l540 1443h1395v-336h-643v-234h606v-304h-606v-233h643v-336h-1015v286z" />
    <glyph glyph-name="Ccedilla" unicode="&#xc7;" horiz-adv-x="1513" 
d="M1452 582c-0.666992 -166 -55.999 -304.332 -165.999 -414.999c-108.667 -109.333 -250.334 -172 -425.001 -188l-35 -68c48 0 87 -15.333 117 -46s45 -71.334 45 -122.001c0 -130 -87.667 -195 -263 -195c-62.667 0 -107 5 -133 15v141c25.333 -8 58.333 -12 99 -12
c62.667 0 94 12.333 94 37c0 17.333 -7.33301 29.333 -22 36s-40.667 10 -78 10h-56v127l43 79c-190.667 20.667 -339.334 94.667 -446.001 222c-108 130 -162 303 -162 519c0 236 64.333 420 193 552c126 129.333 300.333 194 523 194c192 0 351.333 -56.333 478 -169
c127.333 -114 191.333 -259.667 192 -437h-406c-4.66699 82 -31.667 148 -81 198c-48 50 -109 75 -183 75c-87.333 0 -156.333 -36.333 -207 -109c-51.333 -74 -77 -175 -77 -303c0 -130 25.667 -231.667 77 -305c50 -73.333 119.333 -110 208 -110
c73.333 0 134 24.667 182 74c48.667 50 76.334 116.667 83.001 200h406z" />
    <glyph glyph-name="Egrave" unicode="&#xc8;" horiz-adv-x="1216" 
d="M1117 0h-1018v1443h1018v-337h-594v-233h557v-304h-557v-232h594v-337zM187 1885h348l232 -321h-306z" />
    <glyph glyph-name="Eacute" unicode="&#xc9;" horiz-adv-x="1216" 
d="M1117 0h-1018v1443h1018v-337h-594v-233h557v-304h-557v-232h594v-337zM441 1555l232 321h348l-274 -321h-306z" />
    <glyph glyph-name="Ecircumflex" unicode="&#xca;" horiz-adv-x="1216" 
d="M1117 0h-1018v1443h1018v-337h-594v-233h557v-304h-557v-232h594v-337zM764 1872l255 -336h-276l-132 192h-8l-132 -192h-276l255 336h314z" />
    <glyph glyph-name="Edieresis" unicode="&#xcb;" horiz-adv-x="1216" 
d="M1117 0h-1018v1443h1018v-337h-594v-233h557v-304h-557v-232h594v-337zM272 1580c-30 29.333 -45 64.666 -45 105.999c0 42 15 77.333 45 106c30 29.333 67.667 44 113 44s83.333 -14.667 114 -44c29.333 -28.667 44 -64 44 -106c0 -41.333 -14.667 -76.666 -44 -105.999
c-30.667 -29.333 -68.667 -44 -114 -44s-83 14.667 -113 44zM716 1580c-30 29.333 -45 64.666 -45 105.999c0 42 15 77.333 45 106c30 29.333 67.667 44 113 44s83.333 -14.667 114 -44c29.333 -28.667 44 -64 44 -106c0 -41.333 -14.667 -76.666 -44 -105.999
c-30.667 -29.333 -68.667 -44 -114 -44s-83 14.667 -113 44z" />
    <glyph glyph-name="Igrave" unicode="&#xcc;" horiz-adv-x="624" 
d="M100 0v1443h424v-1443h-424zM-108 1885h348l232 -321h-306z" />
    <glyph glyph-name="Iacute" unicode="&#xcd;" horiz-adv-x="624" 
d="M99 0v1443h424v-1443h-424zM145 1555l232 321h348l-274 -321h-306z" />
    <glyph glyph-name="Icircumflex" unicode="&#xce;" horiz-adv-x="624" 
d="M100 0v1443h424v-1443h-424zM469 1872l255 -336h-276l-132 192h-8l-132 -192h-276l255 336h314z" />
    <glyph glyph-name="Idieresis" unicode="&#xcf;" horiz-adv-x="624" 
d="M100 0v1443h424v-1443h-424zM-23 1580c-30 29.333 -45 64.666 -45 105.999c0 42 15 77.333 45 106c30 29.333 67.667 44 113 44s83.333 -14.667 114 -44c29.333 -28.667 44 -64 44 -106c0 -41.333 -14.667 -76.666 -44 -105.999c-30.667 -29.333 -68.667 -44 -114 -44
s-83 14.667 -113 44zM421 1580c-30 29.333 -45 64.666 -45 105.999c0 42 15 77.333 45 106c30 29.333 67.667 44 113 44s83.333 -14.667 114 -44c29.333 -28.667 44 -64 44 -106c0 -41.333 -14.667 -76.666 -44 -105.999c-30.667 -29.333 -68.667 -44 -114 -44
s-83 14.667 -113 44z" />
    <glyph glyph-name="Eth" unicode="&#xd0;" horiz-adv-x="1506" 
d="M656 337c215.333 0 323 131.666 323 394.999c0 120.667 -28.333 213.334 -85 278.001c-56 64 -135.333 96 -238 96h-133v-246h253v-279h-253v-244h133zM716 1443c220.667 0 391.333 -60.667 512 -182c122 -123.333 183 -299.666 183 -528.999
c0 -230.667 -61.333 -410.334 -184 -539.001c-122 -128.667 -292.333 -193 -511 -193h-617v581h-46v279h46v583h617z" />
    <glyph glyph-name="Ntilde" unicode="&#xd1;" horiz-adv-x="1494" 
d="M99 0v1443h329l557 -748h8v748h400v-1443h-325l-561 760h-8v-760h-400zM736 1606c-53.333 39.333 -88.333 59 -105 59c-42 0 -65 -33.667 -69 -101h-201c0 90 25 162.333 75 217c47.333 50.667 106 76 176 76c55.333 0 109.666 -19.667 162.999 -59
c53.333 -40 88.333 -60 105 -60c42.667 0 65.667 35.333 69 106h201c0 -90 -25 -163 -75 -219c-47.333 -52.667 -106 -79 -176 -79c-55.333 0 -109.666 20 -162.999 60z" />
    <glyph glyph-name="Ograve" unicode="&#xd2;" horiz-adv-x="1584" 
d="M1322 1267c130.667 -134 196 -316 196 -546s-65.333 -412 -196 -546c-130.667 -133.333 -307.667 -200 -531 -200c-224 0 -401 66.667 -531 200c-130.667 134 -196 316 -196 546s65.333 412 196 546s307.667 201 531 201s400.333 -67 531 -201zM577 1019
c-54 -74 -80.998 -173.333 -80.998 -298c0 -124 27 -223 81 -297c53.333 -74 124.666 -111 213.999 -111s160.666 37 213.999 111c54 74 81 173 81 297c0 124.667 -27 224 -81 298s-125.333 111 -214 111s-160 -37 -214 -111zM371.002 1885h348l232 -321h-306z" />
    <glyph glyph-name="Oacute" unicode="&#xd3;" horiz-adv-x="1584" 
d="M1322 1267c130.667 -134 196 -316 196 -546s-65.333 -412 -196 -546c-130.667 -133.333 -307.667 -200 -531 -200c-224 0 -401 66.667 -531 200c-130.667 134 -196 316 -196 546s65.333 412 196 546s307.667 201 531 201s400.333 -67 531 -201zM577 1019
c-54 -74 -80.998 -173.333 -80.998 -298c0 -124 27 -223 81 -297c53.333 -74 124.666 -111 213.999 -111s160.666 37 213.999 111c54 74 81 173 81 297c0 124.667 -27 224 -81 298s-125.333 111 -214 111s-160 -37 -214 -111zM625.002 1555l232 321h348l-274 -321h-306z" />
    <glyph glyph-name="Ocircumflex" unicode="&#xd4;" horiz-adv-x="1584" 
d="M1322 1267c130.667 -134 196 -316 196 -546s-65.333 -412 -196 -546c-130.667 -133.333 -307.667 -200 -531 -200c-224 0 -401 66.667 -531 200c-130.667 134 -196 316 -196 546s65.333 412 196 546s307.667 201 531 201s400.333 -67 531 -201zM577 1019
c-54 -74 -80.998 -173.333 -80.998 -298c0 -124 27 -223 81 -297c53.333 -74 124.666 -111 213.999 -111s160.666 37 213.999 111c54 74 81 173 81 297c0 124.667 -27 224 -81 298s-125.333 111 -214 111s-160 -37 -214 -111zM948.002 1872l255 -336h-276l-132 192h-8
l-132 -192h-276l255 336h314z" />
    <glyph glyph-name="Otilde" unicode="&#xd5;" horiz-adv-x="1584" 
d="M1322 1267c130.667 -134 196 -316 196 -546s-65.333 -412 -196 -546c-130.667 -133.333 -307.667 -200 -531 -200c-224 0 -401 66.667 -531 200c-130.667 134 -196 316 -196 546s65.333 412 196 546s307.667 201 531 201s400.333 -67 531 -201zM577 1019
c-54 -74 -80.998 -173.333 -80.998 -298c0 -124 27 -223 81 -297c53.333 -74 124.666 -111 213.999 -111s160.666 37 213.999 111c54 74 81 173 81 297c0 124.667 -27 224 -81 298s-125.333 111 -214 111s-160 -37 -214 -111zM781.002 1606
c-53.333 39.333 -88.333 59 -105 59c-42 0 -65 -33.667 -69 -101h-201c0 90 25 162.333 75 217c47.333 50.667 106 76 176 76c55.333 0 109.666 -19.667 162.999 -59c53.333 -40 88.333 -60 105 -60c42.667 0 65.667 35.333 69 106h201c0 -90 -25 -163 -75 -219
c-47.333 -52.667 -106 -79 -176 -79c-55.333 0 -109.666 20 -162.999 60z" />
    <glyph glyph-name="Odieresis" unicode="&#xd6;" horiz-adv-x="1584" 
d="M1322 1267c130.667 -134 196 -316 196 -546s-65.333 -412 -196 -546c-130.667 -133.333 -307.667 -200 -531 -200c-224 0 -401 66.667 -531 200c-130.667 134 -196 316 -196 546s65.333 412 196 546s307.667 201 531 201s400.333 -67 531 -201zM577 1019
c-54 -74 -80.998 -173.333 -80.998 -298c0 -124 27 -223 81 -297c53.333 -74 124.666 -111 213.999 -111s160.666 37 213.999 111c54 74 81 173 81 297c0 124.667 -27 224 -81 298s-125.333 111 -214 111s-160 -37 -214 -111zM456.002 1580
c-30 29.333 -45 64.666 -45 105.999c0 42 15 77.333 45 106c30 29.333 67.667 44 113 44s83.333 -14.667 114 -44c29.333 -28.667 44 -64 44 -106c0 -41.333 -14.667 -76.666 -44 -105.999c-30.667 -29.333 -68.667 -44 -114 -44s-83 14.667 -113 44zM900.002 1580
c-30 29.333 -45 64.666 -45 105.999c0 42 15 77.333 45 106c30 29.333 67.667 44 113 44s83.333 -14.667 114 -44c29.333 -28.667 44 -64 44 -106c0 -41.333 -14.667 -76.666 -44 -105.999c-30.667 -29.333 -68.667 -44 -114 -44s-83 14.667 -113 44z" />
    <glyph glyph-name="multiply" unicode="&#xd7;" horiz-adv-x="1414" 
d="M405 41l-246 246l301 301l-301 301l246 246l301 -301l301 301l246 -246l-301 -301l301 -301l-246 -246l-301 301z" />
    <glyph glyph-name="Oslash" unicode="&#xd8;" horiz-adv-x="1584" 
d="M671 341c37.333 -18.667 77.334 -28 120.001 -28c89.333 0 160.666 37 213.999 111c54 74 81 173 81 297c0 100.667 -18 185 -54 253zM948.001 1078c-44.667 34.667 -97 52.001 -157 52.001c-88.667 0 -160 -37 -214 -111s-81 -173.333 -81 -298
s27.333 -224.334 82 -299.001zM1240 1338c185.333 -132.667 277.999 -338.333 277.999 -617c0 -230 -65.333 -412 -196 -546c-130.667 -133.333 -307.667 -200 -531 -200c-111.333 0 -211 17 -299 51l-64 -112l-103 58l59 105c-213.333 128 -320 342.667 -320 644
c0 230 65.333 412 196 546s307.667 201 531 201c126.667 0 239.334 -22.333 338.001 -67l69 122l118 -51z" />
    <glyph glyph-name="Ugrave" unicode="&#xd9;" horiz-adv-x="1472" 
d="M523 561c0 -76 18.333 -134 55 -174c36 -40.667 88.333 -61 157 -61s121 20.333 157 61c36.667 40 55 98 55 174v882h424v-929c0 -164 -58.333 -295 -175 -393c-116 -97.333 -269.667 -146 -461 -146s-345 48.667 -461 146c-116.667 98 -175 229 -175 393v929h424v-882z
M315 1885h348l232 -321h-306z" />
    <glyph glyph-name="Uacute" unicode="&#xda;" horiz-adv-x="1472" 
d="M523 561c0 -76 18.333 -134 55 -174c36 -40.667 88.333 -61 157 -61s121 20.333 157 61c36.667 40 55 98 55 174v882h424v-929c0 -164 -58.333 -295 -175 -393c-116 -97.333 -269.667 -146 -461 -146s-345 48.667 -461 146c-116.667 98 -175 229 -175 393v929h424v-882z
M569 1555l232 321h348l-274 -321h-306z" />
    <glyph glyph-name="Ucircumflex" unicode="&#xdb;" horiz-adv-x="1472" 
d="M523 561c0 -76 18.333 -134 55 -174c36 -40.667 88.333 -61 157 -61s121 20.333 157 61c36.667 40 55 98 55 174v882h424v-929c0 -164 -58.333 -295 -175 -393c-116 -97.333 -269.667 -146 -461 -146s-345 48.667 -461 146c-116.667 98 -175 229 -175 393v929h424v-882z
M892 1872l255 -336h-276l-132 192h-8l-132 -192h-276l255 336h314z" />
    <glyph glyph-name="Udieresis" unicode="&#xdc;" horiz-adv-x="1472" 
d="M523 561c0 -76 18.333 -134 55 -174c36 -40.667 88.333 -61 157 -61s121 20.333 157 61c36.667 40 55 98 55 174v882h424v-929c0 -164 -58.333 -295 -175 -393c-116 -97.333 -269.667 -146 -461 -146s-345 48.667 -461 146c-116.667 98 -175 229 -175 393v929h424v-882z
M400 1580c-30 29.333 -45 64.666 -45 105.999c0 42 15 77.333 45 106c30 29.333 67.667 44 113 44s83.333 -14.667 114 -44c29.333 -28.667 44 -64 44 -106c0 -41.333 -14.667 -76.666 -44 -105.999c-30.667 -29.333 -68.667 -44 -114 -44s-83 14.667 -113 44zM844 1580
c-30 29.333 -45 64.666 -45 105.999c0 42 15 77.333 45 106c30 29.333 67.667 44 113 44s83.333 -14.667 114 -44c29.333 -28.667 44 -64 44 -106c0 -41.333 -14.667 -76.666 -44 -105.999c-30.667 -29.333 -68.667 -44 -114 -44s-83 14.667 -113 44z" />
    <glyph glyph-name="Yacute" unicode="&#xdd;" horiz-adv-x="1470" 
d="M522 0v457l-493 986h453l253 -585h8l253 585h443l-493 -986v-457h-424zM568 1555l232 321h348l-274 -321h-306z" />
    <glyph glyph-name="Thorn" unicode="&#xde;" horiz-adv-x="1428" 
d="M568 1443v-204h242c162 0 290.333 -44.667 385 -134c94.667 -90 142 -212 142 -366c0 -152.667 -50 -273.667 -150 -363s-235.333 -134 -406 -134h-216v-242h-424v1443h427zM565 556h129c143.333 0 215 60.667 215 182c0 120.667 -70.667 181 -212 181h-132v-363z" />
    <glyph glyph-name="germandbls" unicode="&#xdf;" horiz-adv-x="1481" 
d="M113 0l0.000976562 1061c0 126.667 52 226.334 156 299.001c103.333 72.667 245 109 425 109c170 0 308 -35 414 -105s159 -161.333 159 -274c0 -78 -19 -145.333 -57 -202c-37.333 -57.333 -87.333 -94 -150 -110v-20c98.667 -3.33301 179 -38.666 241 -105.999
s93 -152.666 93 -255.999c0 -128.667 -45.667 -229.334 -137 -302.001c-91.333 -73.333 -217 -110 -377 -110c-96 0 -168.667 6 -218 18v313c35.333 -13.333 77 -20 125 -20c124 0 186 44.333 186 133c0 42.667 -18.667 76 -56 100c-36.667 24 -87.334 36 -152.001 36h-83
v306h48c42 0 76 12.333 102 37s39 56.667 39 96c0 46 -15 82 -45 108s-71.667 39 -125 39c-118.667 0 -178 -62.667 -178 -188v-962h-410z" />
    <glyph glyph-name="agrave" unicode="&#xe0;" horiz-adv-x="1231" 
d="M695 297c36.667 26 55 59.667 55 101v74l-181 -13c-85.333 -6 -128 -39.667 -128 -101c0 -30.667 11.667 -55 35 -73c22.667 -17.333 53.334 -26 92.001 -26c49.333 0 91.666 12.667 126.999 38zM149 79c-74.667 66 -112 148.667 -112 248
c0 214.667 155 331.334 465 350.001l248 15v57c0 37.333 -13 66.666 -39 87.999c-25.333 20.667 -58.666 31 -99.999 31c-42 0 -77 -10.333 -105 -31c-26.667 -20 -41.667 -45 -45 -75h-366c5.33301 119.333 55.666 214 150.999 284c96 70.667 225 106 387 106
c154.667 0 279.667 -35.333 375 -106c94.667 -70.667 142 -163 142 -277v-769h-400v152h-8c-28.667 -53.333 -74 -95 -136 -125c-58 -28.667 -121.333 -43 -190 -43c-105.333 0 -194.333 31.667 -267 95zM489 1275l-265 321h347l232 -321h-314z" />
    <glyph glyph-name="aacute" unicode="&#xe1;" horiz-adv-x="1231" 
d="M695 297c36.667 26 55 59.667 55 101v74l-181 -13c-85.333 -6 -128 -39.667 -128 -101c0 -30.667 11.667 -55 35 -73c22.667 -17.333 53.334 -26 92.001 -26c49.333 0 91.666 12.667 126.999 38zM149 79c-74.667 66 -112 148.667 -112 248
c0 214.667 155 331.334 465 350.001l248 15v57c0 37.333 -13 66.666 -39 87.999c-25.333 20.667 -58.666 31 -99.999 31c-42 0 -77 -10.333 -105 -31c-26.667 -20 -41.667 -45 -45 -75h-366c5.33301 119.333 55.666 214 150.999 284c96 70.667 225 106 387 106
c154.667 0 279.667 -35.333 375 -106c94.667 -70.667 142 -163 142 -277v-769h-400v152h-8c-28.667 -53.333 -74 -95 -136 -125c-58 -28.667 -121.333 -43 -190 -43c-105.333 0 -194.333 31.667 -267 95zM464 1275l232 321h347l-265 -321h-314z" />
    <glyph glyph-name="acircumflex" unicode="&#xe2;" horiz-adv-x="1231" 
d="M695 297c36.667 26 55 59.667 55 101v74l-181 -13c-85.333 -6 -128 -39.667 -128 -101c0 -30.667 11.667 -55 35 -73c22.667 -17.333 53.334 -26 92.001 -26c49.333 0 91.666 12.667 126.999 38zM149 79c-74.667 66 -112 148.667 -112 248
c0 214.667 155 331.334 465 350.001l248 15v57c0 37.333 -13 66.666 -39 87.999c-25.333 20.667 -58.666 31 -99.999 31c-42 0 -77 -10.333 -105 -31c-26.667 -20 -41.667 -45 -45 -75h-366c5.33301 119.333 55.666 214 150.999 284c96 70.667 225 106 387 106
c154.667 0 279.667 -35.333 375 -106c94.667 -70.667 142 -163 142 -277v-769h-400v152h-8c-28.667 -53.333 -74 -95 -136 -125c-58 -28.667 -121.333 -43 -190 -43c-105.333 0 -194.333 31.667 -267 95zM1041 1256h-284l-124 180h-8l-124 -180h-284l255 336h314z" />
    <glyph glyph-name="atilde" unicode="&#xe3;" horiz-adv-x="1231" 
d="M695 297c36.667 26 55 59.667 55 101v74l-181 -13c-85.333 -6 -128 -39.667 -128 -101c0 -30.667 11.667 -55 35 -73c22.667 -17.333 53.334 -26 92.001 -26c49.333 0 91.666 12.667 126.999 38zM149 79c-74.667 66 -112 148.667 -112 248
c0 214.667 155 331.334 465 350.001l248 15v57c0 37.333 -13 66.666 -39 87.999c-25.333 20.667 -58.666 31 -99.999 31c-42 0 -77 -10.333 -105 -31c-26.667 -20 -41.667 -45 -45 -75h-366c5.33301 119.333 55.666 214 150.999 284c96 70.667 225 106 387 106
c154.667 0 279.667 -35.333 375 -106c94.667 -70.667 142 -163 142 -277v-769h-400v152h-8c-28.667 -53.333 -74 -95 -136 -125c-58 -28.667 -121.333 -43 -190 -43c-105.333 0 -194.333 31.667 -267 95zM619 1318c-53.333 39.333 -88.333 59 -105 59
c-42 0 -65 -33.667 -69 -101h-201c0 90 25 162.333 75 217c47.333 50.667 106 76 176 76c55.333 0 109.666 -19.667 162.999 -59c53.333 -40 88.333 -60 105 -60c42.667 0 65.667 35.333 69 106h201c0 -90 -25 -163 -75 -219c-47.333 -52.667 -106 -79 -176 -79
c-55.333 0 -109.666 20 -162.999 60z" />
    <glyph glyph-name="adieresis" unicode="&#xe4;" horiz-adv-x="1231" 
d="M695 297c36.667 26 55 59.667 55 101v74l-181 -13c-85.333 -6 -128 -39.667 -128 -101c0 -30.667 11.667 -55 35 -73c22.667 -17.333 53.334 -26 92.001 -26c49.333 0 91.666 12.667 126.999 38zM149 79c-74.667 66 -112 148.667 -112 248
c0 214.667 155 331.334 465 350.001l248 15v57c0 37.333 -13 66.666 -39 87.999c-25.333 20.667 -58.666 31 -99.999 31c-42 0 -77 -10.333 -105 -31c-26.667 -20 -41.667 -45 -45 -75h-366c5.33301 119.333 55.666 214 150.999 284c96 70.667 225 106 387 106
c154.667 0 279.667 -35.333 375 -106c94.667 -70.667 142 -163 142 -277v-769h-400v152h-8c-28.667 -53.333 -74 -95 -136 -125c-58 -28.667 -121.333 -43 -190 -43c-105.333 0 -194.333 31.667 -267 95zM294 1300c-30 29.333 -45 64.666 -45 105.999c0 42 15 77.333 45 106
c30 29.333 67.667 44 113 44s83.333 -14.667 114 -44c29.333 -28.667 44 -64 44 -106c0 -41.333 -14.667 -76.666 -44 -105.999c-30.667 -29.333 -68.667 -44 -114 -44s-83 14.667 -113 44zM738 1300c-30 29.333 -45 64.666 -45 105.999c0 42 15 77.333 45 106
c30 29.333 67.667 44 113 44s83.333 -14.667 114 -44c29.333 -28.667 44 -64 44 -106c0 -41.333 -14.667 -76.666 -44 -105.999c-30.667 -29.333 -68.667 -44 -114 -44s-83 14.667 -113 44z" />
    <glyph glyph-name="aring" unicode="&#xe5;" horiz-adv-x="1231" 
d="M695 297c36.667 26 55 59.667 55 101v74l-181 -13c-85.333 -6 -128 -39.667 -128 -101c0 -30.667 11.667 -55 35 -73c22.667 -17.333 53.334 -26 92.001 -26c49.333 0 91.666 12.667 126.999 38zM149 79c-74.667 66 -112 148.667 -112 248
c0 214.667 155 331.334 465 350.001l248 15v57c0 37.333 -13 66.666 -39 87.999c-25.333 20.667 -58.666 31 -99.999 31c-42 0 -77 -10.333 -105 -31c-26.667 -20 -41.667 -45 -45 -75h-366c5.33301 119.333 55.666 214 150.999 284c96 70.667 225 106 387 106
c154.667 0 279.667 -35.333 375 -106c94.667 -70.667 142 -163 142 -277v-769h-400v152h-8c-28.667 -53.333 -74 -95 -136 -125c-58 -28.667 -121.333 -43 -190 -43c-105.333 0 -194.333 31.667 -267 95zM458 1304c-48.667 46.667 -73 102 -73 166
c0 64.667 24.333 120.334 73 167.001c48 46 105 69 171 69s123 -23 171 -69c48 -46.667 72 -102.334 72 -167.001s-24 -120 -72 -166s-105 -69 -171 -69s-123 23 -171 69zM691 1411c17.333 16.667 26 36.334 26 59.001c0 23.333 -8.66699 43.666 -26 60.999
c-18 16.667 -38.667 25 -62 25s-44 -8.33301 -62 -25c-17.333 -17.333 -26 -37.666 -26 -60.999c0 -22.667 8.66699 -42.334 26 -59.001c18 -16.667 38.667 -25 62 -25s44 8.33301 62 25z" />
    <glyph glyph-name="ae" unicode="&#xe6;" horiz-adv-x="1918" 
d="M1055 24c-74 34 -128.999 80 -164.999 138h-8c-72.667 -118.667 -207.334 -178 -404.001 -178c-130.667 0 -237 32.333 -319 97c-81.333 63.333 -122 145.333 -122 246c0 215.333 155 332 465 350l248 15v57c0 36.667 -12.667 65.667 -38 87
c-24.667 21.333 -58.334 32 -101.001 32c-40.667 0 -74.667 -9.66699 -102 -29c-28 -20 -44 -45.667 -48 -77h-366c4.66699 119.333 54 214.333 148 285c92.667 70 212.667 105 360 105c156.667 0 274.334 -41 353.001 -123h8c80.667 82 193.667 123 339 123
c170 0 306.667 -51.667 410 -155c102.667 -103.333 154 -240.333 154 -411v-111h-747v-26c0 -57.333 18.333 -104 55 -140c36.667 -36.667 83.667 -55 141 -55c92.667 0 152.667 36.333 180 109h366c-17.333 -120.667 -75.333 -216 -174 -286
c-99.333 -70 -225.333 -105 -378 -105c-94 0 -179 17.333 -255 52zM1182 821c-33.333 -32 -51.999 -73 -55.999 -123h358c-3.33301 52 -21.333 93.667 -54 125c-32.667 30.667 -74.334 46 -125.001 46c-48.667 0 -89.667 -16 -123 -48zM698.002 299
c34.667 26.667 52.001 59.667 52.001 99v74l-181 -13c-85.333 -6 -128 -39.667 -128 -101c0 -30.667 11.333 -54.667 34 -72c22.667 -18 53.667 -27 93 -27c51.333 0 94.666 13.333 129.999 40z" />
    <glyph glyph-name="ccedilla" unicode="&#xe7;" horiz-adv-x="1223" 
d="M804 662c-4.66699 56.667 -21.666 101.668 -50.999 135.001c-30 32.667 -68 49 -114 49c-56.667 0 -100 -24.333 -130 -73s-45 -118.667 -45 -210c0 -190 58.333 -285 175 -285c48 0 86.333 15.667 115 47c29.333 30.667 46 74 50 130h373
c-2.66699 -138.667 -45.334 -250 -128.001 -334s-196 -132.667 -340 -146l-33 -64c48 0 87 -15.333 117 -46s45 -71.334 45 -122.001c0 -130 -87.667 -195 -263 -195c-62.667 0 -107 5 -133 15v141c25.333 -8 58.333 -12 99 -12c62.667 0 94 12.333 94 37
c0 17.333 -7.33301 29.333 -22 36s-40.667 10 -78 10h-56v127l43 78c-148.667 20.667 -264.334 81.667 -347.001 183c-84 102.667 -126 236 -126 400c0 182.667 52.333 326.667 157 432c104 104.667 246 157 426 157c162.667 0 293.334 -44 392.001 -132
c99.333 -88.667 150.333 -208 153 -358h-373z" />
    <glyph glyph-name="egrave" unicode="&#xe8;" horiz-adv-x="1243" 
d="M507 821c-33.333 -32 -51.999 -73 -55.999 -123h358c-3.33301 52 -21.333 93.667 -54 125c-32.667 30.667 -74.334 46 -125.001 46c-48.667 0 -89.667 -16 -123 -48zM1187 363c-17.333 -120.667 -75.332 -215.999 -173.999 -285.999c-99.333 -70 -225.333 -105 -378 -105
c-183.333 0 -327 51.667 -431 155c-103.333 103.333 -155 246.333 -155 429c0 183.333 51.667 328.666 155 435.999c102.667 106.667 242 160 418 160c173.333 0 311.666 -51.333 414.999 -154s155 -240 155 -412v-111h-747v-26c0 -57.333 18.333 -104 55 -140
c36.667 -36.667 83.667 -55 141 -55c93.333 0 153.333 36.333 180 109h366zM481.002 1275l-265 321h347l232 -321h-314z" />
    <glyph glyph-name="eacute" unicode="&#xe9;" horiz-adv-x="1243" 
d="M507 821c-33.333 -32 -51.999 -73 -55.999 -123h358c-3.33301 52 -21.333 93.667 -54 125c-32.667 30.667 -74.334 46 -125.001 46c-48.667 0 -89.667 -16 -123 -48zM1187 363c-17.333 -120.667 -75.332 -215.999 -173.999 -285.999c-99.333 -70 -225.333 -105 -378 -105
c-183.333 0 -327 51.667 -431 155c-103.333 103.333 -155 246.333 -155 429c0 183.333 51.667 328.666 155 435.999c102.667 106.667 242 160 418 160c173.333 0 311.666 -51.333 414.999 -154s155 -240 155 -412v-111h-747v-26c0 -57.333 18.333 -104 55 -140
c36.667 -36.667 83.667 -55 141 -55c93.333 0 153.333 36.333 180 109h366zM456.002 1275l232 321h347l-265 -321h-314z" />
    <glyph glyph-name="ecircumflex" unicode="&#xea;" horiz-adv-x="1243" 
d="M507 821c-33.333 -32 -51.999 -73 -55.999 -123h358c-3.33301 52 -21.333 93.667 -54 125c-32.667 30.667 -74.334 46 -125.001 46c-48.667 0 -89.667 -16 -123 -48zM1187 363c-17.333 -120.667 -75.332 -215.999 -173.999 -285.999c-99.333 -70 -225.333 -105 -378 -105
c-183.333 0 -327 51.667 -431 155c-103.333 103.333 -155 246.333 -155 429c0 183.333 51.667 328.666 155 435.999c102.667 106.667 242 160 418 160c173.333 0 311.666 -51.333 414.999 -154s155 -240 155 -412v-111h-747v-26c0 -57.333 18.333 -104 55 -140
c36.667 -36.667 83.667 -55 141 -55c93.333 0 153.333 36.333 180 109h366zM1033 1256h-284l-124 180h-8l-124 -180h-284l255 336h314z" />
    <glyph glyph-name="edieresis" unicode="&#xeb;" horiz-adv-x="1243" 
d="M507 821c-33.333 -32 -51.999 -73 -55.999 -123h358c-3.33301 52 -21.333 93.667 -54 125c-32.667 30.667 -74.334 46 -125.001 46c-48.667 0 -89.667 -16 -123 -48zM1187 363c-17.333 -120.667 -75.332 -215.999 -173.999 -285.999c-99.333 -70 -225.333 -105 -378 -105
c-183.333 0 -327 51.667 -431 155c-103.333 103.333 -155 246.333 -155 429c0 183.333 51.667 328.666 155 435.999c102.667 106.667 242 160 418 160c173.333 0 311.666 -51.333 414.999 -154s155 -240 155 -412v-111h-747v-26c0 -57.333 18.333 -104 55 -140
c36.667 -36.667 83.667 -55 141 -55c93.333 0 153.333 36.333 180 109h366zM286.002 1300c-30 29.333 -45 64.666 -45 105.999c0 42 15 77.333 45 106c30 29.333 67.667 44 113 44s83.333 -14.667 114 -44c29.333 -28.667 44 -64 44 -106
c0 -41.333 -14.667 -76.666 -44 -105.999c-30.667 -29.333 -68.667 -44 -114 -44s-83 14.667 -113 44zM730.002 1300c-30 29.333 -45 64.666 -45 105.999c0 42 15 77.333 45 106c30 29.333 67.667 44 113 44s83.333 -14.667 114 -44c29.333 -28.667 44 -64 44 -106
c0 -41.333 -14.667 -76.666 -44 -105.999c-30.667 -29.333 -68.667 -44 -114 -44s-83 14.667 -113 44z" />
    <glyph glyph-name="igrave" unicode="&#xec;" horiz-adv-x="570" 
d="M80 1124h410v-1124h-410v1124zM145 1275l-265 321h347l232 -321h-314z" />
    <glyph glyph-name="iacute" unicode="&#xed;" horiz-adv-x="570" 
d="M79 1124h410v-1124h-410v1124zM119 1275l232 321h347l-265 -321h-314z" />
    <glyph glyph-name="icircumflex" unicode="&#xee;" horiz-adv-x="570" 
d="M80 1124h410v-1124h-410v1124zM697 1256h-284l-124 180h-8l-124 -180h-284l255 336h314z" />
    <glyph glyph-name="idieresis" unicode="&#xef;" horiz-adv-x="570" 
d="M80 1124h410v-1124h-410v1124zM-50 1300c-30 29.333 -45 64.666 -45 105.999c0 42 15 77.333 45 106c30 29.333 67.667 44 113 44s83.333 -14.667 114 -44c29.333 -28.667 44 -64 44 -106c0 -41.333 -14.667 -76.666 -44 -105.999c-30.667 -29.333 -68.667 -44 -114 -44
s-83 14.667 -113 44zM394 1300c-30 29.333 -45 64.666 -45 105.999c0 42 15 77.333 45 106c30 29.333 67.667 44 113 44s83.333 -14.667 114 -44c29.333 -28.667 44 -64 44 -106c0 -41.333 -14.667 -76.666 -44 -105.999c-30.667 -29.333 -68.667 -44 -114 -44
s-83 14.667 -113 44z" />
    <glyph glyph-name="eth" unicode="&#xf0;" horiz-adv-x="1365" 
d="M239 140c-110 104.667 -165 241.334 -165 410.001c0 150.667 45 272.667 135 366c86 89.333 195.667 134 329 134c106 0 188.333 -30 247 -90h20c-26.667 71.333 -80.334 146 -161.001 224l-291 -99l-76 168l225 77c-65.333 46.667 -159.666 106 -282.999 178h520
c29.333 -20 60 -42.333 92 -67l280 96l80 -169l-201 -68c186 -194 279 -417 279 -669c0 -196.667 -56.667 -354.334 -170 -473.001c-111.333 -116 -256.333 -174 -435 -174c-174 0 -315.667 52 -425 156zM543 728c-32.667 -44.667 -48.999 -105 -48.999 -181
c0 -76.667 16.333 -137 49 -181c32 -44 76.667 -66 134 -66s102.333 21.667 135 65c32.667 44 49 104.333 49 181s-16.333 137 -49 181c-33.333 44.667 -78.333 67 -135 67s-101.334 -22 -134.001 -66z" />
    <glyph glyph-name="ntilde" unicode="&#xf1;" horiz-adv-x="1319" 
d="M79 1124l400.001 0.000976562v-220h8c58.667 161.333 177 242 355 242c126 0 224.333 -37.333 295 -112s106 -179.334 106 -314.001v-720h-410v629c0 58 -15 103.333 -45 136c-30.667 33.333 -72.667 50 -126 50c-50.667 0 -92.334 -17.333 -125.001 -52
c-32 -35.333 -48 -80 -48 -134v-629h-410v1124zM649.001 1318c-53.333 39.333 -88.333 59 -105 59c-42 0 -65 -33.667 -69 -101h-201c0 90 25 162.333 75 217c47.333 50.667 106 76 176 76c55.333 0 109.666 -19.667 162.999 -59c53.333 -40 88.333 -60 105 -60
c42.667 0 65.667 35.333 69 106h201c0 -90 -25 -163 -75 -219c-47.333 -52.667 -106 -79 -176 -79c-55.333 0 -109.666 20 -162.999 60z" />
    <glyph glyph-name="ograve" unicode="&#xf2;" horiz-adv-x="1278" 
d="M207 125c-105.333 104 -158 250.001 -158 438.001c0 183.333 53.333 327.666 160 432.999c105.333 104 248.333 156 429 156c182 0 325.333 -51.667 430 -155c106 -105.333 159 -250 159 -434c0 -188.667 -52.333 -334.667 -157 -438
c-103.333 -102 -247.333 -153 -432 -153c-184 0 -327.667 51 -431 153zM765 342.001c30.667 52 46 125.333 46 220c0 92.667 -15.667 165.334 -47 218.001c-30.667 52 -72.667 78 -126 78s-95.333 -26 -126 -78c-31.333 -52.667 -47 -125.334 -47 -218.001
c0 -94.667 15.333 -168 46 -220c30 -50.667 72.333 -76 127 -76c54 0 96.333 25.333 127 76zM498 1275l-265 321h347l232 -321h-314z" />
    <glyph glyph-name="oacute" unicode="&#xf3;" horiz-adv-x="1278" 
d="M207 125c-105.333 104 -158 250.001 -158 438.001c0 183.333 53.333 327.666 160 432.999c105.333 104 248.333 156 429 156c182 0 325.333 -51.667 430 -155c106 -105.333 159 -250 159 -434c0 -188.667 -52.333 -334.667 -157 -438
c-103.333 -102 -247.333 -153 -432 -153c-184 0 -327.667 51 -431 153zM765 342.001c30.667 52 46 125.333 46 220c0 92.667 -15.667 165.334 -47 218.001c-30.667 52 -72.667 78 -126 78s-95.333 -26 -126 -78c-31.333 -52.667 -47 -125.334 -47 -218.001
c0 -94.667 15.333 -168 46 -220c30 -50.667 72.333 -76 127 -76c54 0 96.333 25.333 127 76zM473 1275l232 321h347l-265 -321h-314z" />
    <glyph glyph-name="ocircumflex" unicode="&#xf4;" horiz-adv-x="1278" 
d="M207 125c-105.333 104 -158 250.001 -158 438.001c0 183.333 53.333 327.666 160 432.999c105.333 104 248.333 156 429 156c182 0 325.333 -51.667 430 -155c106 -105.333 159 -250 159 -434c0 -188.667 -52.333 -334.667 -157 -438
c-103.333 -102 -247.333 -153 -432 -153c-184 0 -327.667 51 -431 153zM765 342.001c30.667 52 46 125.333 46 220c0 92.667 -15.667 165.334 -47 218.001c-30.667 52 -72.667 78 -126 78s-95.333 -26 -126 -78c-31.333 -52.667 -47 -125.334 -47 -218.001
c0 -94.667 15.333 -168 46 -220c30 -50.667 72.333 -76 127 -76c54 0 96.333 25.333 127 76zM1050 1256h-284l-124 180h-8l-124 -180h-284l255 336h314z" />
    <glyph glyph-name="otilde" unicode="&#xf5;" horiz-adv-x="1278" 
d="M207 125c-105.333 104 -158 250.001 -158 438.001c0 183.333 53.333 327.666 160 432.999c105.333 104 248.333 156 429 156c182 0 325.333 -51.667 430 -155c106 -105.333 159 -250 159 -434c0 -188.667 -52.333 -334.667 -157 -438
c-103.333 -102 -247.333 -153 -432 -153c-184 0 -327.667 51 -431 153zM765 342.001c30.667 52 46 125.333 46 220c0 92.667 -15.667 165.334 -47 218.001c-30.667 52 -72.667 78 -126 78s-95.333 -26 -126 -78c-31.333 -52.667 -47 -125.334 -47 -218.001
c0 -94.667 15.333 -168 46 -220c30 -50.667 72.333 -76 127 -76c54 0 96.333 25.333 127 76zM628 1318c-53.333 39.333 -88.333 59 -105 59c-42 0 -65 -33.667 -69 -101h-201c0 90 25 162.333 75 217c47.333 50.667 106 76 176 76c55.333 0 109.666 -19.667 162.999 -59
c53.333 -40 88.333 -60 105 -60c42.667 0 65.667 35.333 69 106h201c0 -90 -25 -163 -75 -219c-47.333 -52.667 -106 -79 -176 -79c-55.333 0 -109.666 20 -162.999 60z" />
    <glyph glyph-name="odieresis" unicode="&#xf6;" horiz-adv-x="1278" 
d="M207 125c-105.333 104 -158 250.001 -158 438.001c0 183.333 53.333 327.666 160 432.999c105.333 104 248.333 156 429 156c182 0 325.333 -51.667 430 -155c106 -105.333 159 -250 159 -434c0 -188.667 -52.333 -334.667 -157 -438
c-103.333 -102 -247.333 -153 -432 -153c-184 0 -327.667 51 -431 153zM765 342.001c30.667 52 46 125.333 46 220c0 92.667 -15.667 165.334 -47 218.001c-30.667 52 -72.667 78 -126 78s-95.333 -26 -126 -78c-31.333 -52.667 -47 -125.334 -47 -218.001
c0 -94.667 15.333 -168 46 -220c30 -50.667 72.333 -76 127 -76c54 0 96.333 25.333 127 76zM303 1300c-30 29.333 -45 64.666 -45 105.999c0 42 15 77.333 45 106c30 29.333 67.667 44 113 44s83.333 -14.667 114 -44c29.333 -28.667 44 -64 44 -106
c0 -41.333 -14.667 -76.666 -44 -105.999c-30.667 -29.333 -68.667 -44 -114 -44s-83 14.667 -113 44zM747 1300c-30 29.333 -45 64.666 -45 105.999c0 42 15 77.333 45 106c30 29.333 67.667 44 113 44s83.333 -14.667 114 -44c29.333 -28.667 44 -64 44 -106
c0 -41.333 -14.667 -76.666 -44 -105.999c-30.667 -29.333 -68.667 -44 -114 -44s-83 14.667 -113 44z" />
    <glyph glyph-name="divide" unicode="&#xf7;" horiz-adv-x="1413" 
d="M554 870c-38 35.333 -56.999 81.667 -56.999 139c0 58 19 104.667 57 140c38 34.667 88.667 52 152 52s114 -17.333 152 -52c38 -35.333 57 -82 57 -140s-19 -104.333 -57 -139c-38 -35.333 -88.667 -53 -152 -53c-62.667 0 -113.334 17.667 -152.001 53zM554.001 28.001
c-38 35.333 -56.999 81.667 -56.999 139c0 58 19 104.667 57 140c38 34.667 88.667 52 152 52s114 -17.333 152 -52c38 -35.333 57 -82 57 -140s-19 -104.333 -57 -139c-38 -35.333 -88.667 -53 -152 -53c-62.667 0 -113.334 17.667 -152.001 53zM135.002 444.002v288h1141
v-288h-1141z" />
    <glyph glyph-name="oslash" unicode="&#xf8;" horiz-adv-x="1278" 
d="M560 289c23.333 -15.333 49.333 -23 78 -23c54 0 96.333 25.333 127 76c30.667 52 46 125.333 46 220c0 48.667 -4.66699 92.667 -14 132zM730 822c-24.667 24 -55.333 36.001 -92 36.001c-53.333 0 -95.333 -26 -126 -78c-31.333 -52.667 -47 -125.334 -47 -218.001
c0 -64 7 -118 21 -162zM1005 1049c148 -102.667 221.999 -264.667 221.999 -486c0 -188.667 -52.333 -334.667 -157 -438c-103.333 -102 -247.333 -153 -432 -153c-88 0 -168.333 12.333 -241 37l-65 -111l-103 58l60 104c-160 100.667 -240 268.334 -240 503.001
c0 183.333 53.333 327.666 160 432.999c105.333 104 248.333 156 429 156c96.667 0 182.334 -15 257.001 -45l64 110l112 -54z" />
    <glyph glyph-name="ugrave" unicode="&#xf9;" horiz-adv-x="1319" 
d="M1238 0h-400v220h-8c-22.667 -76 -63.667 -135.333 -123 -178c-60 -42.667 -132 -64 -216 -64c-123.333 0 -223 37.333 -299 112c-78.667 78 -118 182.333 -118 313v721h410v-629c0 -58.667 16.667 -104.667 50 -138c31.333 -32 73 -48 125 -48c48.667 0 89 17 121 51
c32 34.667 48 79.667 48 135v629h410v-1124zM519 1275l-265 321h347l232 -321h-314z" />
    <glyph glyph-name="uacute" unicode="&#xfa;" horiz-adv-x="1319" 
d="M1238 0h-400v220h-8c-22.667 -76 -63.667 -135.333 -123 -178c-60 -42.667 -132 -64 -216 -64c-123.333 0 -223 37.333 -299 112c-78.667 78 -118 182.333 -118 313v721h410v-629c0 -58.667 16.667 -104.667 50 -138c31.333 -32 73 -48 125 -48c48.667 0 89 17 121 51
c32 34.667 48 79.667 48 135v629h410v-1124zM494 1275l232 321h347l-265 -321h-314z" />
    <glyph glyph-name="ucircumflex" unicode="&#xfb;" horiz-adv-x="1319" 
d="M1238 0h-400v220h-8c-22.667 -76 -63.667 -135.333 -123 -178c-60 -42.667 -132 -64 -216 -64c-123.333 0 -223 37.333 -299 112c-78.667 78 -118 182.333 -118 313v721h410v-629c0 -58.667 16.667 -104.667 50 -138c31.333 -32 73 -48 125 -48c48.667 0 89 17 121 51
c32 34.667 48 79.667 48 135v629h410v-1124zM1071 1256h-284l-124 180h-8l-124 -180h-284l255 336h314z" />
    <glyph glyph-name="udieresis" unicode="&#xfc;" horiz-adv-x="1319" 
d="M1238 0h-400v220h-8c-22.667 -76 -63.667 -135.333 -123 -178c-60 -42.667 -132 -64 -216 -64c-123.333 0 -223 37.333 -299 112c-78.667 78 -118 182.333 -118 313v721h410v-629c0 -58.667 16.667 -104.667 50 -138c31.333 -32 73 -48 125 -48c48.667 0 89 17 121 51
c32 34.667 48 79.667 48 135v629h410v-1124zM324 1300c-30 29.333 -45 64.666 -45 105.999c0 42 15 77.333 45 106c30 29.333 67.667 44 113 44s83.333 -14.667 114 -44c29.333 -28.667 44 -64 44 -106c0 -41.333 -14.667 -76.666 -44 -105.999
c-30.667 -29.333 -68.667 -44 -114 -44s-83 14.667 -113 44zM768 1300c-30 29.333 -45 64.666 -45 105.999c0 42 15 77.333 45 106c30 29.333 67.667 44 113 44s83.333 -14.667 114 -44c29.333 -28.667 44 -64 44 -106c0 -41.333 -14.667 -76.666 -44 -105.999
c-30.667 -29.333 -68.667 -44 -114 -44s-83 14.667 -113 44z" />
    <glyph glyph-name="yacute" unicode="&#xfd;" horiz-adv-x="1246" 
d="M122 -412l-0.000976562 305.999h60c126 0 190 24.667 192 74v20l-374 1136h455l175 -828h8l175 828h433l-339 -1101c-48 -155.333 -121.667 -266.666 -221 -333.999s-238.666 -101 -417.999 -101h-146zM457.999 1275l232 321h347l-265 -321h-314z" />
    <glyph glyph-name="thorn" unicode="&#xfe;" horiz-adv-x="1335" 
d="M1164 991c76.667 -100 115 -243 115 -429c0 -185.333 -38 -328 -114 -428c-75.333 -100 -183 -150 -323 -150c-166.667 0 -276 63.333 -328 190h-20v-506h-410v1840h410v-566h20c54 132 161.667 198 323 198c142 0 251 -49.667 327 -149zM811 370
c32 46 48.0029 110 48.0029 192c0 81.333 -16.333 145.333 -49 192s-77.334 70 -134.001 70s-101.334 -23.333 -134.001 -70s-49.334 -111 -50.001 -193c0.666992 -82.667 17 -146.667 49 -192c32.667 -46 77.667 -69 135 -69s102.333 23.333 135 70z" />
    <glyph glyph-name="ydieresis" unicode="&#xff;" horiz-adv-x="1246" 
d="M122 -412l-0.000976562 305.999h60c126 0 190 24.667 192 74v20l-374 1136h455l175 -828h8l175 828h433l-339 -1101c-48 -155.333 -121.667 -266.666 -221 -333.999s-238.666 -101 -417.999 -101h-146zM287.999 1300c-30 29.333 -45 64.666 -45 105.999
c0 42 15 77.333 45 106c30 29.333 67.667 44 113 44s83.333 -14.667 114 -44c29.333 -28.667 44 -64 44 -106c0 -41.333 -14.667 -76.666 -44 -105.999c-30.667 -29.333 -68.667 -44 -114 -44s-83 14.667 -113 44zM731.999 1300c-30 29.333 -45 64.666 -45 105.999
c0 42 15 77.333 45 106c30 29.333 67.667 44 113 44s83.333 -14.667 114 -44c29.333 -28.667 44 -64 44 -106c0 -41.333 -14.667 -76.666 -44 -105.999c-30.667 -29.333 -68.667 -44 -114 -44s-83 14.667 -113 44z" />
    <glyph glyph-name="Amacron" unicode="&#x100;" horiz-adv-x="1534" 
d="M976 287h-440l-75 -287h-432l471 1443h532l471 -1443h-452zM613 586h286l-139 524h-8zM1140 1606h-748v180h748v-180z" />
    <glyph glyph-name="amacron" unicode="&#x101;" horiz-adv-x="1231" 
d="M695 297c36.667 26 55 59.667 55 101v74l-181 -13c-85.333 -6 -128 -39.667 -128 -101c0 -30.667 11.667 -55 35 -73c22.667 -17.333 53.334 -26 92.001 -26c49.333 0 91.666 12.667 126.999 38zM149 79c-74.667 66 -112 148.667 -112 248
c0 214.667 155 331.334 465 350.001l248 15v57c0 37.333 -13 66.666 -39 87.999c-25.333 20.667 -58.666 31 -99.999 31c-42 0 -77 -10.333 -105 -31c-26.667 -20 -41.667 -45 -45 -75h-366c5.33301 119.333 55.666 214 150.999 284c96 70.667 225 106 387 106
c154.667 0 279.667 -35.333 375 -106c94.667 -70.667 142 -163 142 -277v-769h-400v152h-8c-28.667 -53.333 -74 -95 -136 -125c-58 -28.667 -121.333 -43 -190 -43c-105.333 0 -194.333 31.667 -267 95zM981 1276h-704v180h704v-180z" />
    <glyph glyph-name="Abreve" unicode="&#x102;" horiz-adv-x="1534" 
d="M976 287h-440l-75 -287h-432l471 1443h532l471 -1443h-452zM613 586h286l-139 524h-8zM607 1870c2 -44.667 16.668 -80 44.001 -106c28 -28 66.333 -42 115 -42s87.334 14 116.001 42c26.667 26 41 61.333 43 106h236c-3.33301 -94.667 -38.333 -172.667 -105 -234
c-72.667 -66.667 -169.334 -100 -290.001 -100s-217.334 33.333 -290.001 100c-66.667 61.333 -101.667 139.333 -105 234h236z" />
    <glyph glyph-name="abreve" unicode="&#x103;" horiz-adv-x="1231" 
d="M695 297c36.667 26 55 59.667 55 101v74l-181 -13c-85.333 -6 -128 -39.667 -128 -101c0 -30.667 11.667 -55 35 -73c22.667 -17.333 53.334 -26 92.001 -26c49.333 0 91.666 12.667 126.999 38zM149 79c-74.667 66 -112 148.667 -112 248
c0 214.667 155 331.334 465 350.001l248 15v57c0 37.333 -13 66.666 -39 87.999c-25.333 20.667 -58.666 31 -99.999 31c-42 0 -77 -10.333 -105 -31c-26.667 -20 -41.667 -45 -45 -75h-366c5.33301 119.333 55.666 214 150.999 284c96 70.667 225 106 387 106
c154.667 0 279.667 -35.333 375 -106c94.667 -70.667 142 -163 142 -277v-769h-400v152h-8c-28.667 -53.333 -74 -95 -136 -125c-58 -28.667 -121.333 -43 -190 -43c-105.333 0 -194.333 31.667 -267 95zM470 1590c2 -44.667 16.668 -80 44.001 -106
c28 -28 66.333 -42 115 -42s87.334 14 116.001 42c26.667 26 41 61.333 43 106h236c-3.33301 -94.667 -38.333 -172.667 -105 -234c-72.667 -66.667 -169.334 -100 -290.001 -100s-217.334 33.333 -290.001 100c-66.667 61.333 -101.667 139.333 -105 234h236z" />
    <glyph glyph-name="Aogonek" unicode="&#x104;" horiz-adv-x="1534" 
d="M1107 -410c-49.333 42 -74 96.667 -74 164c0 104 55.333 186 166 246h-148l-75 287h-440l-75 -287h-432l471 1443h532l471 -1443h-106c-84.667 -47.333 -127 -105.333 -127 -174c0 -29.333 10.667 -53.333 32 -72c20.667 -18.667 47.667 -28 81 -28c20 0 44 2.66699 72 8
v-185c-40 -15.333 -92.333 -23 -157 -23c-78 0 -141.667 21.333 -191 64zM613 586h286l-139 524h-8z" />
    <glyph glyph-name="aogonek" unicode="&#x105;" horiz-adv-x="1231" 
d="M801 -410c-49.333 42 -74.0029 96.667 -74.0029 164c0 102.667 55.333 184.667 166 246h-143v152h-8c-27.333 -51.333 -70.666 -92 -129.999 -122c-59.333 -30.667 -124.666 -46 -195.999 -46c-107.333 0 -197.333 32.667 -270 98c-72.667 66 -109 147.667 -109 245
c0 215.333 155 332 465 350l248 15v57c0 36.667 -12.667 65.667 -38 87c-24.667 21.333 -58.334 32 -101.001 32c-40.667 0 -74.667 -9.66699 -102 -29c-28 -20 -44 -45.667 -48 -77h-366c5.33301 120 56 215 152 285c96.667 70 225.334 105 386.001 105
c154.667 0 279.334 -35.333 374.001 -106c95.333 -70 143 -162.333 143 -277v-769h-59c-84.667 -47.333 -127 -105.333 -127 -174c0 -29.333 10.667 -53.333 32 -72c20.667 -18.667 47.667 -28 81 -28c22.667 0 46.667 2.66699 72 8v-185c-40 -15.333 -92.333 -23 -157 -23
c-78 0 -141.667 21.333 -191 64zM697.997 299c34.667 26.667 52.001 59.667 52.001 99v74l-181 -13c-85.333 -6 -128 -39.667 -128 -101c0 -30.667 11.333 -54.667 34 -72c22.667 -18 53.667 -27 93 -27c51.333 0 94.666 13.333 129.999 40z" />
    <glyph glyph-name="Cacute" unicode="&#x106;" horiz-adv-x="1513" 
d="M256 170c-128 132 -192 316 -192 552s64.333 420 193 552c126 129.333 300.333 194 523 194c192 0 351.333 -56.333 478 -169c127.333 -114 191.333 -259.667 192 -437h-406c-4.66699 82 -31.667 148 -81 198c-48 50 -109 75 -183 75
c-87.333 0 -156.333 -36.333 -207 -109c-51.333 -74 -77 -175 -77 -303c0 -130 25.667 -231.667 77 -305c50 -73.333 119.333 -110 208 -110c73.333 0 134 24.667 182 74c48.667 50 76.334 116.667 83.001 200h406c-0.666992 -179.333 -64.334 -325.333 -191.001 -438
c-125.333 -112.667 -285.666 -169 -480.999 -169c-222.667 0 -397.334 65 -524.001 195zM590 1555l232 321h348l-274 -321h-306z" />
    <glyph glyph-name="cacute" unicode="&#x107;" horiz-adv-x="1223" 
d="M804 662c-4.66699 56.667 -21.667 101.666 -51 134.999c-30 32.667 -68 49 -114 49c-56.667 0 -100 -24.333 -130 -73s-45 -118.667 -45 -210c0 -190 58.333 -285 175 -285c48 0 86.333 15.667 115 47c29.333 30.667 46 74 50 130h373
c-2.66699 -150.667 -52.334 -269 -149.001 -355c-96.667 -85.333 -228 -128 -394 -128c-182 0 -325 52.333 -429 157s-156 249.334 -156 434.001c0 182.667 52.333 326.667 157 432c104 104.667 246 157 426 157c162.667 0 293.334 -44 392.001 -132
c99.333 -88.667 150.333 -208 153 -358h-373zM441 1275l232 321h347l-265 -321h-314z" />
    <glyph glyph-name="Ccircumflex" unicode="&#x108;" horiz-adv-x="1513" 
d="M256 170c-128 132 -192 316 -192 552s64.333 420 193 552c126 129.333 300.333 194 523 194c192 0 351.333 -56.333 478 -169c127.333 -114 191.333 -259.667 192 -437h-406c-4.66699 82 -31.667 148 -81 198c-48 50 -109 75 -183 75
c-87.333 0 -156.333 -36.333 -207 -109c-51.333 -74 -77 -175 -77 -303c0 -130 25.667 -231.667 77 -305c50 -73.333 119.333 -110 208 -110c73.333 0 134 24.667 182 74c48.667 50 76.334 116.667 83.001 200h406c-0.666992 -179.333 -64.334 -325.333 -191.001 -438
c-125.333 -112.667 -285.666 -169 -480.999 -169c-222.667 0 -397.334 65 -524.001 195zM913 1872l255 -336h-276l-132 192h-8l-132 -192h-276l255 336h314z" />
    <glyph glyph-name="ccircumflex" unicode="&#x109;" horiz-adv-x="1223" 
d="M804 662c-4.66699 56.667 -21.667 101.666 -51 134.999c-30 32.667 -68 49 -114 49c-56.667 0 -100 -24.333 -130 -73s-45 -118.667 -45 -210c0 -190 58.333 -285 175 -285c48 0 86.333 15.667 115 47c29.333 30.667 46 74 50 130h373
c-2.66699 -150.667 -52.334 -269 -149.001 -355c-96.667 -85.333 -228 -128 -394 -128c-182 0 -325 52.333 -429 157s-156 249.334 -156 434.001c0 182.667 52.333 326.667 157 432c104 104.667 246 157 426 157c162.667 0 293.334 -44 392.001 -132
c99.333 -88.667 150.333 -208 153 -358h-373zM1018 1256h-284l-124 180h-8l-124 -180h-284l255 336h314z" />
    <glyph glyph-name="Cdotaccent" unicode="&#x10a;" horiz-adv-x="1513" 
d="M256 170c-128 132 -192 316 -192 552s64.333 420 193 552c126 129.333 300.333 194 523 194c192 0 351.333 -56.333 478 -169c127.333 -114 191.333 -259.667 192 -437h-406c-4.66699 82 -31.667 148 -81 198c-48 50 -109 75 -183 75
c-87.333 0 -156.333 -36.333 -207 -109c-51.333 -74 -77 -175 -77 -303c0 -130 25.667 -231.667 77 -305c50 -73.333 119.333 -110 208 -110c73.333 0 134 24.667 182 74c48.667 50 76.334 116.667 83.001 200h406c-0.666992 -179.333 -64.334 -325.333 -191.001 -438
c-125.333 -112.667 -285.666 -169 -480.999 -169c-222.667 0 -397.334 65 -524.001 195zM630 1588c-34 34.667 -51 76.334 -51 125.001s17 90 51 124c34 34.667 76 52 126 52s92 -17.333 126 -52c34 -34 51 -75.333 51 -124s-17 -90.334 -51 -125.001
c-34.667 -34.667 -76.667 -52 -126 -52s-91.333 17.333 -126 52z" />
    <glyph glyph-name="cdotaccent" unicode="&#x10b;" horiz-adv-x="1223" 
d="M804 662c-4.66699 56.667 -21.667 101.666 -51 134.999c-30 32.667 -68 49 -114 49c-56.667 0 -100 -24.333 -130 -73s-45 -118.667 -45 -210c0 -190 58.333 -285 175 -285c48 0 86.333 15.667 115 47c29.333 30.667 46 74 50 130h373
c-2.66699 -150.667 -52.334 -269 -149.001 -355c-96.667 -85.333 -228 -128 -394 -128c-182 0 -325 52.333 -429 157s-156 249.334 -156 434.001c0 182.667 52.333 326.667 157 432c104 104.667 246 157 426 157c162.667 0 293.334 -44 392.001 -132
c99.333 -88.667 150.333 -208 153 -358h-373zM478 1315c-34 33.333 -51 74 -51 122s17 88.667 51 122c34 34 76 51 126 51s92 -17 126 -51c34 -33.333 51 -74 51 -122s-17 -88.667 -51 -122c-34 -34 -76 -51 -126 -51s-92 17 -126 51z" />
    <glyph glyph-name="Ccaron" unicode="&#x10c;" horiz-adv-x="1513" 
d="M256 170c-128 132 -192 316 -192 552s64.333 420 193 552c126 129.333 300.333 194 523 194c192 0 351.333 -56.333 478 -169c127.333 -114 191.333 -259.667 192 -437h-406c-4.66699 82 -31.667 148 -81 198c-48 50 -109 75 -183 75
c-87.333 0 -156.333 -36.333 -207 -109c-51.333 -74 -77 -175 -77 -303c0 -130 25.667 -231.667 77 -305c50 -73.333 119.333 -110 208 -110c73.333 0 134 24.667 182 74c48.667 50 76.334 116.667 83.001 200h406c-0.666992 -179.333 -64.334 -325.333 -191.001 -438
c-125.333 -112.667 -285.666 -169 -480.999 -169c-222.667 0 -397.334 65 -524.001 195zM344 1872h276l132 -192h8l132 192h276l-255 -336h-314z" />
    <glyph glyph-name="ccaron" unicode="&#x10d;" horiz-adv-x="1223" 
d="M804 662c-4.66699 56.667 -21.667 101.666 -51 134.999c-30 32.667 -68 49 -114 49c-56.667 0 -100 -24.333 -130 -73s-45 -118.667 -45 -210c0 -190 58.333 -285 175 -285c48 0 86.333 15.667 115 47c29.333 30.667 46 74 50 130h373
c-2.66699 -150.667 -52.334 -269 -149.001 -355c-96.667 -85.333 -228 -128 -394 -128c-182 0 -325 52.333 -429 157s-156 249.334 -156 434.001c0 182.667 52.333 326.667 157 432c104 104.667 246 157 426 157c162.667 0 293.334 -44 392.001 -132
c99.333 -88.667 150.333 -208 153 -358h-373zM449 1256l-255 336h284l124 -180h8l124 180h284l-255 -336h-314z" />
    <glyph glyph-name="Dcaron" unicode="&#x10e;" horiz-adv-x="1477" 
d="M716 1443c220.667 0 391.333 -60.667 512 -182c122 -123.333 183 -299.666 183 -528.999c0 -230.667 -61.333 -410.334 -184 -539.001c-122 -128.667 -292.333 -193 -511 -193h-617v1443h617zM522.999 337l133 -0.000976562c215.333 0 323 131.667 323 395
c0 120.667 -28.333 213.334 -85 278.001c-56 64 -135.333 96 -238 96h-133v-769zM325.999 1872h276l132 -192h8l132 192h276l-255 -336h-314z" />
    <glyph glyph-name="dcaron" unicode="&#x10f;" horiz-adv-x="1591" 
d="M1690 1508l-50 -518h-243v518h293zM165 137c-77.333 102.667 -116 245.334 -116 428.001c0 180.667 39.333 321.667 118 423s188 152 328 152c80 0 150.333 -20.667 211 -62c57.333 -39.333 97.333 -91.333 120 -156h8v596h410v-1518h-410v194h-8
c-19.333 -60.667 -59.333 -110.334 -120 -149.001c-62.667 -40.667 -135 -61 -217 -61c-138.667 0 -246.667 51 -324 153zM518 753c-32.667 -46 -48.999 -109.667 -48.999 -191c0 -82 16 -146 48 -192c32.667 -46 77.667 -69 135 -69c58 0 103.333 23 136 69
c32 45.333 48 109 48 191c0 81.333 -16.333 145.333 -49 192s-77.667 70 -135 70c-56.667 0 -101.334 -23.333 -134.001 -70z" />
    <glyph glyph-name="Dcroat" unicode="&#x110;" horiz-adv-x="1503" 
d="M682 337c215.333 0 323 131.666 323 394.999c0 120.667 -28.333 213.334 -85 278.001c-56 64 -135.333 96 -238 96h-133v-246h253v-279h-253v-244h133zM742 1443c220.667 0 391.333 -60.667 512 -182c122 -123.333 183 -299.666 183 -528.999
c0 -230.667 -61.333 -410.334 -184 -539.001c-122 -128.667 -292.333 -193 -511 -193h-617v581h-46v279h46v583h617z" />
    <glyph glyph-name="dcroat" unicode="&#x111;" horiz-adv-x="1380" 
d="M813 369c32 46 48.001 110 48.001 192s-16.333 146.333 -49 193s-77.667 70 -135 70c-56.667 0 -101.334 -23.333 -134.001 -70s-49 -110.667 -49 -192c0 -82 16 -146 48 -192c32.667 -46.667 77.667 -70 135 -70c58 0 103.333 23 136 69zM1333 1237l-64 0.000976562
v-1237h-410v174h-20c-54 -126.667 -162.333 -190 -325 -190c-138 0 -245.667 51 -323 153c-78 102 -117 244.667 -117 428c0 181.333 39.333 322.666 118 423.999c78.667 100.667 188 151 328 151c74 0 139.333 -17.333 196 -52c55.333 -35.333 96.333 -84 123 -146h20v295
h-186v176h186v135h410v-135h64v-176z" />
    <glyph glyph-name="Emacron" unicode="&#x112;" horiz-adv-x="1216" 
d="M1117 0h-1018v1443h1018v-337h-594v-233h557v-304h-557v-232h594v-337zM981 1606h-748v180h748v-180z" />
    <glyph glyph-name="emacron" unicode="&#x113;" horiz-adv-x="1243" 
d="M507 821c-33.333 -32 -51.999 -73 -55.999 -123h358c-3.33301 52 -21.333 93.667 -54 125c-32.667 30.667 -74.334 46 -125.001 46c-48.667 0 -89.667 -16 -123 -48zM1187 363c-17.333 -120.667 -75.332 -215.999 -173.999 -285.999c-99.333 -70 -225.333 -105 -378 -105
c-183.333 0 -327 51.667 -431 155c-103.333 103.333 -155 246.333 -155 429c0 183.333 51.667 328.666 155 435.999c102.667 106.667 242 160 418 160c173.333 0 311.666 -51.333 414.999 -154s155 -240 155 -412v-111h-747v-26c0 -57.333 18.333 -104 55 -140
c36.667 -36.667 83.667 -55 141 -55c93.333 0 153.333 36.333 180 109h366zM973.002 1276h-704v180h704v-180z" />
    <glyph glyph-name="Ebreve" unicode="&#x114;" horiz-adv-x="1216" 
d="M1117 0h-1018v1443h1018v-337h-594v-233h557v-304h-557v-232h594v-337zM448 1870c2 -44.667 16.668 -80 44.001 -106c28 -28 66.333 -42 115 -42s87.334 14 116.001 42c26.667 26 41 61.333 43 106h236c-3.33301 -94.667 -38.333 -172.667 -105 -234
c-72.667 -66.667 -169.334 -100 -290.001 -100s-217.334 33.333 -290.001 100c-66.667 61.333 -101.667 139.333 -105 234h236z" />
    <glyph glyph-name="ebreve" unicode="&#x115;" horiz-adv-x="1243" 
d="M507 821c-33.333 -32 -51.999 -73 -55.999 -123h358c-3.33301 52 -21.333 93.667 -54 125c-32.667 30.667 -74.334 46 -125.001 46c-48.667 0 -89.667 -16 -123 -48zM1187 363c-17.333 -120.667 -75.332 -215.999 -173.999 -285.999c-99.333 -70 -225.333 -105 -378 -105
c-183.333 0 -327 51.667 -431 155c-103.333 103.333 -155 246.333 -155 429c0 183.333 51.667 328.666 155 435.999c102.667 106.667 242 160 418 160c173.333 0 311.666 -51.333 414.999 -154s155 -240 155 -412v-111h-747v-26c0 -57.333 18.333 -104 55 -140
c36.667 -36.667 83.667 -55 141 -55c93.333 0 153.333 36.333 180 109h366zM462.002 1590c2 -44.667 16.668 -80 44.001 -106c28 -28 66.333 -42 115 -42s87.334 14 116.001 42c26.667 26 41 61.333 43 106h236c-3.33301 -94.667 -38.333 -172.667 -105 -234
c-72.667 -66.667 -169.334 -100 -290.001 -100s-217.334 33.333 -290.001 100c-66.667 61.333 -101.667 139.333 -105 234h236z" />
    <glyph glyph-name="Edotaccent" unicode="&#x116;" horiz-adv-x="1216" 
d="M1117 0h-1018v1443h1018v-337h-594v-233h557v-304h-557v-232h594v-337zM481 1588c-34 34.667 -51 76.334 -51 125.001s17 90 51 124c34 34.667 76 52 126 52s92 -17.333 126 -52c34 -34 51 -75.333 51 -124s-17 -90.334 -51 -125.001
c-34.667 -34.667 -76.667 -52 -126 -52s-91.333 17.333 -126 52z" />
    <glyph glyph-name="edotaccent" unicode="&#x117;" horiz-adv-x="1243" 
d="M507 821c-33.333 -32 -51.999 -73 -55.999 -123h358c-3.33301 52 -21.333 93.667 -54 125c-32.667 30.667 -74.334 46 -125.001 46c-48.667 0 -89.667 -16 -123 -48zM1187 363c-17.333 -120.667 -75.332 -215.999 -173.999 -285.999c-99.333 -70 -225.333 -105 -378 -105
c-183.333 0 -327 51.667 -431 155c-103.333 103.333 -155 246.333 -155 429c0 183.333 51.667 328.666 155 435.999c102.667 106.667 242 160 418 160c173.333 0 311.666 -51.333 414.999 -154s155 -240 155 -412v-111h-747v-26c0 -57.333 18.333 -104 55 -140
c36.667 -36.667 83.667 -55 141 -55c93.333 0 153.333 36.333 180 109h366zM493.002 1315c-34 33.333 -51 74 -51 122s17 88.667 51 122c34 34 76 51 126 51s92 -17 126 -51c34 -33.333 51 -74 51 -122s-17 -88.667 -51 -122c-34 -34 -76 -51 -126 -51s-92 17 -126 51z" />
    <glyph glyph-name="Eogonek" unicode="&#x118;" horiz-adv-x="1216" 
d="M99 0l0.000976562 1443h1018v-337h-594v-233h557v-304h-557v-232h594v-317c-121.333 -56 -182 -123 -182 -201c0 -28 10.333 -50.333 31 -67c20 -17.333 47.333 -26 82 -26c22.667 0 45.667 2.66699 69 8v-185c-40 -15.333 -91.333 -23 -154 -23
c-80.667 0 -145.334 20 -194.001 60c-48.667 39.333 -73 92 -73 158c0 112 56 197.333 168 256h-765z" />
    <glyph glyph-name="eogonek" unicode="&#x119;" horiz-adv-x="1243" 
d="M567 -423c-47.333 37.333 -70.998 88.002 -70.998 152.002c0 102 48.333 183 145 243h-6c-183.333 0 -327 51.667 -431 155c-103.333 103.333 -155 246.333 -155 429c0 183.333 51.667 328.666 155 435.999c102.667 106.667 242 160 418 160
c173.333 0 311.666 -51.333 414.999 -154s155 -240 155 -412v-111h-747v-26c0 -57.333 18.333 -104 55 -140c36.667 -36.667 83.667 -55 141 -55c92.667 0 152.667 36.333 180 109h366c-14.667 -118.667 -95.334 -229 -242.001 -331c-84 -56.667 -133 -91.334 -147 -104.001
c-43.333 -37.333 -65 -75.333 -65 -114c0 -28 10.333 -50.333 31 -67c20 -17.333 47.333 -26 82 -26c21.333 0 45.333 2.66699 72 8v-185c-40 -15.333 -92.333 -23 -157 -23c-81.333 0 -146 18.667 -194 56zM507.002 821.002c-33.333 -32 -51.999 -73 -55.999 -123h358
c-3.33301 52 -21.333 93.667 -54 125c-32.667 30.667 -74.334 46 -125.001 46c-48.667 0 -89.667 -16 -123 -48z" />
    <glyph glyph-name="Ecaron" unicode="&#x11a;" horiz-adv-x="1216" 
d="M1117 0h-1018v1443h1018v-337h-594v-233h557v-304h-557v-232h594v-337zM195 1872h276l132 -192h8l132 192h276l-255 -336h-314z" />
    <glyph glyph-name="ecaron" unicode="&#x11b;" horiz-adv-x="1243" 
d="M507 821c-33.333 -32 -51.999 -73 -55.999 -123h358c-3.33301 52 -21.333 93.667 -54 125c-32.667 30.667 -74.334 46 -125.001 46c-48.667 0 -89.667 -16 -123 -48zM1187 363c-17.333 -120.667 -75.332 -215.999 -173.999 -285.999c-99.333 -70 -225.333 -105 -378 -105
c-183.333 0 -327 51.667 -431 155c-103.333 103.333 -155 246.333 -155 429c0 183.333 51.667 328.666 155 435.999c102.667 106.667 242 160 418 160c173.333 0 311.666 -51.333 414.999 -154s155 -240 155 -412v-111h-747v-26c0 -57.333 18.333 -104 55 -140
c36.667 -36.667 83.667 -55 141 -55c93.333 0 153.333 36.333 180 109h366zM464.002 1256l-255 336h284l124 -180h8l124 180h284l-255 -336h-314z" />
    <glyph glyph-name="Gcircumflex" unicode="&#x11c;" horiz-adv-x="1530" 
d="M1461 614c0 -198 -58.998 -353.999 -176.998 -467.999c-118.667 -114 -282.334 -171 -491.001 -171c-230 0 -408.667 64.667 -536 194c-128.667 130.667 -193 315.334 -193 554.001c0 235.333 63.667 418.666 191 549.999c126 130 301 195 525 195
c180 0 332 -47.667 456 -143c122.667 -95.333 192 -217.333 208 -366h-417c-14 53.333 -43 95.666 -87 126.999c-44.667 32 -97.334 48 -158.001 48c-90 0 -160 -35.333 -210 -106c-50.667 -71.333 -76 -171 -76 -299c0 -130.667 28 -233.667 84 -309
c54.667 -74 129 -111 223 -111c68.667 0 125.667 17.667 171 53s71 82 77 140l2 20h-220v282h628v-190zM912.002 1872l255 -336h-276l-132 192h-8l-132 -192h-276l255 336h314z" />
    <glyph glyph-name="gcircumflex" unicode="&#x11d;" horiz-adv-x="1325" 
d="M788 375c32 42.667 48.001 104.666 48.001 185.999s-16.333 145.333 -49 192s-77.667 70 -135 70c-56.667 0 -101.334 -23.333 -134.001 -70c-32.667 -46 -49 -109.667 -49 -191s16 -143.666 48 -186.999c32 -42.667 77 -64 135 -64c58.667 0 104 21.333 136 64z
M236.001 -326.001c-104 64 -157.333 150.001 -160 258.001h394c6 -27.333 26 -49.333 60 -66c33.333 -16.667 72.666 -25 117.999 -25c56 0 100.667 13 134 39c34.667 27.333 52 64 52 110v224h-8c-19.333 -59.333 -59.333 -107.333 -120 -144
c-61.333 -37.333 -133.666 -56 -216.999 -56c-134 0 -240.333 48 -319 144c-80.667 98 -121 233.667 -121 407c0 180.667 39.333 321.667 118 423s188 152 328 152c80 0 150.333 -20.667 211 -62c57.333 -39.333 97.333 -91.333 120 -156h8v202h410v-1104
c0 -132.667 -55 -239.334 -165 -320.001s-255 -121 -435 -121c-168.667 0 -304.667 31.667 -408 95zM1074 1256h-284l-124 180h-8l-124 -180h-284l255 336h314z" />
    <glyph glyph-name="Gbreve" unicode="&#x11e;" horiz-adv-x="1530" 
d="M1461 614c0 -198 -58.998 -353.999 -176.998 -467.999c-118.667 -114 -282.334 -171 -491.001 -171c-230 0 -408.667 64.667 -536 194c-128.667 130.667 -193 315.334 -193 554.001c0 235.333 63.667 418.666 191 549.999c126 130 301 195 525 195
c180 0 332 -47.667 456 -143c122.667 -95.333 192 -217.333 208 -366h-417c-14 53.333 -43 95.666 -87 126.999c-44.667 32 -97.334 48 -158.001 48c-90 0 -160 -35.333 -210 -106c-50.667 -71.333 -76 -171 -76 -299c0 -130.667 28 -233.667 84 -309
c54.667 -74 129 -111 223 -111c68.667 0 125.667 17.667 171 53s71 82 77 140l2 20h-220v282h628v-190zM596.002 1870c2 -44.667 16.668 -80 44.001 -106c28 -28 66.333 -42 115 -42s87.334 14 116.001 42c26.667 26 41 61.333 43 106h236
c-3.33301 -94.667 -38.333 -172.667 -105 -234c-72.667 -66.667 -169.334 -100 -290.001 -100s-217.334 33.333 -290.001 100c-66.667 61.333 -101.667 139.333 -105 234h236z" />
    <glyph glyph-name="gbreve" unicode="&#x11f;" horiz-adv-x="1325" 
d="M788 375c32 42.667 48.001 104.666 48.001 185.999s-16.333 145.333 -49 192s-77.667 70 -135 70c-56.667 0 -101.334 -23.333 -134.001 -70c-32.667 -46 -49 -109.667 -49 -191s16 -143.666 48 -186.999c32 -42.667 77 -64 135 -64c58.667 0 104 21.333 136 64z
M236.001 -326.001c-104 64 -157.333 150.001 -160 258.001h394c6 -27.333 26 -49.333 60 -66c33.333 -16.667 72.666 -25 117.999 -25c56 0 100.667 13 134 39c34.667 27.333 52 64 52 110v224h-8c-19.333 -59.333 -59.333 -107.333 -120 -144
c-61.333 -37.333 -133.666 -56 -216.999 -56c-134 0 -240.333 48 -319 144c-80.667 98 -121 233.667 -121 407c0 180.667 39.333 321.667 118 423s188 152 328 152c80 0 150.333 -20.667 211 -62c57.333 -39.333 97.333 -91.333 120 -156h8v202h410v-1104
c0 -132.667 -55 -239.334 -165 -320.001s-255 -121 -435 -121c-168.667 0 -304.667 31.667 -408 95zM503.001 1590c2 -44.667 16.668 -80 44.001 -106c28 -28 66.333 -42 115 -42s87.334 14 116.001 42c26.667 26 41 61.333 43 106h236
c-3.33301 -94.667 -38.333 -172.667 -105 -234c-72.667 -66.667 -169.334 -100 -290.001 -100s-217.334 33.333 -290.001 100c-66.667 61.333 -101.667 139.333 -105 234h236z" />
    <glyph glyph-name="Gdotaccent" unicode="&#x120;" horiz-adv-x="1530" 
d="M1461 614c0 -198 -58.998 -353.999 -176.998 -467.999c-118.667 -114 -282.334 -171 -491.001 -171c-230 0 -408.667 64.667 -536 194c-128.667 130.667 -193 315.334 -193 554.001c0 235.333 63.667 418.666 191 549.999c126 130 301 195 525 195
c180 0 332 -47.667 456 -143c122.667 -95.333 192 -217.333 208 -366h-417c-14 53.333 -43 95.666 -87 126.999c-44.667 32 -97.334 48 -158.001 48c-90 0 -160 -35.333 -210 -106c-50.667 -71.333 -76 -171 -76 -299c0 -130.667 28 -233.667 84 -309
c54.667 -74 129 -111 223 -111c68.667 0 125.667 17.667 171 53s71 82 77 140l2 20h-220v282h628v-190zM629.002 1588c-34 34.667 -51 76.334 -51 125.001s17 90 51 124c34 34.667 76 52 126 52s92 -17.333 126 -52c34 -34 51 -75.333 51 -124s-17 -90.334 -51 -125.001
c-34.667 -34.667 -76.667 -52 -126 -52s-91.333 17.333 -126 52z" />
    <glyph glyph-name="gdotaccent" unicode="&#x121;" horiz-adv-x="1325" 
d="M788 375c32 42.667 48.001 104.666 48.001 185.999s-16.333 145.333 -49 192s-77.667 70 -135 70c-56.667 0 -101.334 -23.333 -134.001 -70c-32.667 -46 -49 -109.667 -49 -191s16 -143.666 48 -186.999c32 -42.667 77 -64 135 -64c58.667 0 104 21.333 136 64z
M236.001 -326.001c-104 64 -157.333 150.001 -160 258.001h394c6 -27.333 26 -49.333 60 -66c33.333 -16.667 72.666 -25 117.999 -25c56 0 100.667 13 134 39c34.667 27.333 52 64 52 110v224h-8c-19.333 -59.333 -59.333 -107.333 -120 -144
c-61.333 -37.333 -133.666 -56 -216.999 -56c-134 0 -240.333 48 -319 144c-80.667 98 -121 233.667 -121 407c0 180.667 39.333 321.667 118 423s188 152 328 152c80 0 150.333 -20.667 211 -62c57.333 -39.333 97.333 -91.333 120 -156h8v202h410v-1104
c0 -132.667 -55 -239.334 -165 -320.001s-255 -121 -435 -121c-168.667 0 -304.667 31.667 -408 95zM534.001 1315c-34 33.333 -51 74 -51 122s17 88.667 51 122c34 34 76 51 126 51s92 -17 126 -51c34 -33.333 51 -74 51 -122s-17 -88.667 -51 -122
c-34 -34 -76 -51 -126 -51s-92 17 -126 51z" />
    <glyph glyph-name="uni0122" unicode="&#x122;" horiz-adv-x="1530" 
d="M1461 614c0 -198 -58.998 -353.999 -176.998 -467.999c-118.667 -114 -282.334 -171 -491.001 -171c-230 0 -408.667 64.667 -536 194c-128.667 130.667 -193 315.334 -193 554.001c0 235.333 63.667 418.666 191 549.999c126 130 301 195 525 195
c180 0 332 -47.667 456 -143c122.667 -95.333 192 -217.333 208 -366h-417c-14 53.333 -43 95.666 -87 126.999c-44.667 32 -97.334 48 -158.001 48c-90 0 -160 -35.333 -210 -106c-50.667 -71.333 -76 -171 -76 -299c0 -130.667 28 -233.667 84 -309
c54.667 -74 129 -111 223 -111c68.667 0 125.667 17.667 171 53s71 82 77 140l2 20h-220v282h628v-190zM418.002 -456.999l152 321h359l-203 -321h-308z" />
    <glyph glyph-name="uni0123" unicode="&#x123;" horiz-adv-x="1325" 
d="M788 375c32 42.667 48.001 104.666 48.001 185.999s-16.333 145.333 -49 192s-77.667 70 -135 70c-56.667 0 -101.334 -23.333 -134.001 -70c-32.667 -46 -49 -109.667 -49 -191s16 -143.666 48 -186.999c32 -42.667 77 -64 135 -64c58.667 0 104 21.333 136 64z
M236.001 -326.001c-104 64 -157.333 150.001 -160 258.001h394c6 -27.333 26 -49.333 60 -66c33.333 -16.667 72.666 -25 117.999 -25c56 0 100.667 13 134 39c34.667 27.333 52 64 52 110v224h-8c-19.333 -59.333 -59.333 -107.333 -120 -144
c-61.333 -37.333 -133.666 -56 -216.999 -56c-134 0 -240.333 48 -319 144c-80.667 98 -121 233.667 -121 407c0 180.667 39.333 321.667 118 423s188 152 328 152c80 0 150.333 -20.667 211 -62c57.333 -39.333 97.333 -91.333 120 -156h8v202h410v-1104
c0 -132.667 -55 -239.334 -165 -320.001s-255 -121 -435 -121c-168.667 0 -304.667 31.667 -408 95zM325.001 -854l152 321h359l-203 -321h-308z" />
    <glyph glyph-name="Hcircumflex" unicode="&#x124;" horiz-adv-x="1556" 
d="M1031 0v558h-508v-558h-424v1443h424v-548h508v548h424v-1443h-424zM934 1872l255 -336h-276l-132 192h-8l-132 -192h-276l255 336h314z" />
    <glyph glyph-name="hcircumflex" unicode="&#x125;" horiz-adv-x="1328" 
d="M85 1518l399.999 0.00195312v-614h8c28 78 74 138 138 180c62.667 41.333 137 62 223 62c126 0 224 -37.333 294 -112s105 -179.334 105 -314.001v-720h-410v629c0 57.333 -15.333 102.666 -46 135.999c-31.333 33.333 -73.666 50 -126.999 50
c-50.667 0 -92.667 -17.333 -126 -52c-32.667 -35.333 -49 -80 -49 -134v-629h-410v1518zM444.999 1947l255 -336h-276l-132 192h-8l-132 -192h-276l255 336h314z" />
    <glyph glyph-name="Hbar" unicode="&#x126;" horiz-adv-x="1639" 
d="M1072 1028h-508v-133h508v133zM1572 1028h-76v-1028h-424v558h-508v-558h-424v1028h-75v279h75v136h424v-136h508v136h424v-136h76v-279z" />
    <glyph glyph-name="hbar" unicode="&#x127;" horiz-adv-x="1378" 
d="M529 934c24 64.667 68.333 116.334 133 155.001c63.333 38 135.333 57 216 57c124.667 0 222 -36.667 292 -110c71.333 -74.667 107 -180 107 -316v-720h-410v629c0 59.333 -16 105.666 -48 138.999c-31.333 32 -73 48 -125 48c-50 0 -91.667 -17.333 -125 -52
c-33.333 -35.333 -50 -80.333 -50 -135v-629h-410v1237h-59v176h59v145h400v-145h201v-176h-201v-303h20z" />
    <glyph glyph-name="Itilde" unicode="&#x128;" horiz-adv-x="624" 
d="M100 0v1443h424v-1443h-424zM302 1606c-53.333 39.333 -88.333 59 -105 59c-42 0 -65 -33.667 -69 -101h-201c0 90 25 162.333 75 217c47.333 50.667 106 76 176 76c55.333 0 109.666 -19.667 162.999 -59c53.333 -40 88.333 -60 105 -60c42.667 0 65.667 35.333 69 106
h201c0 -90 -25 -163 -75 -219c-47.333 -52.667 -106 -79 -176 -79c-55.333 0 -109.666 20 -162.999 60z" />
    <glyph glyph-name="itilde" unicode="&#x129;" horiz-adv-x="570" 
d="M80 1124h410v-1124h-410v1124zM275 1318c-53.333 39.333 -88.333 59 -105 59c-42 0 -65 -33.667 -69 -101h-201c0 90 25 162.333 75 217c47.333 50.667 106 76 176 76c55.333 0 109.666 -19.667 162.999 -59c53.333 -40 88.333 -60 105 -60
c42.667 0 65.667 35.333 69 106h201c0 -90 -25 -163 -75 -219c-47.333 -52.667 -106 -79 -176 -79c-55.333 0 -109.666 20 -162.999 60z" />
    <glyph glyph-name="Imacron" unicode="&#x12a;" horiz-adv-x="624" 
d="M100 0v1443h424v-1443h-424zM686 1606h-748v180h748v-180z" />
    <glyph glyph-name="imacron" unicode="&#x12b;" horiz-adv-x="570" 
d="M80 1124h410v-1124h-410v1124zM637 1276h-704v180h704v-180z" />
    <glyph glyph-name="Ibreve" unicode="&#x12c;" horiz-adv-x="624" 
d="M100 0v1443h424v-1443h-424zM153 1870c2 -44.667 16.668 -80 44.001 -106c28 -28 66.333 -42 115 -42s87.334 14 116.001 42c26.667 26 41 61.333 43 106h236c-3.33301 -94.667 -38.333 -172.667 -105 -234c-72.667 -66.667 -169.334 -100 -290.001 -100
s-217.334 33.333 -290.001 100c-66.667 61.333 -101.667 139.333 -105 234h236z" />
    <glyph glyph-name="ibreve" unicode="&#x12d;" horiz-adv-x="570" 
d="M80 1124h410v-1124h-410v1124zM126 1590c2 -44.667 16.668 -80 44.001 -106c28 -28 66.333 -42 115 -42s87.334 14 116.001 42c26.667 26 41 61.333 43 106h236c-3.33301 -94.667 -38.333 -172.667 -105 -234c-72.667 -66.667 -169.334 -100 -290.001 -100
s-217.334 33.333 -290.001 100c-66.667 61.333 -101.667 139.333 -105 234h236z" />
    <glyph glyph-name="Iogonek" unicode="&#x12e;" horiz-adv-x="624" 
d="M125 -410c-49.333 42 -74 96.667 -74 164c0 102.667 55.333 184.667 166 246h-118v1443h424v-1443h-108c-84.667 -47.333 -127 -105.333 -127 -174c0 -29.333 10.667 -53.333 32 -72c20.667 -18.667 47.667 -28 81 -28c21.333 0 45.333 2.66699 72 8v-185
c-40 -15.333 -92.333 -23 -157 -23c-78 0 -141.667 21.333 -191 64z" />
    <glyph glyph-name="iogonek" unicode="&#x12f;" horiz-adv-x="570" 
d="M139 1245c-40 37.333 -60 84 -60 140s20 102.667 60 140c39.333 36.667 87.666 55 144.999 55s105.666 -18.333 144.999 -55c40 -37.333 60 -84 60 -140s-20 -102.667 -60 -140c-39.333 -36.667 -87.666 -55 -144.999 -55s-105.666 18.333 -144.999 55zM140 -410
c-49.333 42 -74 96.667 -74 164c0 102.667 55.333 184.667 166 246h-153v1124h410v-1124h-59c-84.667 -47.333 -127 -105.333 -127 -174c0 -29.333 10.667 -53.333 32 -72c20.667 -18.667 47.667 -28 81 -28c24 0 48 2.66699 72 8v-185c-40 -15.333 -92.333 -23 -157 -23
c-78 0 -141.667 21.333 -191 64z" />
    <glyph glyph-name="Idotaccent" unicode="&#x130;" horiz-adv-x="624" 
d="M99 0v1443h424v-1443h-424zM185 1588c-34 34.667 -51 76.334 -51 125.001s17 90 51 124c34 34.667 76 52 126 52s92 -17.333 126 -52c34 -34 51 -75.333 51 -124s-17 -90.334 -51 -125.001c-34.667 -34.667 -76.667 -52 -126 -52s-91.333 17.333 -126 52z" />
    <glyph glyph-name="dotlessi" unicode="&#x131;" horiz-adv-x="570" 
d="M79 1124h410v-1124h-410v1124z" />
    <glyph glyph-name="IJ" unicode="&#x132;" horiz-adv-x="1895" 
d="M99 0v1443h424v-1443h-424zM1049 511c0 -56.667 13.999 -101 41.999 -133c27.333 -32 65.333 -48 114 -48c95.333 0 143 58 143 174v939h424v-942c0 -168 -49.667 -298 -149 -390c-98 -90.667 -235.333 -136 -412 -136c-175.333 0 -313.666 47.667 -414.999 143
c-102 95.333 -153 226.333 -153 393h406z" />
    <glyph glyph-name="ij" unicode="&#x133;" horiz-adv-x="1140" 
d="M79 1124h410v-1124h-410v1124zM139 1245c-40 37.333 -60 84 -60 140s20 102.667 60 140c39.333 36.667 87.666 55 144.999 55s105.666 -18.333 144.999 -55c40 -37.333 60 -84 60 -140s-20 -102.667 -60 -140c-39.333 -36.667 -87.666 -55 -144.999 -55
s-105.666 18.333 -144.999 55zM1059 7c0 -114 -39.666 -202.667 -118.999 -266c-78.667 -63.333 -189.334 -95 -332.001 -95c-51.333 0 -93 2 -125 6v286c12 -2 27.667 -3 47 -3c79.333 0 119 30 119 90v1099h410v-1117zM709.001 1245c-40 37.333 -60 84 -60 140
s20 102.667 60 140c39.333 36.667 87.666 55 144.999 55s105.666 -18.333 144.999 -55c40 -37.333 60 -84 60 -140s-20 -102.667 -60 -140c-39.333 -36.667 -87.666 -55 -144.999 -55s-105.666 18.333 -144.999 55z" />
    <glyph glyph-name="Jcircumflex" unicode="&#x134;" horiz-adv-x="1271" 
d="M425 511c0 -56.667 13.999 -101 41.999 -133c27.333 -32 65.333 -48 114 -48c95.333 0 143 58 143 174v939h424v-942c0 -168 -49.667 -298 -149 -390c-98 -90.667 -235.333 -136 -412 -136c-175.333 0 -313.666 47.667 -414.999 143c-102 95.333 -153 226.333 -153 393
h406zM1102 1872l255 -336h-276l-132 192h-8l-132 -192h-276l255 336h314z" />
    <glyph glyph-name="jcircumflex" unicode="&#x135;" horiz-adv-x="570" 
d="M490 7c0 -114 -39.666 -202.667 -118.999 -266c-78.667 -63.333 -189.334 -95 -332.001 -95c-51.333 0 -93 2 -125 6v286c12 -2 27.667 -3 47 -3c79.333 0 119 30 119 90v1099h410v-1117zM697.001 1256h-284l-124 180h-8l-124 -180h-284l255 336h314z" />
    <glyph glyph-name="uni0136" unicode="&#x136;" horiz-adv-x="1445" 
d="M99 0v1443h424v-612h8l446 612h445l-475 -641l497 -802h-493l-315 530l-113 -152v-378h-424zM385 -457l152 321h359l-203 -321h-308z" />
    <glyph glyph-name="uni0137" unicode="&#x137;" horiz-adv-x="1226" 
d="M782 1124h452l-378 -480l404 -644h-471l-238 399l-57 -74v-325h-410v1518h410v-803h8zM275 -457l152 321h359l-203 -321h-308z" />
    <glyph glyph-name="Lacute" unicode="&#x139;" horiz-adv-x="1150" 
d="M1089 0h-990v1443h424v-1106h566v-337zM144 1555l232 321h348l-274 -321h-306z" />
    <glyph glyph-name="lacute" unicode="&#x13a;" horiz-adv-x="580" 
d="M84 1518h410v-1518h-410v1518zM123 1630l232 321h348l-274 -321h-306z" />
    <glyph glyph-name="uni013B" unicode="&#x13b;" horiz-adv-x="1150" 
d="M1089 0h-990v1443h424v-1106h566v-337zM237 -457l152 321h359l-203 -321h-308z" />
    <glyph glyph-name="uni013C" unicode="&#x13c;" horiz-adv-x="580" 
d="M85 1518h410v-1518h-410v1518zM-47 -457l152 321h359l-203 -321h-308z" />
    <glyph glyph-name="Lcaron" unicode="&#x13d;" horiz-adv-x="1150" 
d="M1081 1443l-50 -518h-272v518h322zM1089 0h-990v1443h424v-1106h566v-337z" />
    <glyph glyph-name="lcaron" unicode="&#x13e;" horiz-adv-x="863" 
d="M942 1508l-50 -518h-243v518h293zM84 1518h410v-1518h-410v1518z" />
    <glyph glyph-name="Lslash" unicode="&#x141;" horiz-adv-x="1182" 
d="M1121 337v-337h-990v573l-72 -39v256l72 39v614h424v-383l250 136v-256l-250 -136v-467h566z" />
    <glyph glyph-name="lslash" unicode="&#x142;" horiz-adv-x="630" 
d="M630 912l-135 -74v-838h-410v613l-85 -47v256l85 47v649h410v-424l135 74v-256z" />
    <glyph glyph-name="Nacute" unicode="&#x143;" horiz-adv-x="1494" 
d="M99 0v1443h329l557 -748h8v748h400v-1443h-325l-561 760h-8v-760h-400zM580 1555l232 321h348l-274 -321h-306z" />
    <glyph glyph-name="nacute" unicode="&#x144;" horiz-adv-x="1319" 
d="M79 1124l400.001 0.000976562v-220h8c58.667 161.333 177 242 355 242c126 0 224.333 -37.333 295 -112s106 -179.334 106 -314.001v-720h-410v629c0 58 -15 103.333 -45 136c-30.667 33.333 -72.667 50 -126 50c-50.667 0 -92.334 -17.333 -125.001 -52
c-32 -35.333 -48 -80 -48 -134v-629h-410v1124zM494.001 1275l232 321h347l-265 -321h-314z" />
    <glyph glyph-name="uni0145" unicode="&#x145;" horiz-adv-x="1494" 
d="M99 0v1443h329l557 -748h8v748h400v-1443h-325l-561 760h-8v-760h-400zM409 -457l152 321h359l-203 -321h-308z" />
    <glyph glyph-name="uni0146" unicode="&#x146;" horiz-adv-x="1319" 
d="M79 1124l400.001 0.000976562v-220h8c58.667 161.333 177 242 355 242c126 0 224.333 -37.333 295 -112s106 -179.334 106 -314.001v-720h-410v629c0 58 -15 103.333 -45 136c-30.667 33.333 -72.667 50 -126 50c-50.667 0 -92.334 -17.333 -125.001 -52
c-32 -35.333 -48 -80 -48 -134v-629h-410v1124zM322.001 -456.999l152 321h359l-203 -321h-308z" />
    <glyph glyph-name="Ncaron" unicode="&#x147;" horiz-adv-x="1494" 
d="M99 0v1443h329l557 -748h8v748h400v-1443h-325l-561 760h-8v-760h-400zM334 1872h276l132 -192h8l132 192h276l-255 -336h-314z" />
    <glyph glyph-name="ncaron" unicode="&#x148;" horiz-adv-x="1319" 
d="M79 1124l400.001 0.000976562v-220h8c58.667 161.333 177 242 355 242c126 0 224.333 -37.333 295 -112s106 -179.334 106 -314.001v-720h-410v629c0 58 -15 103.333 -45 136c-30.667 33.333 -72.667 50 -126 50c-50.667 0 -92.334 -17.333 -125.001 -52
c-32 -35.333 -48 -80 -48 -134v-629h-410v1124zM502.001 1256l-255 336h284l124 -180h8l124 180h284l-255 -336h-314z" />
    <glyph glyph-name="Omacron" unicode="&#x14c;" horiz-adv-x="1584" 
d="M1322 1267c130.667 -134 196 -316 196 -546s-65.333 -412 -196 -546c-130.667 -133.333 -307.667 -200 -531 -200c-224 0 -401 66.667 -531 200c-130.667 134 -196 316 -196 546s65.333 412 196 546s307.667 201 531 201s400.333 -67 531 -201zM577 1019
c-54 -74 -80.998 -173.333 -80.998 -298c0 -124 27 -223 81 -297c53.333 -74 124.666 -111 213.999 -111s160.666 37 213.999 111c54 74 81 173 81 297c0 124.667 -27 224 -81 298s-125.333 111 -214 111s-160 -37 -214 -111zM1165 1606h-748v180h748v-180z" />
    <glyph glyph-name="omacron" unicode="&#x14d;" horiz-adv-x="1278" 
d="M207 125c-105.333 104 -158 250.001 -158 438.001c0 183.333 53.333 327.666 160 432.999c105.333 104 248.333 156 429 156c182 0 325.333 -51.667 430 -155c106 -105.333 159 -250 159 -434c0 -188.667 -52.333 -334.667 -157 -438
c-103.333 -102 -247.333 -153 -432 -153c-184 0 -327.667 51 -431 153zM765 342.001c30.667 52 46 125.333 46 220c0 92.667 -15.667 165.334 -47 218.001c-30.667 52 -72.667 78 -126 78s-95.333 -26 -126 -78c-31.333 -52.667 -47 -125.334 -47 -218.001
c0 -94.667 15.333 -168 46 -220c30 -50.667 72.333 -76 127 -76c54 0 96.333 25.333 127 76zM990 1276h-704v180h704v-180z" />
    <glyph glyph-name="Obreve" unicode="&#x14e;" horiz-adv-x="1584" 
d="M1322 1267c130.667 -134 196 -316 196 -546s-65.333 -412 -196 -546c-130.667 -133.333 -307.667 -200 -531 -200c-224 0 -401 66.667 -531 200c-130.667 134 -196 316 -196 546s65.333 412 196 546s307.667 201 531 201s400.333 -67 531 -201zM577 1019
c-54 -74 -80.998 -173.333 -80.998 -298c0 -124 27 -223 81 -297c53.333 -74 124.666 -111 213.999 -111s160.666 37 213.999 111c54 74 81 173 81 297c0 124.667 -27 224 -81 298s-125.333 111 -214 111s-160 -37 -214 -111zM632.002 1870
c2 -44.667 16.668 -80 44.001 -106c28 -28 66.333 -42 115 -42s87.334 14 116.001 42c26.667 26 41 61.333 43 106h236c-3.33301 -94.667 -38.333 -172.667 -105 -234c-72.667 -66.667 -169.334 -100 -290.001 -100s-217.334 33.333 -290.001 100
c-66.667 61.333 -101.667 139.333 -105 234h236z" />
    <glyph glyph-name="obreve" unicode="&#x14f;" horiz-adv-x="1278" 
d="M207 125c-105.333 104 -158 250.001 -158 438.001c0 183.333 53.333 327.666 160 432.999c105.333 104 248.333 156 429 156c182 0 325.333 -51.667 430 -155c106 -105.333 159 -250 159 -434c0 -188.667 -52.333 -334.667 -157 -438
c-103.333 -102 -247.333 -153 -432 -153c-184 0 -327.667 51 -431 153zM765 342.001c30.667 52 46 125.333 46 220c0 92.667 -15.667 165.334 -47 218.001c-30.667 52 -72.667 78 -126 78s-95.333 -26 -126 -78c-31.333 -52.667 -47 -125.334 -47 -218.001
c0 -94.667 15.333 -168 46 -220c30 -50.667 72.333 -76 127 -76c54 0 96.333 25.333 127 76zM479 1590c2 -44.667 16.668 -80 44.001 -106c28 -28 66.333 -42 115 -42s87.334 14 116.001 42c26.667 26 41 61.333 43 106h236c-3.33301 -94.667 -38.333 -172.667 -105 -234
c-72.667 -66.667 -169.334 -100 -290.001 -100s-217.334 33.333 -290.001 100c-66.667 61.333 -101.667 139.333 -105 234h236z" />
    <glyph glyph-name="Ohungarumlaut" unicode="&#x150;" horiz-adv-x="1584" 
d="M1322 1267c130.667 -134 196 -316 196 -546s-65.333 -412 -196 -546c-130.667 -133.333 -307.667 -200 -531 -200c-224 0 -401 66.667 -531 200c-130.667 134 -196 316 -196 546s65.333 412 196 546s307.667 201 531 201s400.333 -67 531 -201zM577 1019
c-54 -74 -80.998 -173.333 -80.998 -298c0 -124 27 -223 81 -297c53.333 -74 124.666 -111 213.999 -111s160.666 37 213.999 111c54 74 81 173 81 297c0 124.667 -27 224 -81 298s-125.333 111 -214 111s-160 -37 -214 -111zM871.002 1555l232 321h348l-274 -321h-306z
M391.002 1555l232 321h348l-274 -321h-306z" />
    <glyph glyph-name="ohungarumlaut" unicode="&#x151;" horiz-adv-x="1278" 
d="M207 125c-105.333 104 -158 250.001 -158 438.001c0 183.333 53.333 327.666 160 432.999c105.333 104 248.333 156 429 156c182 0 325.333 -51.667 430 -155c106 -105.333 159 -250 159 -434c0 -188.667 -52.333 -334.667 -157 -438
c-103.333 -102 -247.333 -153 -432 -153c-184 0 -327.667 51 -431 153zM765 342.001c30.667 52 46 125.333 46 220c0 92.667 -15.667 165.334 -47 218.001c-30.667 52 -72.667 78 -126 78s-95.333 -26 -126 -78c-31.333 -52.667 -47 -125.334 -47 -218.001
c0 -94.667 15.333 -168 46 -220c30 -50.667 72.333 -76 127 -76c54 0 96.333 25.333 127 76zM880 1596h309l-211 -320h-280zM456 1596h308l-211 -320h-280z" />
    <glyph glyph-name="OE" unicode="&#x152;" horiz-adv-x="2216" 
d="M587 1022c-54 -76 -80.998 -176.333 -80.998 -301s27 -225 81 -301c53.333 -75.333 124.666 -113 213.999 -113s160.666 37.667 213.999 113c54 76 81 176.333 81 301s-27 225 -81 301s-125.333 114 -214 114s-160 -38 -214 -114zM1159 244
c-21.333 -81.333 -76 -149 -164 -203c-86.667 -54 -183.334 -81 -290.001 -81c-180 0 -330 71.333 -450 214c-120.667 144 -181 326.333 -181 547c0 222 61 405 183 549c120.667 142 272.334 213 455.001 213c104 0 196 -26 276 -78s137 -124 171 -216v254h958v-337h-594
v-233h557v-304h-557v-232h594v-337h-958v244z" />
    <glyph glyph-name="oe" unicode="&#x153;" horiz-adv-x="1987" 
d="M1185 19c-70.667 32 -123.334 75.666 -158.001 130.999h-20c-86 -118.667 -215.333 -178 -388 -178c-174 0 -312.333 53 -415 159c-103.333 105.333 -155 247.333 -155 426c0 179.333 51.667 323.333 155 432c102.667 108.667 239 163 409 163
c177.333 0 308.333 -59.333 393 -178h20c34.667 54 86.334 97.333 155.001 130c69.333 32 145 48 227 48c156.667 0 283.667 -52.333 381 -157c98 -105.333 147 -241.666 147 -408.999v-111h-725v-44c0 -52 18 -94.333 54 -127c36.667 -33.333 83.667 -50 141 -50
c88.667 0 141.667 29.667 159 89h366c-15.333 -109.333 -70.333 -198.333 -165 -267c-94.667 -69.333 -208.667 -104 -342 -104c-89.333 0 -169 15.667 -239 47zM1547 697.999c-2.66699 52.667 -19.001 94.333 -49.001 125c-29.333 31.333 -67.666 47 -114.999 47
c-48.667 0 -89 -16 -121 -48c-32.667 -32.667 -49.667 -74 -51 -124h336zM493.999 351.998c30 -49.333 71.667 -74 125 -74s95 24.667 125 74c29.333 49.333 44 118.666 44 207.999c0 88.667 -15 158.667 -45 210c-30 50.667 -71.333 76 -124 76s-94 -25.333 -124 -76
c-30 -51.333 -45 -121.666 -45 -210.999c0 -88.667 14.667 -157.667 44 -207z" />
    <glyph glyph-name="Racute" unicode="&#x154;" horiz-adv-x="1395" 
d="M523 764h175c59.333 0 106.333 16.667 141 50c34 33.333 51 77.333 51 132c0 54 -17.667 98 -53 132c-35.333 34.667 -81.333 52 -138 52h-176v-366zM523 0l-424 -0.000976562v1443h641c190.667 0 336 -43 436 -129c98 -84.667 147 -205 147 -361
c0 -87.333 -20 -167.333 -60 -240c-42 -75.333 -99.667 -130.666 -173 -165.999l274 -547h-474l-228 484h-139v-484zM531 1555l232 321h348l-274 -321h-306z" />
    <glyph glyph-name="racute" unicode="&#x155;" horiz-adv-x="868" 
d="M79 1124h400v-220h8c41.333 157.333 129 236 263 236c36 0 68.333 -5.33301 97 -16v-345c-36 15.333 -76.333 23 -121 23c-158 0 -237 -79.333 -237 -238v-564h-410v1124zM274 1275l232 321h347l-265 -321h-314z" />
    <glyph glyph-name="uni0156" unicode="&#x156;" horiz-adv-x="1395" 
d="M523 764h175c59.333 0 106.333 16.667 141 50c34 33.333 51 77.333 51 132c0 54 -17.667 98 -53 132c-35.333 34.667 -81.333 52 -138 52h-176v-366zM523 0l-424 -0.000976562v1443h641c190.667 0 336 -43 436 -129c98 -84.667 147 -205 147 -361
c0 -87.333 -20 -167.333 -60 -240c-42 -75.333 -99.667 -130.666 -173 -165.999l274 -547h-474l-228 484h-139v-484zM360 -457.001l152 321h359l-203 -321h-308z" />
    <glyph glyph-name="uni0157" unicode="&#x157;" horiz-adv-x="868" 
d="M80 1124h400v-220h8c41.333 157.333 129 236 263 236c36 0 68.333 -5.33301 97 -16v-345c-36 15.333 -76.333 23 -121 23c-158 0 -237 -79.333 -237 -238v-564h-410v1124zM-48 -457l152 321h359l-203 -321h-308z" />
    <glyph glyph-name="Rcaron" unicode="&#x158;" horiz-adv-x="1395" 
d="M523 764h175c59.333 0 106.333 16.667 141 50c34 33.333 51 77.333 51 132c0 54 -17.667 98 -53 132c-35.333 34.667 -81.333 52 -138 52h-176v-366zM523 0l-424 -0.000976562v1443h641c190.667 0 336 -43 436 -129c98 -84.667 147 -205 147 -361
c0 -87.333 -20 -167.333 -60 -240c-42 -75.333 -99.667 -130.666 -173 -165.999l274 -547h-474l-228 484h-139v-484zM285 1872h276l132 -192h8l132 192h276l-255 -336h-314z" />
    <glyph glyph-name="rcaron" unicode="&#x159;" horiz-adv-x="868" 
d="M79 1124h400v-220h8c41.333 157.333 129 236 263 236c36 0 68.333 -5.33301 97 -16v-345c-36 15.333 -76.333 23 -121 23c-158 0 -237 -79.333 -237 -238v-564h-410v1124zM282 1256l-255 336h284l124 -180h8l124 180h284l-255 -336h-314z" />
    <glyph glyph-name="Sacute" unicode="&#x15a;" horiz-adv-x="1370" 
d="M460 425c6 -40 31 -73.002 75 -99.002c42.667 -24.667 93 -37 151 -37c62.667 0 112.667 11.333 150 34c36.667 22.667 55 51.667 55 87c0 33.333 -15.333 59 -46 77c-29.333 17.333 -83.333 33 -162 47l-191 34c-132 22.667 -233.333 71 -304 145
c-70 72.667 -105 165.667 -105 279c0 144 56 260 168 348c109.333 85.333 251.333 128 426 128c190 0 338 -41 444 -123c103.333 -80.667 155.666 -191.667 156.999 -333h-387c-1.33301 44 -21.666 79 -60.999 105c-38 25.333 -86.333 38 -145 38
c-55.333 0 -99.333 -10.667 -132 -32s-49 -50 -49 -86c0 -34 15.667 -61 47 -81c30 -20 79.667 -36 149 -48l198 -34c140 -24.667 243.667 -71 311 -139c66.667 -67.333 100 -159.666 100 -276.999c0 -147.333 -57 -264.666 -171 -351.999
c-114.667 -87.333 -268 -131 -460 -131c-194.667 0 -346 39 -454 117c-109.333 78.667 -164.333 189.667 -165 333h401zM518 1555l232 321h348l-274 -321h-306z" />
    <glyph glyph-name="sacute" unicode="&#x15b;" horiz-adv-x="1172" 
d="M199 1051c92.667 67.333 220.336 101 383.003 101s290 -34.333 382 -103c92.667 -69.333 139 -165 139 -287h-372c-0.666992 37.333 -14.667 66.666 -42 87.999c-27.333 22 -64 33 -110 33c-38.667 0 -69.334 -7.33301 -92.001 -22c-23.333 -14.667 -35 -34 -35 -58
c0 -36.667 37 -62 111 -76l251 -50c111.333 -22 193 -57.667 245 -107c51.333 -50 77 -117.667 77 -203c0 -120.667 -50 -217 -150 -289c-98.667 -70.667 -230.334 -106 -395.001 -106c-171.333 0 -306 35.333 -404 106c-94.667 68.667 -145.667 163.667 -153 285h396
c4.66699 -38 21.667 -67.667 51 -89c29.333 -22 67.666 -33 114.999 -33c89.333 0 134 25.667 134 77c0 34.667 -36 59 -108 73l-216 43c-231.333 46 -347 160 -347 342c0 116.667 46.667 208.334 140 275.001zM420.002 1275l232 321h347l-265 -321h-314z" />
    <glyph glyph-name="Scircumflex" unicode="&#x15c;" horiz-adv-x="1370" 
d="M460 425c6 -40 31 -73.002 75 -99.002c42.667 -24.667 93 -37 151 -37c62.667 0 112.667 11.333 150 34c36.667 22.667 55 51.667 55 87c0 33.333 -15.333 59 -46 77c-29.333 17.333 -83.333 33 -162 47l-191 34c-132 22.667 -233.333 71 -304 145
c-70 72.667 -105 165.667 -105 279c0 144 56 260 168 348c109.333 85.333 251.333 128 426 128c190 0 338 -41 444 -123c103.333 -80.667 155.666 -191.667 156.999 -333h-387c-1.33301 44 -21.666 79 -60.999 105c-38 25.333 -86.333 38 -145 38
c-55.333 0 -99.333 -10.667 -132 -32s-49 -50 -49 -86c0 -34 15.667 -61 47 -81c30 -20 79.667 -36 149 -48l198 -34c140 -24.667 243.667 -71 311 -139c66.667 -67.333 100 -159.666 100 -276.999c0 -147.333 -57 -264.666 -171 -351.999
c-114.667 -87.333 -268 -131 -460 -131c-194.667 0 -346 39 -454 117c-109.333 78.667 -164.333 189.667 -165 333h401zM841 1872l255 -336h-276l-132 192h-8l-132 -192h-276l255 336h314z" />
    <glyph glyph-name="scircumflex" unicode="&#x15d;" horiz-adv-x="1172" 
d="M199 1051c92.667 67.333 220.336 101 383.003 101s290 -34.333 382 -103c92.667 -69.333 139 -165 139 -287h-372c-0.666992 37.333 -14.667 66.666 -42 87.999c-27.333 22 -64 33 -110 33c-38.667 0 -69.334 -7.33301 -92.001 -22c-23.333 -14.667 -35 -34 -35 -58
c0 -36.667 37 -62 111 -76l251 -50c111.333 -22 193 -57.667 245 -107c51.333 -50 77 -117.667 77 -203c0 -120.667 -50 -217 -150 -289c-98.667 -70.667 -230.334 -106 -395.001 -106c-171.333 0 -306 35.333 -404 106c-94.667 68.667 -145.667 163.667 -153 285h396
c4.66699 -38 21.667 -67.667 51 -89c29.333 -22 67.666 -33 114.999 -33c89.333 0 134 25.667 134 77c0 34.667 -36 59 -108 73l-216 43c-231.333 46 -347 160 -347 342c0 116.667 46.667 208.334 140 275.001zM997.002 1256h-284l-124 180h-8l-124 -180h-284l255 336h314z
" />
    <glyph glyph-name="Scedilla" unicode="&#x15e;" horiz-adv-x="1370" 
d="M898 874c140 -24.667 243.668 -71 311.001 -139c66.667 -67.333 100 -159.666 100 -276.999c0 -132 -46.667 -240.333 -140 -325c-92.667 -84.667 -219 -135.334 -379 -152.001l-36 -70c48 0 87 -15.333 117 -46s45 -71.334 45 -122.001c0 -130 -87.667 -195 -263 -195
c-62.667 0 -107 5 -133 15v141c25.333 -8 58.333 -12 99 -12c62.667 0 94 12.333 94 37c0 17.333 -7.33301 29.333 -22 36s-40.667 10 -78 10h-56v127l42 75c-170.667 10.667 -303 54.334 -397 131.001c-94.667 78 -142.334 183.667 -143.001 317h401c6 -40 31 -73 75 -99
c42.667 -24.667 93 -37 151 -37c62.667 0 112.667 11.333 150 34c36.667 22.667 55 51.667 55 87c0 33.333 -15.333 59 -46 77c-29.333 17.333 -83.333 33 -162 47l-191 34c-132 22.667 -233.333 71 -304 145c-70 72.667 -105 165.667 -105 279c0 144 56 260 168 348
c109.333 85.333 251.333 128 426 128c190 0 338 -41 444 -123c103.333 -80.667 155.666 -191.667 156.999 -333h-387c-1.33301 44 -21.666 79 -60.999 105c-38 25.333 -86.333 38 -145 38c-55.333 0 -99.333 -10.667 -132 -32s-49 -50 -49 -86c0 -34 15.667 -61 47 -81
c30 -20 79.667 -36 149 -48z" />
    <glyph glyph-name="scedilla" unicode="&#x15f;" horiz-adv-x="1172" 
d="M814 677c111.333 -22 193.001 -57.666 245.001 -106.999c51.333 -50 77 -117.667 77 -203c0 -108 -40.333 -197 -121 -267c-80 -68.667 -188.667 -109.667 -326 -123l-34 -66c48 0 87 -15.333 117 -46s45 -71.334 45 -122.001c0 -130 -87.667 -195 -263 -195
c-62.667 0 -107 5 -133 15v141c25.333 -8 58.333 -12 99 -12c62.667 0 94 12.333 94 37c0 17.333 -7.33301 29.333 -22 36s-40.667 10 -78 10h-56v127l41 74c-143.333 12.667 -255.333 53.334 -336 122.001c-79.333 67.333 -122.333 155.666 -129 264.999h396
c4.66699 -38 21.667 -67.667 51 -89c29.333 -22 67.666 -33 114.999 -33c89.333 0 134 25.667 134 77c0 34.667 -36 59 -108 73l-216 43c-231.333 46 -347 160 -347 342c0 116.667 46.667 208.334 140 275.001c92.667 67.333 220.334 101 383.001 101s290 -34.333 382 -103
c92.667 -69.333 139 -165 139 -287h-372c-0.666992 37.333 -14.667 66.666 -42 87.999c-27.333 22 -64 33 -110 33c-38.667 0 -69.334 -7.33301 -92.001 -22c-23.333 -14.667 -35 -34 -35 -58c0 -36.667 37 -62 111 -76z" />
    <glyph glyph-name="Scaron" unicode="&#x160;" horiz-adv-x="1370" 
d="M460 425c6 -40 31 -73.002 75 -99.002c42.667 -24.667 93 -37 151 -37c62.667 0 112.667 11.333 150 34c36.667 22.667 55 51.667 55 87c0 33.333 -15.333 59 -46 77c-29.333 17.333 -83.333 33 -162 47l-191 34c-132 22.667 -233.333 71 -304 145
c-70 72.667 -105 165.667 -105 279c0 144 56 260 168 348c109.333 85.333 251.333 128 426 128c190 0 338 -41 444 -123c103.333 -80.667 155.666 -191.667 156.999 -333h-387c-1.33301 44 -21.666 79 -60.999 105c-38 25.333 -86.333 38 -145 38
c-55.333 0 -99.333 -10.667 -132 -32s-49 -50 -49 -86c0 -34 15.667 -61 47 -81c30 -20 79.667 -36 149 -48l198 -34c140 -24.667 243.667 -71 311 -139c66.667 -67.333 100 -159.666 100 -276.999c0 -147.333 -57 -264.666 -171 -351.999
c-114.667 -87.333 -268 -131 -460 -131c-194.667 0 -346 39 -454 117c-109.333 78.667 -164.333 189.667 -165 333h401zM272 1872h276l132 -192h8l132 192h276l-255 -336h-314z" />
    <glyph glyph-name="scaron" unicode="&#x161;" horiz-adv-x="1172" 
d="M199 1051c92.667 67.333 220.336 101 383.003 101s290 -34.333 382 -103c92.667 -69.333 139 -165 139 -287h-372c-0.666992 37.333 -14.667 66.666 -42 87.999c-27.333 22 -64 33 -110 33c-38.667 0 -69.334 -7.33301 -92.001 -22c-23.333 -14.667 -35 -34 -35 -58
c0 -36.667 37 -62 111 -76l251 -50c111.333 -22 193 -57.667 245 -107c51.333 -50 77 -117.667 77 -203c0 -120.667 -50 -217 -150 -289c-98.667 -70.667 -230.334 -106 -395.001 -106c-171.333 0 -306 35.333 -404 106c-94.667 68.667 -145.667 163.667 -153 285h396
c4.66699 -38 21.667 -67.667 51 -89c29.333 -22 67.666 -33 114.999 -33c89.333 0 134 25.667 134 77c0 34.667 -36 59 -108 73l-216 43c-231.333 46 -347 160 -347 342c0 116.667 46.667 208.334 140 275.001zM428.002 1256l-255 336h284l124 -180h8l124 180h284l-255 -336
h-314z" />
    <glyph glyph-name="uni0162" unicode="&#x162;" horiz-adv-x="1274" 
d="M752 0l-46 -88.999c48 0 87 -15.333 117 -46s45 -71.334 45 -122.001c0 -130 -87.667 -195 -263 -195c-62.667 0 -107 5 -133 15v141c25.333 -8 58.333 -12 99 -12c62.667 0 94 12.333 94 37c0 17.333 -7.33301 29.333 -22 36s-40.667 10 -78 10h-56v127l54 98h-139v1106
h-380v337h1184v-337h-380v-1106h-96z" />
    <glyph glyph-name="uni0163" unicode="&#x163;" horiz-adv-x="847" 
d="M588 826l0.000976562 -422.998c0 -72 42.333 -108 127 -108c27.333 0 51 1.66699 71 5v-285c-48.667 -10 -105.334 -15 -170.001 -15l-46 -89c48 0 87 -15.333 117 -46s45 -71.334 45 -122.001c0 -130 -87.667 -195 -263 -195c-62.667 0 -107 5 -133 15v141
c25.333 -8 58.333 -12 99 -12c62.667 0 94 12.333 94 37c0 17.333 -7.33301 29.333 -22 36s-40.667 10 -78 10h-56v127l62 112c-90 16.667 -155.667 49 -197 97c-40 47.333 -60 114.666 -60 201.999v513h-149v298h149v247h410v-247h198v-298h-198z" />
    <glyph glyph-name="Tcaron" unicode="&#x164;" horiz-adv-x="1274" 
d="M424 0v1106h-380v337h1184v-337h-380v-1106h-424zM224 1872h276l132 -192h8l132 192h276l-255 -336h-314z" />
    <glyph glyph-name="tcaron" unicode="&#x165;" horiz-adv-x="947" 
d="M1028 1768l-50 -518h-243v518h293zM588 1371l0.000976562 -247h198v-298h-198v-423c0 -72 42.333 -108 127 -108c27.333 0 51 1.66699 71 5v-285c-48.667 -10 -105.334 -15 -170.001 -15c-156.667 -0 -269 24.333 -337 73c-67.333 48.667 -101 128.667 -101 240v513h-149
v298h149v247h410z" />
    <glyph glyph-name="Tbar" unicode="&#x166;" horiz-adv-x="1345" 
d="M868 1106v-299h277v-279h-277v-528h-424v528h-245v279h245v299h-380v337h1184v-337h-380z" />
    <glyph glyph-name="tbar" unicode="&#x167;" horiz-adv-x="947" 
d="M588 490l0.000976562 -87c0 -72 42.333 -108 127 -108c27.333 0 51 1.66699 71 5v-285c-48.667 -10 -105.334 -15 -170.001 -15c-156.667 -0 -269 24.333 -337 73c-67.333 48.667 -101 128.667 -101 240v177h-128v176h128v160h-149v298h149v247h410v-247h198v-298h-198
v-160h252v-176h-252z" />
    <glyph glyph-name="Utilde" unicode="&#x168;" horiz-adv-x="1472" 
d="M523 561c0 -76 18.333 -134 55 -174c36 -40.667 88.333 -61 157 -61s121 20.333 157 61c36.667 40 55 98 55 174v882h424v-929c0 -164 -58.333 -295 -175 -393c-116 -97.333 -269.667 -146 -461 -146s-345 48.667 -461 146c-116.667 98 -175 229 -175 393v929h424v-882z
M725 1606c-53.333 39.333 -88.333 59 -105 59c-42 0 -65 -33.667 -69 -101h-201c0 90 25 162.333 75 217c47.333 50.667 106 76 176 76c55.333 0 109.666 -19.667 162.999 -59c53.333 -40 88.333 -60 105 -60c42.667 0 65.667 35.333 69 106h201c0 -90 -25 -163 -75 -219
c-47.333 -52.667 -106 -79 -176 -79c-55.333 0 -109.666 20 -162.999 60z" />
    <glyph glyph-name="utilde" unicode="&#x169;" horiz-adv-x="1319" 
d="M1238 0h-400v220h-8c-22.667 -76 -63.667 -135.333 -123 -178c-60 -42.667 -132 -64 -216 -64c-123.333 0 -223 37.333 -299 112c-78.667 78 -118 182.333 -118 313v721h410v-629c0 -58.667 16.667 -104.667 50 -138c31.333 -32 73 -48 125 -48c48.667 0 89 17 121 51
c32 34.667 48 79.667 48 135v629h410v-1124zM649 1318c-53.333 39.333 -88.333 59 -105 59c-42 0 -65 -33.667 -69 -101h-201c0 90 25 162.333 75 217c47.333 50.667 106 76 176 76c55.333 0 109.666 -19.667 162.999 -59c53.333 -40 88.333 -60 105 -60
c42.667 0 65.667 35.333 69 106h201c0 -90 -25 -163 -75 -219c-47.333 -52.667 -106 -79 -176 -79c-55.333 0 -109.666 20 -162.999 60z" />
    <glyph glyph-name="Umacron" unicode="&#x16a;" horiz-adv-x="1472" 
d="M523 561c0 -76 18.333 -134 55 -174c36 -40.667 88.333 -61 157 -61s121 20.333 157 61c36.667 40 55 98 55 174v882h424v-929c0 -164 -58.333 -295 -175 -393c-116 -97.333 -269.667 -146 -461 -146s-345 48.667 -461 146c-116.667 98 -175 229 -175 393v929h424v-882z
M1109 1606h-748v180h748v-180z" />
    <glyph glyph-name="umacron" unicode="&#x16b;" horiz-adv-x="1319" 
d="M1238 0h-400v220h-8c-22.667 -76 -63.667 -135.333 -123 -178c-60 -42.667 -132 -64 -216 -64c-123.333 0 -223 37.333 -299 112c-78.667 78 -118 182.333 -118 313v721h410v-629c0 -58.667 16.667 -104.667 50 -138c31.333 -32 73 -48 125 -48c48.667 0 89 17 121 51
c32 34.667 48 79.667 48 135v629h410v-1124zM1011 1276h-704v180h704v-180z" />
    <glyph glyph-name="Ubreve" unicode="&#x16c;" horiz-adv-x="1472" 
d="M523 561c0 -76 18.333 -134 55 -174c36 -40.667 88.333 -61 157 -61s121 20.333 157 61c36.667 40 55 98 55 174v882h424v-929c0 -164 -58.333 -295 -175 -393c-116 -97.333 -269.667 -146 -461 -146s-345 48.667 -461 146c-116.667 98 -175 229 -175 393v929h424v-882z
M576 1870c2 -44.667 16.668 -80 44.001 -106c28 -28 66.333 -42 115 -42s87.334 14 116.001 42c26.667 26 41 61.333 43 106h236c-3.33301 -94.667 -38.333 -172.667 -105 -234c-72.667 -66.667 -169.334 -100 -290.001 -100s-217.334 33.333 -290.001 100
c-66.667 61.333 -101.667 139.333 -105 234h236z" />
    <glyph glyph-name="ubreve" unicode="&#x16d;" horiz-adv-x="1319" 
d="M1238 0h-400v220h-8c-22.667 -76 -63.667 -135.333 -123 -178c-60 -42.667 -132 -64 -216 -64c-123.333 0 -223 37.333 -299 112c-78.667 78 -118 182.333 -118 313v721h410v-629c0 -58.667 16.667 -104.667 50 -138c31.333 -32 73 -48 125 -48c48.667 0 89 17 121 51
c32 34.667 48 79.667 48 135v629h410v-1124zM500 1590c2 -44.667 16.668 -80 44.001 -106c28 -28 66.333 -42 115 -42s87.334 14 116.001 42c26.667 26 41 61.333 43 106h236c-3.33301 -94.667 -38.333 -172.667 -105 -234c-72.667 -66.667 -169.334 -100 -290.001 -100
s-217.334 33.333 -290.001 100c-66.667 61.333 -101.667 139.333 -105 234h236z" />
    <glyph glyph-name="Uring" unicode="&#x16e;" horiz-adv-x="1472" 
d="M523 561c0 -76 18.333 -134 55 -174c36 -40.667 88.333 -61 157 -61s121 20.333 157 61c36.667 40 55 98 55 174v882h424v-929c0 -164 -58.333 -295 -175 -393c-116 -97.333 -269.667 -146 -461 -146s-345 48.667 -461 146c-116.667 98 -175 229 -175 393v929h424v-882z
M564 1586c-48.667 46.667 -73 102 -73 166c0 64.667 24.333 120.334 73 167.001c48 46 105 69 171 69s123 -23 171 -69c48 -46.667 72 -102.334 72 -167.001s-24 -120 -72 -166s-105 -69 -171 -69s-123 23 -171 69zM797 1693c17.333 16.667 26 36.334 26 59.001
c0 23.333 -8.66699 43.666 -26 60.999c-18 16.667 -38.667 25 -62 25s-44 -8.33301 -62 -25c-17.333 -17.333 -26 -37.666 -26 -60.999c0 -22.667 8.66699 -42.334 26 -59.001c18 -16.667 38.667 -25 62 -25s44 8.33301 62 25z" />
    <glyph glyph-name="uring" unicode="&#x16f;" horiz-adv-x="1319" 
d="M1238 0h-400v220h-8c-22.667 -76 -63.667 -135.333 -123 -178c-60 -42.667 -132 -64 -216 -64c-123.333 0 -223 37.333 -299 112c-78.667 78 -118 182.333 -118 313v721h410v-629c0 -58.667 16.667 -104.667 50 -138c31.333 -32 73 -48 125 -48c48.667 0 89 17 121 51
c32 34.667 48 79.667 48 135v629h410v-1124zM488 1304c-48.667 46.667 -73 102 -73 166c0 64.667 24.333 120.334 73 167.001c48 46 105 69 171 69s123 -23 171 -69c48 -46.667 72 -102.334 72 -167.001s-24 -120 -72 -166s-105 -69 -171 -69s-123 23 -171 69zM721 1411
c17.333 16.667 26 36.334 26 59.001c0 23.333 -8.66699 43.666 -26 60.999c-18 16.667 -38.667 25 -62 25s-44 -8.33301 -62 -25c-17.333 -17.333 -26 -37.666 -26 -60.999c0 -22.667 8.66699 -42.334 26 -59.001c18 -16.667 38.667 -25 62 -25s44 8.33301 62 25z" />
    <glyph glyph-name="Uhungarumlaut" unicode="&#x170;" horiz-adv-x="1472" 
d="M523 561c0 -76 18.333 -134 55 -174c36 -40.667 88.333 -61 157 -61s121 20.333 157 61c36.667 40 55 98 55 174v882h424v-929c0 -164 -58.333 -295 -175 -393c-116 -97.333 -269.667 -146 -461 -146s-345 48.667 -461 146c-116.667 98 -175 229 -175 393v929h424v-882z
M815 1555l232 321h348l-274 -321h-306zM335 1555l232 321h348l-274 -321h-306z" />
    <glyph glyph-name="uhungarumlaut" unicode="&#x171;" horiz-adv-x="1319" 
d="M1238 0h-400v220h-8c-22.667 -76 -63.667 -135.333 -123 -178c-60 -42.667 -132 -64 -216 -64c-123.333 0 -223 37.333 -299 112c-78.667 78 -118 182.333 -118 313v721h410v-629c0 -58.667 16.667 -104.667 50 -138c31.333 -32 73 -48 125 -48c48.667 0 89 17 121 51
c32 34.667 48 79.667 48 135v629h410v-1124zM901 1596h309l-211 -320h-280zM477 1596h308l-211 -320h-280z" />
    <glyph glyph-name="Uogonek" unicode="&#x172;" horiz-adv-x="1472" 
d="M729 -423c-47.333 37.333 -71 87.999 -71 151.999c0 98.667 50.333 181 151 247c-4 -0.666992 -28.667 -1 -74 -1c-192.667 0 -346.667 49 -462 147c-116 98 -174 228.667 -174 392v929h424v-882c0 -76 18.333 -134 55 -174c36 -40.667 88.333 -61 157 -61
s121 20.333 157 61c36.667 40 55 98 55 174v882h424v-929c0 -178 -79.333 -326.333 -238 -445c-10.667 -8 -39.667 -28.667 -87 -62c-34 -23.333 -59.667 -42.666 -77 -57.999c-49.333 -43.333 -74 -88.333 -74 -135c0 -28 10.333 -50.333 31 -67
c20 -17.333 47.333 -26 82 -26c22 0 46 2.66699 72 8v-185c-40 -15.333 -92.333 -23 -157 -23c-81.333 0 -146 18.667 -194 56z" />
    <glyph glyph-name="uogonek" unicode="&#x173;" horiz-adv-x="1319" 
d="M1238 -451c-40 -15.333 -92.333 -23.001 -157 -23.001c-78 0 -141.667 21.333 -191 64c-49.333 42 -74 96.667 -74 164c0 102.667 55.333 184.667 166 246h-144v220h-8c-22.667 -76 -63.667 -135.333 -123 -178c-60 -42.667 -132 -64 -216 -64
c-125.333 0 -226.333 39 -303 117c-76 77.333 -114 180 -114 308v721h410v-629c0 -56.667 15.667 -102 47 -136c32 -33.333 74.667 -50 128 -50c49.333 0 90 17.333 122 52c31.333 34.667 47 79.334 47 134.001v629h410v-1124h-58c-84.667 -47.333 -127 -105.333 -127 -174
c0 -29.333 10.667 -53.333 32 -72c20.667 -18.667 47.667 -28 81 -28c21.333 0 45.333 2.66699 72 8v-185z" />
    <glyph glyph-name="Wcircumflex" unicode="&#x174;" horiz-adv-x="2062" 
d="M811 0h-400l-372 1443h438l166 -912h8l215 912h328l215 -912h8l166 912h438l-372 -1443h-400l-215 826h-8zM1187 1872l255 -336h-276l-132 192h-8l-132 -192h-276l255 336h314z" />
    <glyph glyph-name="wcircumflex" unicode="&#x175;" horiz-adv-x="1796" 
d="M1502 0h-445l-159 729h-8l-157 -729h-437l-286 1124h415l122 -764h8l151 764h391l154 -764h8l122 764h405zM1310 1256h-284l-124 180h-8l-124 -180h-284l255 336h314z" />
    <glyph glyph-name="Ycircumflex" unicode="&#x176;" horiz-adv-x="1470" 
d="M522 0v457l-493 986h453l253 -585h8l253 585h443l-493 -986v-457h-424zM891 1872l255 -336h-276l-132 192h-8l-132 -192h-276l255 336h314z" />
    <glyph glyph-name="ycircumflex" unicode="&#x177;" horiz-adv-x="1246" 
d="M122 -412l-0.000976562 305.999h60c126 0 190 24.667 192 74v20l-374 1136h455l175 -828h8l175 828h433l-339 -1101c-48 -155.333 -121.667 -266.666 -221 -333.999s-238.666 -101 -417.999 -101h-146zM1035 1256h-284l-124 180h-8l-124 -180h-284l255 336h314z" />
    <glyph glyph-name="Ydieresis" unicode="&#x178;" horiz-adv-x="1470" 
d="M522 0v457l-493 986h453l253 -585h8l253 585h443l-493 -986v-457h-424zM399 1580c-30 29.333 -45 64.666 -45 105.999c0 42 15 77.333 45 106c30 29.333 67.667 44 113 44s83.333 -14.667 114 -44c29.333 -28.667 44 -64 44 -106c0 -41.333 -14.667 -76.666 -44 -105.999
c-30.667 -29.333 -68.667 -44 -114 -44s-83 14.667 -113 44zM843 1580c-30 29.333 -45 64.666 -45 105.999c0 42 15 77.333 45 106c30 29.333 67.667 44 113 44s83.333 -14.667 114 -44c29.333 -28.667 44 -64 44 -106c0 -41.333 -14.667 -76.666 -44 -105.999
c-30.667 -29.333 -68.667 -44 -114 -44s-83 14.667 -113 44z" />
    <glyph glyph-name="Zacute" unicode="&#x179;" horiz-adv-x="1321" 
d="M79 266l643 832v8h-637v337h1131v-265l-641 -833v-8h665v-337h-1161v266zM494 1555l232 321h348l-274 -321h-306z" />
    <glyph glyph-name="zacute" unicode="&#x17a;" horiz-adv-x="1128" 
d="M59 209l506 603v8h-490v304h970v-244l-446 -568v-8h468v-304h-1008v209zM398 1275l232 321h347l-265 -321h-314z" />
    <glyph glyph-name="Zdotaccent" unicode="&#x17b;" horiz-adv-x="1321" 
d="M79 266l643 832v8h-637v337h1131v-265l-641 -833v-8h665v-337h-1161v266zM534 1588c-34 34.667 -51 76.334 -51 125.001s17 90 51 124c34 34.667 76 52 126 52s92 -17.333 126 -52c34 -34 51 -75.333 51 -124s-17 -90.334 -51 -125.001
c-34.667 -34.667 -76.667 -52 -126 -52s-91.333 17.333 -126 52z" />
    <glyph glyph-name="zdotaccent" unicode="&#x17c;" horiz-adv-x="1128" 
d="M59 209l506 603v8h-490v304h970v-244l-446 -568v-8h468v-304h-1008v209zM435 1315c-34 33.333 -51 74 -51 122s17 88.667 51 122c34 34 76 51 126 51s92 -17 126 -51c34 -33.333 51 -74 51 -122s-17 -88.667 -51 -122c-34 -34 -76 -51 -126 -51s-92 17 -126 51z" />
    <glyph glyph-name="Zcaron" unicode="&#x17d;" horiz-adv-x="1321" 
d="M79 266l643 832v8h-637v337h1131v-265l-641 -833v-8h665v-337h-1161v266zM248 1872h276l132 -192h8l132 192h276l-255 -336h-314z" />
    <glyph glyph-name="zcaron" unicode="&#x17e;" horiz-adv-x="1128" 
d="M59 209l506 603v8h-490v304h970v-244l-446 -568v-8h468v-304h-1008v209zM406 1256l-255 336h284l124 -180h8l124 180h284l-255 -336h-314z" />
    <glyph glyph-name="florin" unicode="&#x192;" horiz-adv-x="1413" 
d="M1316 1111c-42 19.333 -91.666 29 -148.999 29c-116 0 -184.333 -61.333 -205 -184l-14 -86h329v-276h-376l-28 -169c-26 -156 -86 -270.333 -180 -343c-91.333 -70.667 -219 -106 -383 -106c-96 0 -167.667 11 -215 33v311c46.667 -21.333 98.667 -32 156 -32
c59.333 0 104.666 14.333 135.999 43c30.667 28.667 51.667 75.667 63 141l20 122h-297v276h343l23 136c26.667 156.667 86 270 178 340c91.333 70.667 226.333 106 405 106c85.333 0 150 -10.333 194 -31v-310z" />
    <glyph glyph-name="Ohorn" unicode="&#x1a0;" horiz-adv-x="1653" 
d="M577 1019c-54 -74 -80.998 -173.333 -80.998 -298c0 -124 27 -223 81 -297c53.333 -74 124.666 -111 213.999 -111s160.666 37 213.999 111c54 74 81 173 81 297c0 124.667 -27 224 -81 298s-125.333 111 -214 111s-160 -37 -214 -111zM1320 176
c-132 -134 -308.667 -201 -530 -201c-222 0 -398.333 67.333 -529 202s-196 316.667 -196 546c0 227.333 64.333 408.333 193 543c129.333 134.667 302.666 202 519.999 202c106 0 211 -19.333 315 -58s168.333 -58 193 -58c53.333 0 80 27.667 80 83v205h303v-336
c0 -55.333 -15.333 -100.333 -46 -135c-30 -34 -69.667 -51 -119 -51c-27.333 0 -48.666 3.33301 -63.999 10l-5 -7c55.333 -96 83 -232 83 -408c0 -224.667 -66 -403.667 -198 -537z" />
    <glyph glyph-name="ohorn" unicode="&#x1a1;" horiz-adv-x="1400" 
d="M765 344c30.667 52 45.9971 124.667 45.9971 218c0 92 -15.333 164.333 -46 217c-31.333 52.667 -73.666 79 -126.999 79s-95.666 -26.333 -126.999 -79c-30.667 -52.667 -46 -125 -46 -217c0 -94 15 -166.667 45 -218c30.667 -52 73.334 -78 128.001 -78s97 26 127 78z
M1071 125c-104 -102 -249.667 -153.001 -437 -153.001c-182 0 -325 51.667 -429 155s-156 245.333 -156 426c0 181.333 51.333 326.333 154 435c103.333 109.333 240.666 164 411.999 164c106.667 0 209.334 -25.333 308.001 -76c99.333 -51.333 157 -77 173 -77
c46.667 0 70 28 70 84v133h285v-198c0 -84.667 -18.667 -150.667 -56 -198c-38 -47.333 -90.333 -71 -157 -71c-12 0 -24 1 -36 3l-7 -9c21.333 -66 32 -129.667 32 -191c0 -183.333 -52 -325.666 -156 -426.999z" />
    <glyph glyph-name="Uhorn" unicode="&#x1af;" horiz-adv-x="1654" 
d="M1375 1443c26.667 0 45.333 3.66602 56 10.999c13.333 8 20 32.333 20 73v139h286v-204c0 -193.333 -95.333 -290 -286 -290h-80v-658c0 -163.333 -58 -294 -174 -392c-115.333 -98 -269.333 -147 -462 -147c-192 0 -346 49 -462 147
c-116 98.667 -174 229.334 -174 392.001v929h424v-882c0 -75.333 18.333 -133.333 55 -174c36 -40 88.333 -60 157 -60c141.333 0 212 78 212 234v882h428z" />
    <glyph glyph-name="uhorn" unicode="&#x1b0;" horiz-adv-x="1502" 
d="M830 220c-22.667 -76 -63.667 -135.334 -123 -178.001c-60 -42.667 -132 -64 -216 -64c-125.333 0 -226.333 39 -303 117c-76 77.333 -114 180 -114 308v721h410v-629c0 -56.667 15.667 -102 47 -136c32 -33.333 74.667 -50 128 -50c49.333 0 90 17.333 122 52
c31.333 34.667 47 79.334 47 134.001v629h410c30 0 50.333 5.33301 61 16c10 9.33301 15 32 15 68v138h285v-197c0 -100 -21.333 -173.667 -64 -221c-42 -47.333 -107.667 -71 -197 -71h-100v-857h-400v220h-8z" />
    <glyph glyph-name="uni01C4" unicode="&#x1c4;" horiz-adv-x="2798" 
d="M716 1443c220.667 0 391.333 -60.667 512 -182c122 -123.333 183 -299.666 183 -528.999c0 -230.667 -61.333 -410.334 -184 -539.001c-122 -128.667 -292.333 -193 -511 -193h-617v1443h617zM522.999 337l133 -0.000976562c215.333 0 323 131.667 323 395
c0 120.667 -28.333 213.334 -85 278.001c-56 64 -135.333 96 -238 96h-133v-769zM1556 265.999l643 832v8h-637v337h1131v-265l-641 -833v-8h665v-337h-1161v266zM1725 1872h276l132 -192h8l132 192h276l-255 -336h-314z" />
    <glyph glyph-name="uni01C5" unicode="&#x1c5;" horiz-adv-x="2605" 
d="M716 1443c220.667 0 391.333 -60.667 512 -182c122 -123.333 183 -299.666 183 -528.999c0 -230.667 -61.333 -410.334 -184 -539.001c-122 -128.667 -292.333 -193 -511 -193h-617v1443h617zM522.999 337l133 -0.000976562c215.333 0 323 131.667 323 395
c0 120.667 -28.333 213.334 -85 278.001c-56 64 -135.333 96 -238 96h-133v-769zM1536 208.999l506 603v8h-490v304h970v-244l-446 -568v-8h468v-304h-1008v209zM1883 1256l-255 336h284l124 -180h8l124 180h284l-255 -336h-314z" />
    <glyph glyph-name="uni01C6" unicode="&#x1c6;" horiz-adv-x="2453" 
d="M165 137c-77.333 102.667 -116 245.334 -116 428.001c0 180.667 39.333 321.667 118 423s188 152 328 152c80 0 150.333 -20.667 211 -62c57.333 -39.333 97.333 -91.333 120 -156h8v596h410v-1518h-410v194h-8c-19.333 -60.667 -59.333 -110.334 -120 -149.001
c-62.667 -40.667 -135 -61 -217 -61c-138.667 0 -246.667 51 -324 153zM518 753c-32.667 -46 -48.999 -109.667 -48.999 -191c0 -82 16 -146 48 -192c32.667 -46 77.667 -69 135 -69c58 0 103.333 23 136 69c32 45.333 48 109 48 191c0 81.333 -16.333 145.333 -49 192
s-77.667 70 -135 70c-56.667 0 -101.334 -23.333 -134.001 -70zM1384 209l506 603v8h-490v304h970v-244l-446 -568v-8h468v-304h-1008v209zM1731 1256l-255 336h284l124 -180h8l124 180h284l-255 -336h-314z" />
    <glyph glyph-name="uni01C7" unicode="&#x1c7;" horiz-adv-x="2421" 
d="M1089 0h-990v1443h424v-1106h566v-337zM1575 511c0 -56.667 13.999 -101 41.999 -133c27.333 -32 65.333 -48 114 -48c95.333 0 143 58 143 174v939h424v-942c0 -168 -49.667 -298 -149 -390c-98 -90.667 -235.333 -136 -412 -136
c-175.333 0 -313.666 47.667 -414.999 143c-102 95.333 -153 226.333 -153 393h406z" />
    <glyph glyph-name="uni01C8" unicode="&#x1c8;" horiz-adv-x="1720" 
d="M1089 0h-990v1443h424v-1106h566v-337zM1639 7c0 -114 -39.666 -202.667 -118.999 -266c-78.667 -63.333 -189.334 -95 -332.001 -95c-51.333 0 -93 2 -125 6v286c12 -2 27.667 -3 47 -3c79.333 0 119 30 119 90v1099h410v-1117zM1289 1245c-40 37.333 -60 84 -60 140
s20 102.667 60 140c39.333 36.667 87.666 55 144.999 55s105.666 -18.333 144.999 -55c40 -37.333 60 -84 60 -140s-20 -102.667 -60 -140c-39.333 -36.667 -87.666 -55 -144.999 -55s-105.666 18.333 -144.999 55z" />
    <glyph glyph-name="uni01C9" unicode="&#x1c9;" horiz-adv-x="1150" 
d="M84 1518h410v-1518h-410v1518zM1069 7c0 -114 -39.666 -202.667 -118.999 -266c-78.667 -63.333 -189.334 -95 -332.001 -95c-51.333 0 -93 2 -125 6v286c12 -2 27.667 -3 47 -3c79.333 0 119 30 119 90v1099h410v-1117zM719.001 1245c-40 37.333 -60 84 -60 140
s20 102.667 60 140c39.333 36.667 87.666 55 144.999 55s105.666 -18.333 144.999 -55c40 -37.333 60 -84 60 -140s-20 -102.667 -60 -140c-39.333 -36.667 -87.666 -55 -144.999 -55s-105.666 18.333 -144.999 55z" />
    <glyph glyph-name="uni01CA" unicode="&#x1ca;" horiz-adv-x="2765" 
d="M99 0v1443h329l557 -748h8v748h400v-1443h-325l-561 760h-8v-760h-400zM1919 511c0 -56.667 13.999 -101 41.999 -133c27.333 -32 65.333 -48 114 -48c95.333 0 143 58 143 174v939h424v-942c0 -168 -49.667 -298 -149 -390c-98 -90.667 -235.333 -136 -412 -136
c-175.333 0 -313.666 47.667 -414.999 143c-102 95.333 -153 226.333 -153 393h406z" />
    <glyph glyph-name="uni01CB" unicode="&#x1cb;" horiz-adv-x="2064" 
d="M99 0v1443h329l557 -748h8v748h400v-1443h-325l-561 760h-8v-760h-400zM1983 7c0 -114 -39.666 -202.667 -118.999 -266c-78.667 -63.333 -189.334 -95 -332.001 -95c-51.333 0 -93 2 -125 6v286c12 -2 27.667 -3 47 -3c79.333 0 119 30 119 90v1099h410v-1117z
M1633 1245c-40 37.333 -60 84 -60 140s20 102.667 60 140c39.333 36.667 87.666 55 144.999 55s105.666 -18.333 144.999 -55c40 -37.333 60 -84 60 -140s-20 -102.667 -60 -140c-39.333 -36.667 -87.666 -55 -144.999 -55s-105.666 18.333 -144.999 55z" />
    <glyph glyph-name="uni01CC" unicode="&#x1cc;" horiz-adv-x="1889" 
d="M79 1124l400.001 0.000976562v-220h8c58.667 161.333 177 242 355 242c126 0 224.333 -37.333 295 -112s106 -179.334 106 -314.001v-720h-410v629c0 58 -15 103.333 -45 136c-30.667 33.333 -72.667 50 -126 50c-50.667 0 -92.334 -17.333 -125.001 -52
c-32 -35.333 -48 -80 -48 -134v-629h-410v1124zM1808 7.00098c0 -114 -39.666 -202.667 -118.999 -266c-78.667 -63.333 -189.334 -95 -332.001 -95c-51.333 0 -93 2 -125 6v286c12 -2 27.667 -3 47 -3c79.333 0 119 30 119 90v1099h410v-1117zM1458 1245
c-40 37.333 -60 84 -60 140s20 102.667 60 140c39.333 36.667 87.666 55 144.999 55s105.666 -18.333 144.999 -55c40 -37.333 60 -84 60 -140s-20 -102.667 -60 -140c-39.333 -36.667 -87.666 -55 -144.999 -55s-105.666 18.333 -144.999 55z" />
    <glyph glyph-name="uni01CD" unicode="&#x1cd;" horiz-adv-x="1534" 
d="M976 287h-440l-75 -287h-432l471 1443h532l471 -1443h-452zM613 586h286l-139 524h-8zM354 1872h276l132 -192h8l132 192h276l-255 -336h-314z" />
    <glyph glyph-name="uni01CE" unicode="&#x1ce;" horiz-adv-x="1231" 
d="M695 297c36.667 26 55 59.667 55 101v74l-181 -13c-85.333 -6 -128 -39.667 -128 -101c0 -30.667 11.667 -55 35 -73c22.667 -17.333 53.334 -26 92.001 -26c49.333 0 91.666 12.667 126.999 38zM149 79c-74.667 66 -112 148.667 -112 248
c0 214.667 155 331.334 465 350.001l248 15v57c0 37.333 -13 66.666 -39 87.999c-25.333 20.667 -58.666 31 -99.999 31c-42 0 -77 -10.333 -105 -31c-26.667 -20 -41.667 -45 -45 -75h-366c5.33301 119.333 55.666 214 150.999 284c96 70.667 225 106 387 106
c154.667 0 279.667 -35.333 375 -106c94.667 -70.667 142 -163 142 -277v-769h-400v152h-8c-28.667 -53.333 -74 -95 -136 -125c-58 -28.667 -121.333 -43 -190 -43c-105.333 0 -194.333 31.667 -267 95zM472 1256l-255 336h284l124 -180h8l124 180h284l-255 -336h-314z" />
    <glyph glyph-name="uni01CF" unicode="&#x1cf;" horiz-adv-x="624" 
d="M100 0v1443h424v-1443h-424zM-100 1872h276l132 -192h8l132 192h276l-255 -336h-314z" />
    <glyph glyph-name="uni01D0" unicode="&#x1d0;" horiz-adv-x="570" 
d="M80 1124h410v-1124h-410v1124zM128 1256l-255 336h284l124 -180h8l124 180h284l-255 -336h-314z" />
    <glyph glyph-name="uni01D1" unicode="&#x1d1;" horiz-adv-x="1584" 
d="M1322 1267c130.667 -134 196 -316 196 -546s-65.333 -412 -196 -546c-130.667 -133.333 -307.667 -200 -531 -200c-224 0 -401 66.667 -531 200c-130.667 134 -196 316 -196 546s65.333 412 196 546s307.667 201 531 201s400.333 -67 531 -201zM577 1019
c-54 -74 -80.998 -173.333 -80.998 -298c0 -124 27 -223 81 -297c53.333 -74 124.666 -111 213.999 -111s160.666 37 213.999 111c54 74 81 173 81 297c0 124.667 -27 224 -81 298s-125.333 111 -214 111s-160 -37 -214 -111zM379.002 1872h276l132 -192h8l132 192h276
l-255 -336h-314z" />
    <glyph glyph-name="uni01D2" unicode="&#x1d2;" horiz-adv-x="1278" 
d="M207 125c-105.333 104 -158 250.001 -158 438.001c0 183.333 53.333 327.666 160 432.999c105.333 104 248.333 156 429 156c182 0 325.333 -51.667 430 -155c106 -105.333 159 -250 159 -434c0 -188.667 -52.333 -334.667 -157 -438
c-103.333 -102 -247.333 -153 -432 -153c-184 0 -327.667 51 -431 153zM765 342.001c30.667 52 46 125.333 46 220c0 92.667 -15.667 165.334 -47 218.001c-30.667 52 -72.667 78 -126 78s-95.333 -26 -126 -78c-31.333 -52.667 -47 -125.334 -47 -218.001
c0 -94.667 15.333 -168 46 -220c30 -50.667 72.333 -76 127 -76c54 0 96.333 25.333 127 76zM481 1256l-255 336h284l124 -180h8l124 180h284l-255 -336h-314z" />
    <glyph glyph-name="uni01D3" unicode="&#x1d3;" horiz-adv-x="1472" 
d="M523 561c0 -76 18.333 -134 55 -174c36 -40.667 88.333 -61 157 -61s121 20.333 157 61c36.667 40 55 98 55 174v882h424v-929c0 -164 -58.333 -295 -175 -393c-116 -97.333 -269.667 -146 -461 -146s-345 48.667 -461 146c-116.667 98 -175 229 -175 393v929h424v-882z
M323 1872h276l132 -192h8l132 192h276l-255 -336h-314z" />
    <glyph glyph-name="uni01D4" unicode="&#x1d4;" horiz-adv-x="1319" 
d="M1238 0h-400v220h-8c-22.667 -76 -63.667 -135.333 -123 -178c-60 -42.667 -132 -64 -216 -64c-123.333 0 -223 37.333 -299 112c-78.667 78 -118 182.333 -118 313v721h410v-629c0 -58.667 16.667 -104.667 50 -138c31.333 -32 73 -48 125 -48c48.667 0 89 17 121 51
c32 34.667 48 79.667 48 135v629h410v-1124zM502 1256l-255 336h284l124 -180h8l124 180h284l-255 -336h-314z" />
    <glyph glyph-name="uni01D5" unicode="&#x1d5;" horiz-adv-x="1472" 
d="M523 561c0 -76 18.333 -134 55 -174c36 -40.667 88.333 -61 157 -61s121 20.333 157 61c36.667 40 55 98 55 174v882h424v-929c0 -164 -58.333 -295 -175 -393c-116 -97.333 -269.667 -146 -461 -146s-345 48.667 -461 146c-116.667 98 -175 229 -175 393v929h424v-882z
M627 1792c29.333 -28.667 44 -64 44 -106c0 -41.333 -14.667 -76.666 -44 -105.999c-30.667 -29.333 -68.667 -44 -114 -44s-83 14.667 -113 44s-45 64.666 -45 105.999c0 42 15 77.333 45 106c30 29.333 67.667 44 113 44s83.333 -14.667 114 -44zM1109 2120v-180h-748v180
h748zM1071 1792c29.333 -28.667 44 -64 44 -106c0 -41.333 -14.667 -76.666 -44 -105.999c-30.667 -29.333 -68.667 -44 -114 -44s-83 14.667 -113 44s-45 64.666 -45 105.999c0 42 15 77.333 45 106c30 29.333 67.667 44 113 44s83.333 -14.667 114 -44z" />
    <glyph glyph-name="uni01D6" unicode="&#x1d6;" horiz-adv-x="1319" 
d="M1238 0h-400v220h-8c-22.667 -76 -63.667 -135.333 -123 -178c-60 -42.667 -132 -64 -216 -64c-123.333 0 -223 37.333 -299 112c-78.667 78 -118 182.333 -118 313v721h410v-629c0 -58.667 16.667 -104.667 50 -138c31.333 -32 73 -48 125 -48c48.667 0 89 17 121 51
c32 34.667 48 79.667 48 135v629h410v-1124zM343 1297c-28 26.667 -42 59.667 -42 99s14 72.666 42 99.999c28.667 27.333 64.334 41 107.001 41s78.334 -13.667 107.001 -41c28 -27.333 42 -60.666 42 -99.999s-14 -72.333 -42 -99c-28.667 -28 -64.334 -42 -107.001 -42
s-78.334 14 -107.001 42zM761 1297c-28 26.667 -42 59.667 -42 99s14 72.666 42 99.999c28.667 27.333 64.334 41 107.001 41s78.334 -13.667 107.001 -41c28 -27.333 42 -60.666 42 -99.999s-14 -72.333 -42 -99c-28.667 -28 -64.334 -42 -107.001 -42
s-78.334 14 -107.001 42zM1011 1660h-704v180h704v-180z" />
    <glyph glyph-name="uni01D7" unicode="&#x1d7;" horiz-adv-x="1472" 
d="M523 561c0 -76 18.333 -134 55 -174c36 -40.667 88.333 -61 157 -61s121 20.333 157 61c36.667 40 55 98 55 174v882h424v-929c0 -164 -58.333 -295 -175 -393c-116 -97.333 -269.667 -146 -461 -146s-345 48.667 -461 146c-116.667 98 -175 229 -175 393v929h424v-882z
M781 2206h322l-238 -281h-286zM400 1580c-30 29.333 -45 64.666 -45 105.999c0 42 15 77.333 45 106c30 29.333 67.667 44 113 44s83.333 -14.667 114 -44c29.333 -28.667 44 -64 44 -106c0 -41.333 -14.667 -76.666 -44 -105.999c-30.667 -29.333 -68.667 -44 -114 -44
s-83 14.667 -113 44zM844 1580c-30 29.333 -45 64.666 -45 105.999c0 42 15 77.333 45 106c30 29.333 67.667 44 113 44s83.333 -14.667 114 -44c29.333 -28.667 44 -64 44 -106c0 -41.333 -14.667 -76.666 -44 -105.999c-30.667 -29.333 -68.667 -44 -114 -44
s-83 14.667 -113 44z" />
    <glyph glyph-name="uni01D8" unicode="&#x1d8;" horiz-adv-x="1319" 
d="M1238 0h-400v220h-8c-22.667 -76 -63.667 -135.333 -123 -178c-60 -42.667 -132 -64 -216 -64c-123.333 0 -223 37.333 -299 112c-78.667 78 -118 182.333 -118 313v721h410v-629c0 -58.667 16.667 -104.667 50 -138c31.333 -32 73 -48 125 -48c48.667 0 89 17 121 51
c32 34.667 48 79.667 48 135v629h410v-1124zM719 1932h322l-238 -281h-286zM324 1300c-30 29.333 -45 64.666 -45 105.999c0 42 15 77.333 45 106c30 29.333 67.667 44 113 44s83.333 -14.667 114 -44c29.333 -28.667 44 -64 44 -106
c0 -41.333 -14.667 -76.666 -44 -105.999c-30.667 -29.333 -68.667 -44 -114 -44s-83 14.667 -113 44zM768 1300c-30 29.333 -45 64.666 -45 105.999c0 42 15 77.333 45 106c30 29.333 67.667 44 113 44s83.333 -14.667 114 -44c29.333 -28.667 44 -64 44 -106
c0 -41.333 -14.667 -76.666 -44 -105.999c-30.667 -29.333 -68.667 -44 -114 -44s-83 14.667 -113 44z" />
    <glyph glyph-name="uni01D9" unicode="&#x1d9;" horiz-adv-x="1472" 
d="M523 561c0 -76 18.333 -134 55 -174c36 -40.667 88.333 -61 157 -61s121 20.333 157 61c36.667 40 55 98 55 174v882h424v-929c0 -164 -58.333 -295 -175 -393c-116 -97.333 -269.667 -146 -461 -146s-345 48.667 -461 146c-116.667 98 -175 229 -175 393v929h424v-882z
M346 2231h267l111 -153h22l111 153h267l-247 -305h-284zM627 1792c29.333 -28.667 44 -64 44 -106c0 -41.333 -14.667 -76.666 -44 -105.999c-30.667 -29.333 -68.667 -44 -114 -44s-83 14.667 -113 44s-45 64.666 -45 105.999c0 42 15 77.333 45 106
c30 29.333 67.667 44 113 44s83.333 -14.667 114 -44zM1071 1792c29.333 -28.667 44 -64 44 -106c0 -41.333 -14.667 -76.666 -44 -105.999c-30.667 -29.333 -68.667 -44 -114 -44s-83 14.667 -113 44s-45 64.666 -45 105.999c0 42 15 77.333 45 106
c30 29.333 67.667 44 113 44s83.333 -14.667 114 -44z" />
    <glyph glyph-name="uni01DA" unicode="&#x1da;" horiz-adv-x="1319" 
d="M1238 0h-400v220h-8c-22.667 -76 -63.667 -135.333 -123 -178c-60 -42.667 -132 -64 -216 -64c-123.333 0 -223 37.333 -299 112c-78.667 78 -118 182.333 -118 313v721h410v-629c0 -58.667 16.667 -104.667 50 -138c31.333 -32 73 -48 125 -48c48.667 0 89 17 121 51
c32 34.667 48 79.667 48 135v629h410v-1124zM343 1297c-28 26.667 -42 59.667 -42 99s14 72.666 42 99.999c28.667 27.333 64.334 41 107.001 41s78.334 -13.667 107.001 -41c28 -27.333 42 -60.666 42 -99.999s-14 -72.333 -42 -99c-28.667 -28 -64.334 -42 -107.001 -42
s-78.334 14 -107.001 42zM761 1297c-28 26.667 -42 59.667 -42 99s14 72.666 42 99.999c28.667 27.333 64.334 41 107.001 41s78.334 -13.667 107.001 -41c28 -27.333 42 -60.666 42 -99.999s-14 -72.333 -42 -99c-28.667 -28 -64.334 -42 -107.001 -42
s-78.334 14 -107.001 42zM502 1614l-255 336h284l124 -180h8l124 180h284l-255 -336h-314z" />
    <glyph glyph-name="uni01DB" unicode="&#x1db;" horiz-adv-x="1472" 
d="M523 561c0 -76 18.333 -134 55 -174c36 -40.667 88.333 -61 157 -61s121 20.333 157 61c36.667 40 55 98 55 174v882h424v-929c0 -164 -58.333 -295 -175 -393c-116 -97.333 -269.667 -146 -461 -146s-345 48.667 -461 146c-116.667 98 -175 229 -175 393v929h424v-882z
M605 1925l-238 281h322l202 -281h-286zM400 1580c-30 29.333 -45 64.666 -45 105.999c0 42 15 77.333 45 106c30 29.333 67.667 44 113 44s83.333 -14.667 114 -44c29.333 -28.667 44 -64 44 -106c0 -41.333 -14.667 -76.666 -44 -105.999
c-30.667 -29.333 -68.667 -44 -114 -44s-83 14.667 -113 44zM844 1580c-30 29.333 -45 64.666 -45 105.999c0 42 15 77.333 45 106c30 29.333 67.667 44 113 44s83.333 -14.667 114 -44c29.333 -28.667 44 -64 44 -106c0 -41.333 -14.667 -76.666 -44 -105.999
c-30.667 -29.333 -68.667 -44 -114 -44s-83 14.667 -113 44z" />
    <glyph glyph-name="uni01DC" unicode="&#x1dc;" horiz-adv-x="1319" 
d="M1238 0h-400v220h-8c-22.667 -76 -63.667 -135.333 -123 -178c-60 -42.667 -132 -64 -216 -64c-123.333 0 -223 37.333 -299 112c-78.667 78 -118 182.333 -118 313v721h410v-629c0 -58.667 16.667 -104.667 50 -138c31.333 -32 73 -48 125 -48c48.667 0 89 17 121 51
c32 34.667 48 79.667 48 135v629h410v-1124zM529 1675l-244 275h343l183 -275h-282zM324 1300c-30 29.333 -45 64.666 -45 105.999c0 42 15 77.333 45 106c30 29.333 67.667 44 113 44s83.333 -14.667 114 -44c29.333 -28.667 44 -64 44 -106
c0 -41.333 -14.667 -76.666 -44 -105.999c-30.667 -29.333 -68.667 -44 -114 -44s-83 14.667 -113 44zM768 1300c-30 29.333 -45 64.666 -45 105.999c0 42 15 77.333 45 106c30 29.333 67.667 44 113 44s83.333 -14.667 114 -44c29.333 -28.667 44 -64 44 -106
c0 -41.333 -14.667 -76.666 -44 -105.999c-30.667 -29.333 -68.667 -44 -114 -44s-83 14.667 -113 44z" />
    <glyph glyph-name="uni01DE" unicode="&#x1de;" horiz-adv-x="1534" 
d="M976 287h-440l-75 -287h-432l471 1443h532l471 -1443h-452zM613 586h286l-139 524h-8zM658 1792c29.333 -28.667 44 -64 44 -106c0 -41.333 -14.667 -76.666 -44 -105.999c-30.667 -29.333 -68.667 -44 -114 -44s-83 14.667 -113 44s-45 64.666 -45 105.999
c0 42 15 77.333 45 106c30 29.333 67.667 44 113 44s83.333 -14.667 114 -44zM1140 2120v-180h-748v180h748zM1102 1792c29.333 -28.667 44 -64 44 -106c0 -41.333 -14.667 -76.666 -44 -105.999c-30.667 -29.333 -68.667 -44 -114 -44s-83 14.667 -113 44
s-45 64.666 -45 105.999c0 42 15 77.333 45 106c30 29.333 67.667 44 113 44s83.333 -14.667 114 -44z" />
    <glyph glyph-name="uni01DF" unicode="&#x1df;" horiz-adv-x="1231" 
d="M695 297c36.667 26 55 59.667 55 101v74l-181 -13c-85.333 -6 -128 -39.667 -128 -101c0 -30.667 11.667 -55 35 -73c22.667 -17.333 53.334 -26 92.001 -26c49.333 0 91.666 12.667 126.999 38zM149 79c-74.667 66 -112 148.667 -112 248
c0 214.667 155 331.334 465 350.001l248 15v57c0 37.333 -13 66.666 -39 87.999c-25.333 20.667 -58.666 31 -99.999 31c-42 0 -77 -10.333 -105 -31c-26.667 -20 -41.667 -45 -45 -75h-366c5.33301 119.333 55.666 214 150.999 284c96 70.667 225 106 387 106
c154.667 0 279.667 -35.333 375 -106c94.667 -70.667 142 -163 142 -277v-769h-400v152h-8c-28.667 -53.333 -74 -95 -136 -125c-58 -28.667 -121.333 -43 -190 -43c-105.333 0 -194.333 31.667 -267 95zM313 1297c-28 26.667 -42 59.667 -42 99s14 72.666 42 99.999
c28.667 27.333 64.334 41 107.001 41s78.334 -13.667 107.001 -41c28 -27.333 42 -60.666 42 -99.999s-14 -72.333 -42 -99c-28.667 -28 -64.334 -42 -107.001 -42s-78.334 14 -107.001 42zM731 1297c-28 26.667 -42 59.667 -42 99s14 72.666 42 99.999
c28.667 27.333 64.334 41 107.001 41s78.334 -13.667 107.001 -41c28 -27.333 42 -60.666 42 -99.999s-14 -72.333 -42 -99c-28.667 -28 -64.334 -42 -107.001 -42s-78.334 14 -107.001 42zM981 1660h-704v180h704v-180z" />
    <glyph glyph-name="uni01E0" unicode="&#x1e0;" horiz-adv-x="1534" 
d="M976 287h-440l-75 -287h-432l471 1443h532l471 -1443h-452zM613 586h286l-139 524h-8zM653 1580c-30 29.333 -45 64.666 -45 105.999c0 42 15 77.333 45 106c30 29.333 67.667 44 113 44s83.333 -14.667 114 -44c29.333 -28.667 44 -64 44 -106
c0 -41.333 -14.667 -76.666 -44 -105.999c-30.667 -29.333 -68.667 -44 -114 -44s-83 14.667 -113 44zM1140 1940h-748v180h748v-180z" />
    <glyph glyph-name="uni01E1" unicode="&#x1e1;" horiz-adv-x="1231" 
d="M695 297c36.667 26 55 59.667 55 101v74l-181 -13c-85.333 -6 -128 -39.667 -128 -101c0 -30.667 11.667 -55 35 -73c22.667 -17.333 53.334 -26 92.001 -26c49.333 0 91.666 12.667 126.999 38zM149 79c-74.667 66 -112 148.667 -112 248
c0 214.667 155 331.334 465 350.001l248 15v57c0 37.333 -13 66.666 -39 87.999c-25.333 20.667 -58.666 31 -99.999 31c-42 0 -77 -10.333 -105 -31c-26.667 -20 -41.667 -45 -45 -75h-366c5.33301 119.333 55.666 214 150.999 284c96 70.667 225 106 387 106
c154.667 0 279.667 -35.333 375 -106c94.667 -70.667 142 -163 142 -277v-769h-400v152h-8c-28.667 -53.333 -74 -95 -136 -125c-58 -28.667 -121.333 -43 -190 -43c-105.333 0 -194.333 31.667 -267 95zM503 1293c-34 33.333 -51 74 -51 122s17 88.667 51 122
c34 34 76 51 126 51s92 -17 126 -51c34 -33.333 51 -74 51 -122s-17 -88.667 -51 -122c-34 -34 -76 -51 -126 -51s-92 17 -126 51zM981 1670h-704v180h704v-180z" />
    <glyph glyph-name="uni01E2" unicode="&#x1e2;" horiz-adv-x="2104" 
d="M669 586h300v543h-112zM969 286h-403l-99 -286h-418l540 1443h1395v-336h-643v-234h606v-304h-606v-233h643v-336h-1015v286zM1870 1606h-748v180h748v-180z" />
    <glyph glyph-name="uni01E3" unicode="&#x1e3;" horiz-adv-x="1918" 
d="M1055 24c-74 34 -128.999 80 -164.999 138h-8c-72.667 -118.667 -207.334 -178 -404.001 -178c-130.667 0 -237 32.333 -319 97c-81.333 63.333 -122 145.333 -122 246c0 215.333 155 332 465 350l248 15v57c0 36.667 -12.667 65.667 -38 87
c-24.667 21.333 -58.334 32 -101.001 32c-40.667 0 -74.667 -9.66699 -102 -29c-28 -20 -44 -45.667 -48 -77h-366c4.66699 119.333 54 214.333 148 285c92.667 70 212.667 105 360 105c156.667 0 274.334 -41 353.001 -123h8c80.667 82 193.667 123 339 123
c170 0 306.667 -51.667 410 -155c102.667 -103.333 154 -240.333 154 -411v-111h-747v-26c0 -57.333 18.333 -104 55 -140c36.667 -36.667 83.667 -55 141 -55c92.667 0 152.667 36.333 180 109h366c-17.333 -120.667 -75.333 -216 -174 -286
c-99.333 -70 -225.333 -105 -378 -105c-94 0 -179 17.333 -255 52zM1182 821c-33.333 -32 -51.999 -73 -55.999 -123h358c-3.33301 52 -21.333 93.667 -54 125c-32.667 30.667 -74.334 46 -125.001 46c-48.667 0 -89.667 -16 -123 -48zM698.002 299
c34.667 26.667 52.001 59.667 52.001 99v74l-181 -13c-85.333 -6 -128 -39.667 -128 -101c0 -30.667 11.333 -54.667 34 -72c22.667 -18 53.667 -27 93 -27c51.333 0 94.666 13.333 129.999 40zM1299 1276h-704v180h704v-180z" />
    <glyph glyph-name="Gcaron" unicode="&#x1e6;" horiz-adv-x="1530" 
d="M1461 614c0 -198 -58.998 -353.999 -176.998 -467.999c-118.667 -114 -282.334 -171 -491.001 -171c-230 0 -408.667 64.667 -536 194c-128.667 130.667 -193 315.334 -193 554.001c0 235.333 63.667 418.666 191 549.999c126 130 301 195 525 195
c180 0 332 -47.667 456 -143c122.667 -95.333 192 -217.333 208 -366h-417c-14 53.333 -43 95.666 -87 126.999c-44.667 32 -97.334 48 -158.001 48c-90 0 -160 -35.333 -210 -106c-50.667 -71.333 -76 -171 -76 -299c0 -130.667 28 -233.667 84 -309
c54.667 -74 129 -111 223 -111c68.667 0 125.667 17.667 171 53s71 82 77 140l2 20h-220v282h628v-190zM343.002 1872h276l132 -192h8l132 192h276l-255 -336h-314z" />
    <glyph glyph-name="gcaron" unicode="&#x1e7;" horiz-adv-x="1325" 
d="M788 375c32 42.667 48.001 104.666 48.001 185.999s-16.333 145.333 -49 192s-77.667 70 -135 70c-56.667 0 -101.334 -23.333 -134.001 -70c-32.667 -46 -49 -109.667 -49 -191s16 -143.666 48 -186.999c32 -42.667 77 -64 135 -64c58.667 0 104 21.333 136 64z
M236.001 -326.001c-104 64 -157.333 150.001 -160 258.001h394c6 -27.333 26 -49.333 60 -66c33.333 -16.667 72.666 -25 117.999 -25c56 0 100.667 13 134 39c34.667 27.333 52 64 52 110v224h-8c-19.333 -59.333 -59.333 -107.333 -120 -144
c-61.333 -37.333 -133.666 -56 -216.999 -56c-134 0 -240.333 48 -319 144c-80.667 98 -121 233.667 -121 407c0 180.667 39.333 321.667 118 423s188 152 328 152c80 0 150.333 -20.667 211 -62c57.333 -39.333 97.333 -91.333 120 -156h8v202h410v-1104
c0 -132.667 -55 -239.334 -165 -320.001s-255 -121 -435 -121c-168.667 0 -304.667 31.667 -408 95zM505.001 1256l-255 336h284l124 -180h8l124 180h284l-255 -336h-314z" />
    <glyph glyph-name="uni01E8" unicode="&#x1e8;" horiz-adv-x="1445" 
d="M99 0v1443h424v-612h8l446 612h445l-475 -641l497 -802h-493l-315 530l-113 -152v-378h-424zM310 1872h276l132 -192h8l132 192h276l-255 -336h-314z" />
    <glyph glyph-name="uni01E9" unicode="&#x1e9;" horiz-adv-x="1226" 
d="M783 1124h452l-378 -480l404 -644h-471l-238 399l-57 -74v-325h-410v1518h410v-803h8zM-124 1947h276l132 -192h8l132 192h276l-255 -336h-314z" />
    <glyph glyph-name="uni01EA" unicode="&#x1ea;" horiz-adv-x="1584" 
d="M1130 -456c-40 -15.333 -91.334 -23 -154.001 -23c-82 0 -147 18.667 -195 56c-48.667 38 -73 88.667 -73 152c0 101.333 47 183.333 141 246h-58c-224 0 -401 67 -531 201c-130.667 133.333 -196 315 -196 545s65.333 412 196 546s307.667 201 531 201
s400.333 -67 531 -201s196 -316 196 -546c0 -272.667 -95.333 -481.667 -286 -627c-25.333 -19.333 -60.666 -44 -105.999 -74c-44 -29.333 -74.333 -50.333 -91 -63c-60 -46 -90 -93.667 -90 -143c0 -28 10.333 -50.333 31 -67c20 -17.333 47.333 -26 82 -26
c26 0 50 2.66699 72 8v-185zM575.999 1019c-53.333 -74.667 -80 -174 -80 -298s26.667 -223 80 -297c54 -74 125.667 -111 215 -111s161 37 215 111c53.333 74 80 173 80 297s-26.667 223.333 -80 298c-54 74 -125.667 111 -215 111s-161 -37 -215 -111z" />
    <glyph glyph-name="uni01EB" unicode="&#x1eb;" horiz-adv-x="1278" 
d="M631 -415c-49.333 42 -74 96.668 -74 164.001c0 90 49 164.667 147 224c-4 -0.666992 -26 -1 -66 -1c-185.333 0 -330 52 -434 156c-103.333 103.333 -155 248.333 -155 435c0 182 52.667 325.667 158 431s249 158 431 158c183.333 0 327.333 -52.333 432 -157
s157 -248.667 157 -432c0 -198.667 -75.333 -361 -226 -487c-86 -72 -142 -124.667 -168 -158c-26 -32.667 -39 -67.334 -39 -104.001c0 -28 10.333 -50.333 31 -67c20 -17.333 47.333 -26 82 -26c26 0 50 2.66699 72 8v-185c-40 -15.333 -92.333 -23 -157 -23
c-78 0 -141.667 21.333 -191 64zM765 344.001c30.667 52 45.9971 124.667 45.9971 218c0 92 -15.333 164.333 -46 217c-31.333 52.667 -73.666 79 -126.999 79s-95.666 -26.333 -126.999 -79c-30.667 -52.667 -46 -125 -46 -217c0 -94 15 -166.667 45 -218
c30.667 -52 73.334 -78 128.001 -78s97 26 127 78z" />
    <glyph glyph-name="uni01EC" unicode="&#x1ec;" horiz-adv-x="1584" 
d="M1165 1606h-748v180h748v-180zM1130 -456c-40 -15.333 -91.334 -23 -154.001 -23c-82 0 -147 18.667 -195 56c-48.667 38 -73 88.667 -73 152c0 101.333 47 183.333 141 246h-58c-224 0 -401 67 -531 201c-130.667 133.333 -196 315 -196 545s65.333 412 196 546
s307.667 201 531 201s400.333 -67 531 -201s196 -316 196 -546c0 -272.667 -95.333 -481.667 -286 -627c-25.333 -19.333 -60.666 -44 -105.999 -74c-44 -29.333 -74.333 -50.333 -91 -63c-60 -46 -90 -93.667 -90 -143c0 -28 10.333 -50.333 31 -67
c20 -17.333 47.333 -26 82 -26c26 0 50 2.66699 72 8v-185zM575.999 1019c-53.333 -74.667 -80 -174 -80 -298s26.667 -223 80 -297c54 -74 125.667 -111 215 -111s161 37 215 111c53.333 74 80 173 80 297s-26.667 223.333 -80 298c-54 74 -125.667 111 -215 111
s-161 -37 -215 -111z" />
    <glyph glyph-name="uni01ED" unicode="&#x1ed;" horiz-adv-x="1278" 
d="M990 1276h-704v180h704v-180zM631 -415c-49.333 42 -74 96.668 -74 164.001c0 90 49 164.667 147 224c-4 -0.666992 -26 -1 -66 -1c-185.333 0 -330 52 -434 156c-103.333 103.333 -155 248.333 -155 435c0 182 52.667 325.667 158 431s249 158 431 158
c183.333 0 327.333 -52.333 432 -157s157 -248.667 157 -432c0 -198.667 -75.333 -361 -226 -487c-86 -72 -142 -124.667 -168 -158c-26 -32.667 -39 -67.334 -39 -104.001c0 -28 10.333 -50.333 31 -67c20 -17.333 47.333 -26 82 -26c26 0 50 2.66699 72 8v-185
c-40 -15.333 -92.333 -23 -157 -23c-78 0 -141.667 21.333 -191 64zM765 344.001c30.667 52 45.9971 124.667 45.9971 218c0 92 -15.333 164.333 -46 217c-31.333 52.667 -73.666 79 -126.999 79s-95.666 -26.333 -126.999 -79c-30.667 -52.667 -46 -125 -46 -217
c0 -94 15 -166.667 45 -218c30.667 -52 73.334 -78 128.001 -78s97 26 127 78z" />
    <glyph glyph-name="uni01F1" unicode="&#x1f1;" horiz-adv-x="2798" 
d="M716 1443c220.667 0 391.333 -60.667 512 -182c122 -123.333 183 -299.666 183 -528.999c0 -230.667 -61.333 -410.334 -184 -539.001c-122 -128.667 -292.333 -193 -511 -193h-617v1443h617zM522.999 337l133 -0.000976562c215.333 0 323 131.667 323 395
c0 120.667 -28.333 213.334 -85 278.001c-56 64 -135.333 96 -238 96h-133v-769zM1556 265.999l643 832v8h-637v337h1131v-265l-641 -833v-8h665v-337h-1161v266z" />
    <glyph glyph-name="uni01F2" unicode="&#x1f2;" horiz-adv-x="2605" 
d="M716 1443c220.667 0 391.333 -60.667 512 -182c122 -123.333 183 -299.666 183 -528.999c0 -230.667 -61.333 -410.334 -184 -539.001c-122 -128.667 -292.333 -193 -511 -193h-617v1443h617zM522.999 337l133 -0.000976562c215.333 0 323 131.667 323 395
c0 120.667 -28.333 213.334 -85 278.001c-56 64 -135.333 96 -238 96h-133v-769zM1536 208.999l506 603v8h-490v304h970v-244l-446 -568v-8h468v-304h-1008v209z" />
    <glyph glyph-name="uni01F3" unicode="&#x1f3;" horiz-adv-x="2453" 
d="M165 137c-77.333 102.667 -116 245.334 -116 428.001c0 180.667 39.333 321.667 118 423s188 152 328 152c80 0 150.333 -20.667 211 -62c57.333 -39.333 97.333 -91.333 120 -156h8v596h410v-1518h-410v194h-8c-19.333 -60.667 -59.333 -110.334 -120 -149.001
c-62.667 -40.667 -135 -61 -217 -61c-138.667 0 -246.667 51 -324 153zM518 753c-32.667 -46 -48.999 -109.667 -48.999 -191c0 -82 16 -146 48 -192c32.667 -46 77.667 -69 135 -69c58 0 103.333 23 136 69c32 45.333 48 109 48 191c0 81.333 -16.333 145.333 -49 192
s-77.667 70 -135 70c-56.667 0 -101.334 -23.333 -134.001 -70zM1384 209l506 603v8h-490v304h970v-244l-446 -568v-8h468v-304h-1008v209z" />
    <glyph glyph-name="uni01F4" unicode="&#x1f4;" horiz-adv-x="1530" 
d="M1461 614c0 -198 -58.998 -353.999 -176.998 -467.999c-118.667 -114 -282.334 -171 -491.001 -171c-230 0 -408.667 64.667 -536 194c-128.667 130.667 -193 315.334 -193 554.001c0 235.333 63.667 418.666 191 549.999c126 130 301 195 525 195
c180 0 332 -47.667 456 -143c122.667 -95.333 192 -217.333 208 -366h-417c-14 53.333 -43 95.666 -87 126.999c-44.667 32 -97.334 48 -158.001 48c-90 0 -160 -35.333 -210 -106c-50.667 -71.333 -76 -171 -76 -299c0 -130.667 28 -233.667 84 -309
c54.667 -74 129 -111 223 -111c68.667 0 125.667 17.667 171 53s71 82 77 140l2 20h-220v282h628v-190zM589.002 1555l232 321h348l-274 -321h-306z" />
    <glyph glyph-name="uni01F5" unicode="&#x1f5;" horiz-adv-x="1325" 
d="M788 375c32 42.667 48.001 104.666 48.001 185.999s-16.333 145.333 -49 192s-77.667 70 -135 70c-56.667 0 -101.334 -23.333 -134.001 -70c-32.667 -46 -49 -109.667 -49 -191s16 -143.666 48 -186.999c32 -42.667 77 -64 135 -64c58.667 0 104 21.333 136 64z
M236.001 -326.001c-104 64 -157.333 150.001 -160 258.001h394c6 -27.333 26 -49.333 60 -66c33.333 -16.667 72.666 -25 117.999 -25c56 0 100.667 13 134 39c34.667 27.333 52 64 52 110v224h-8c-19.333 -59.333 -59.333 -107.333 -120 -144
c-61.333 -37.333 -133.666 -56 -216.999 -56c-134 0 -240.333 48 -319 144c-80.667 98 -121 233.667 -121 407c0 180.667 39.333 321.667 118 423s188 152 328 152c80 0 150.333 -20.667 211 -62c57.333 -39.333 97.333 -91.333 120 -156h8v202h410v-1104
c0 -132.667 -55 -239.334 -165 -320.001s-255 -121 -435 -121c-168.667 0 -304.667 31.667 -408 95zM497.001 1275l232 321h347l-265 -321h-314z" />
    <glyph glyph-name="uni01F8" unicode="&#x1f8;" horiz-adv-x="1494" 
d="M99 0v1443h329l557 -748h8v748h400v-1443h-325l-561 760h-8v-760h-400zM326 1885h348l232 -321h-306z" />
    <glyph glyph-name="uni01F9" unicode="&#x1f9;" horiz-adv-x="1319" 
d="M79 1124l400.001 0.000976562v-220h8c58.667 161.333 177 242 355 242c126 0 224.333 -37.333 295 -112s106 -179.334 106 -314.001v-720h-410v629c0 58 -15 103.333 -45 136c-30.667 33.333 -72.667 50 -126 50c-50.667 0 -92.334 -17.333 -125.001 -52
c-32 -35.333 -48 -80 -48 -134v-629h-410v1124zM519.001 1275l-265 321h347l232 -321h-314z" />
    <glyph glyph-name="Aringacute" unicode="&#x1fa;" horiz-adv-x="1534" 
d="M976 287h-440l-75 -287h-432l471 1443h532l471 -1443h-452zM613 586h286l-139 524h-8zM612 1576c-40 38.667 -60 87.667 -60 147s20 108.333 60 147s91.333 58 154 58c62 0 113 -19 153 -57c40 -38.667 60 -88 60 -148s-20 -109 -60 -147c-40 -38.667 -91 -58 -153 -58
c-62.667 0 -114 19.333 -154 58zM816 1673c13.333 13.333 20 30 20 50s-6.66699 36.667 -20 50c-13.333 12.667 -30 19 -50 19c-20.667 0 -37.667 -6.33301 -51 -19c-13.333 -13.333 -20 -30 -20 -50s6.66699 -36.667 20 -50s30.333 -20 51 -20c20 0 36.667 6.66699 50 20z
M1067 2201l-162 -202h-276l115 202h323z" />
    <glyph glyph-name="aringacute" unicode="&#x1fb;" horiz-adv-x="1231" 
d="M695 297c36.667 26 55 59.667 55 101v74l-181 -13c-85.333 -6 -128 -39.667 -128 -101c0 -30.667 11.667 -55 35 -73c22.667 -17.333 53.334 -26 92.001 -26c49.333 0 91.666 12.667 126.999 38zM149 79c-74.667 66 -112 148.667 -112 248
c0 214.667 155 331.334 465 350.001l248 15v57c0 37.333 -13 66.666 -39 87.999c-25.333 20.667 -58.666 31 -99.999 31c-42 0 -77 -10.333 -105 -31c-26.667 -20 -41.667 -45 -45 -75h-366c5.33301 119.333 55.666 214 150.999 284c96 70.667 225 106 387 106
c154.667 0 279.667 -35.333 375 -106c94.667 -70.667 142 -163 142 -277v-769h-400v152h-8c-28.667 -53.333 -74 -95 -136 -125c-58 -28.667 -121.333 -43 -190 -43c-105.333 0 -194.333 31.667 -267 95zM461 1300c-44 42.667 -66 97 -66 163
c0 66.667 22 121.334 66 164.001c44.667 42.667 101.667 64 171 64s126.333 -21.333 171 -64c44 -42.667 66 -97.334 66 -164.001c0 -66 -22 -120.333 -66 -163c-44.667 -42.667 -101.667 -64 -171 -64s-126.333 21.333 -171 64zM576 1408
c14.667 -14.667 33.334 -22 56.001 -22s41.334 7.33301 56.001 22c14.667 14 22 32.333 22 55s-7.33301 41.334 -22 56.001s-33.334 22 -56.001 22s-41.334 -7.33301 -56.001 -22s-22 -33.334 -22 -56.001s7.33301 -41 22 -55zM657 2001h314l-190 -230h-268z" />
    <glyph glyph-name="AEacute" unicode="&#x1fc;" horiz-adv-x="2104" 
d="M669 586h300v543h-112zM969 286h-403l-99 -286h-418l540 1443h1395v-336h-643v-234h606v-304h-606v-233h643v-336h-1015v286zM1330 1555l232 321h348l-274 -321h-306z" />
    <glyph glyph-name="aeacute" unicode="&#x1fd;" horiz-adv-x="1918" 
d="M1055 24c-74 34 -128.999 80 -164.999 138h-8c-72.667 -118.667 -207.334 -178 -404.001 -178c-130.667 0 -237 32.333 -319 97c-81.333 63.333 -122 145.333 -122 246c0 215.333 155 332 465 350l248 15v57c0 36.667 -12.667 65.667 -38 87
c-24.667 21.333 -58.334 32 -101.001 32c-40.667 0 -74.667 -9.66699 -102 -29c-28 -20 -44 -45.667 -48 -77h-366c4.66699 119.333 54 214.333 148 285c92.667 70 212.667 105 360 105c156.667 0 274.334 -41 353.001 -123h8c80.667 82 193.667 123 339 123
c170 0 306.667 -51.667 410 -155c102.667 -103.333 154 -240.333 154 -411v-111h-747v-26c0 -57.333 18.333 -104 55 -140c36.667 -36.667 83.667 -55 141 -55c92.667 0 152.667 36.333 180 109h366c-17.333 -120.667 -75.333 -216 -174 -286
c-99.333 -70 -225.333 -105 -378 -105c-94 0 -179 17.333 -255 52zM1182 821c-33.333 -32 -51.999 -73 -55.999 -123h358c-3.33301 52 -21.333 93.667 -54 125c-32.667 30.667 -74.334 46 -125.001 46c-48.667 0 -89.667 -16 -123 -48zM698.002 299
c34.667 26.667 52.001 59.667 52.001 99v74l-181 -13c-85.333 -6 -128 -39.667 -128 -101c0 -30.667 11.333 -54.667 34 -72c22.667 -18 53.667 -27 93 -27c51.333 0 94.666 13.333 129.999 40zM782.003 1275l232 321h347l-265 -321h-314z" />
    <glyph glyph-name="Oslashacute" unicode="&#x1fe;" horiz-adv-x="1584" 
d="M956 1555h-306l232 321h348zM671 341c37.333 -18.667 77.334 -28 120.001 -28c89.333 0 160.666 37 213.999 111c54 74 81 173 81 297c0 100.667 -18 185 -54 253zM948.001 1078c-44.667 34.667 -97 52.001 -157 52.001c-88.667 0 -160 -37 -214 -111
s-81 -173.333 -81 -298s27.333 -224.334 82 -299.001zM1240 1338c185.333 -132.667 277.999 -338.333 277.999 -617c0 -230 -65.333 -412 -196 -546c-130.667 -133.333 -307.667 -200 -531 -200c-111.333 0 -211 17 -299 51l-64 -112l-103 58l59 105
c-213.333 128 -320 342.667 -320 644c0 230 65.333 412 196 546s307.667 201 531 201c126.667 0 239.334 -22.333 338.001 -67l69 122l118 -51z" />
    <glyph glyph-name="oslashacute" unicode="&#x1ff;" horiz-adv-x="1278" 
d="M812 1275h-314l232 321h347zM560 289c23.333 -15.333 49.333 -23 78 -23c54 0 96.333 25.333 127 76c30.667 52 46 125.333 46 220c0 48.667 -4.66699 92.667 -14 132zM730 822c-24.667 24 -55.333 36.001 -92 36.001c-53.333 0 -95.333 -26 -126 -78
c-31.333 -52.667 -47 -125.334 -47 -218.001c0 -64 7 -118 21 -162zM1005 1049c148 -102.667 221.999 -264.667 221.999 -486c0 -188.667 -52.333 -334.667 -157 -438c-103.333 -102 -247.333 -153 -432 -153c-88 0 -168.333 12.333 -241 37l-65 -111l-103 58l60 104
c-160 100.667 -240 268.334 -240 503.001c0 183.333 53.333 327.666 160 432.999c105.333 104 248.333 156 429 156c96.667 0 182.334 -15 257.001 -45l64 110l112 -54z" />
    <glyph glyph-name="uni0200" unicode="&#x200;" horiz-adv-x="1534" 
d="M976 287h-440l-75 -287h-432l471 1443h532l471 -1443h-452zM613 586h286l-139 524h-8zM586 1876h348l232 -321h-306zM106 1876h348l232 -321h-306z" />
    <glyph glyph-name="uni0201" unicode="&#x201;" horiz-adv-x="1231" 
d="M695 297c36.667 26 55 59.667 55 101v74l-181 -13c-85.333 -6 -128 -39.667 -128 -101c0 -30.667 11.667 -55 35 -73c22.667 -17.333 53.334 -26 92.001 -26c49.333 0 91.666 12.667 126.999 38zM149 79c-74.667 66 -112 148.667 -112 248
c0 214.667 155 331.334 465 350.001l248 15v57c0 37.333 -13 66.666 -39 87.999c-25.333 20.667 -58.666 31 -99.999 31c-42 0 -77 -10.333 -105 -31c-26.667 -20 -41.667 -45 -45 -75h-366c5.33301 119.333 55.666 214 150.999 284c96 70.667 225 106 387 106
c154.667 0 279.667 -35.333 375 -106c94.667 -70.667 142 -163 142 -277v-769h-400v152h-8c-28.667 -53.333 -74 -95 -136 -125c-58 -28.667 -121.333 -43 -190 -43c-105.333 0 -194.333 31.667 -267 95zM289 1276l-211 320h309l182 -320h-280zM714 1276l-211 320h308
l183 -320h-280z" />
    <glyph glyph-name="uni0202" unicode="&#x202;" horiz-adv-x="1534" 
d="M976 287h-440l-75 -287h-432l471 1443h532l471 -1443h-452zM613 586h286l-139 524h-8zM371 1536c3.33301 94.667 38.332 173 104.999 235c72.667 66 169.334 99 290.001 99s217.334 -33 290.001 -99c66.667 -62 101.667 -140.333 105 -235h-236
c-2 44.667 -16.333 80 -43 106c-28.667 28 -67.334 42 -116.001 42s-87 -14 -115 -42c-27.333 -26 -42 -61.333 -44 -106h-236z" />
    <glyph glyph-name="uni0203" unicode="&#x203;" horiz-adv-x="1231" 
d="M695 297c36.667 26 55 59.667 55 101v74l-181 -13c-85.333 -6 -128 -39.667 -128 -101c0 -30.667 11.667 -55 35 -73c22.667 -17.333 53.334 -26 92.001 -26c49.333 0 91.666 12.667 126.999 38zM149 79c-74.667 66 -112 148.667 -112 248
c0 214.667 155 331.334 465 350.001l248 15v57c0 37.333 -13 66.666 -39 87.999c-25.333 20.667 -58.666 31 -99.999 31c-42 0 -77 -10.333 -105 -31c-26.667 -20 -41.667 -45 -45 -75h-366c5.33301 119.333 55.666 214 150.999 284c96 70.667 225 106 387 106
c154.667 0 279.667 -35.333 375 -106c94.667 -70.667 142 -163 142 -277v-769h-400v152h-8c-28.667 -53.333 -74 -95 -136 -125c-58 -28.667 -121.333 -43 -190 -43c-105.333 0 -194.333 31.667 -267 95zM234 1256c3.33301 94.667 38.332 173 104.999 235
c72.667 66 169.334 99 290.001 99s217.334 -33 290.001 -99c66.667 -62 101.667 -140.333 105 -235h-236c-2 44.667 -16.333 80 -43 106c-28.667 28 -67.334 42 -116.001 42s-87 -14 -115 -42c-27.333 -26 -42 -61.333 -44 -106h-236z" />
    <glyph glyph-name="uni0204" unicode="&#x204;" horiz-adv-x="1216" 
d="M1118 0h-1018v1443h1018v-337h-594v-233h557v-304h-557v-232h594v-337zM428 1876h348l232 -321h-306zM-52 1876h348l232 -321h-306z" />
    <glyph glyph-name="uni0205" unicode="&#x205;" horiz-adv-x="1243" 
d="M507 821c-33.333 -32 -51.999 -73 -55.999 -123h358c-3.33301 52 -21.333 93.667 -54 125c-32.667 30.667 -74.334 46 -125.001 46c-48.667 0 -89.667 -16 -123 -48zM1187 363c-17.333 -120.667 -75.332 -215.999 -173.999 -285.999c-99.333 -70 -225.333 -105 -378 -105
c-183.333 0 -327 51.667 -431 155c-103.333 103.333 -155 246.333 -155 429c0 183.333 51.667 328.666 155 435.999c102.667 106.667 242 160 418 160c173.333 0 311.666 -51.333 414.999 -154s155 -240 155 -412v-111h-747v-26c0 -57.333 18.333 -104 55 -140
c36.667 -36.667 83.667 -55 141 -55c93.333 0 153.333 36.333 180 109h366zM281.002 1276l-211 320h309l182 -320h-280zM706.002 1276l-211 320h308l183 -320h-280z" />
    <glyph glyph-name="uni0206" unicode="&#x206;" horiz-adv-x="1216" 
d="M1117 0h-1018v1443h1018v-337h-594v-233h557v-304h-557v-232h594v-337zM212 1536c3.33301 94.667 38.332 173 104.999 235c72.667 66 169.334 99 290.001 99s217.334 -33 290.001 -99c66.667 -62 101.667 -140.333 105 -235h-236c-2 44.667 -16.333 80 -43 106
c-28.667 28 -67.334 42 -116.001 42s-87 -14 -115 -42c-27.333 -26 -42 -61.333 -44 -106h-236z" />
    <glyph glyph-name="uni0207" unicode="&#x207;" horiz-adv-x="1243" 
d="M507 821c-33.333 -32 -51.999 -73 -55.999 -123h358c-3.33301 52 -21.333 93.667 -54 125c-32.667 30.667 -74.334 46 -125.001 46c-48.667 0 -89.667 -16 -123 -48zM1187 363c-17.333 -120.667 -75.332 -215.999 -173.999 -285.999c-99.333 -70 -225.333 -105 -378 -105
c-183.333 0 -327 51.667 -431 155c-103.333 103.333 -155 246.333 -155 429c0 183.333 51.667 328.666 155 435.999c102.667 106.667 242 160 418 160c173.333 0 311.666 -51.333 414.999 -154s155 -240 155 -412v-111h-747v-26c0 -57.333 18.333 -104 55 -140
c36.667 -36.667 83.667 -55 141 -55c93.333 0 153.333 36.333 180 109h366zM226.002 1256c3.33301 94.667 38.332 173 104.999 235c72.667 66 169.334 99 290.001 99s217.334 -33 290.001 -99c66.667 -62 101.667 -140.333 105 -235h-236c-2 44.667 -16.333 80 -43 106
c-28.667 28 -67.334 42 -116.001 42s-87 -14 -115 -42c-27.333 -26 -42 -61.333 -44 -106h-236z" />
    <glyph glyph-name="uni0208" unicode="&#x208;" horiz-adv-x="624" 
d="M100 0v1443h424v-1443h-424zM132 1876h348l232 -321h-306zM-348 1876h348l232 -321h-306z" />
    <glyph glyph-name="uni0209" unicode="&#x209;" horiz-adv-x="570" 
d="M80 1124h410v-1124h-410v1124zM-55 1276l-211 320h309l182 -320h-280zM370 1276l-211 320h308l183 -320h-280z" />
    <glyph glyph-name="uni020A" unicode="&#x20a;" horiz-adv-x="624" 
d="M100 0v1443h424v-1443h-424zM-83 1536c3.33301 94.667 38.332 173 104.999 235c72.667 66 169.334 99 290.001 99s217.334 -33 290.001 -99c66.667 -62 101.667 -140.333 105 -235h-236c-2 44.667 -16.333 80 -43 106c-28.667 28 -67.334 42 -116.001 42
s-87 -14 -115 -42c-27.333 -26 -42 -61.333 -44 -106h-236z" />
    <glyph glyph-name="uni020B" unicode="&#x20b;" horiz-adv-x="570" 
d="M80 1124h410v-1124h-410v1124zM-110 1256c3.33301 94.667 38.332 173 104.999 235c72.667 66 169.334 99 290.001 99s217.334 -33 290.001 -99c66.667 -62 101.667 -140.333 105 -235h-236c-2 44.667 -16.333 80 -43 106c-28.667 28 -67.334 42 -116.001 42
s-87 -14 -115 -42c-27.333 -26 -42 -61.333 -44 -106h-236z" />
    <glyph glyph-name="uni020C" unicode="&#x20c;" horiz-adv-x="1584" 
d="M1322 1267c130.667 -134 196 -316 196 -546s-65.333 -412 -196 -546c-130.667 -133.333 -307.667 -200 -531 -200c-224 0 -401 66.667 -531 200c-130.667 134 -196 316 -196 546s65.333 412 196 546s307.667 201 531 201s400.333 -67 531 -201zM577 1019
c-54 -74 -80.998 -173.333 -80.998 -298c0 -124 27 -223 81 -297c53.333 -74 124.666 -111 213.999 -111s160.666 37 213.999 111c54 74 81 173 81 297c0 124.667 -27 224 -81 298s-125.333 111 -214 111s-160 -37 -214 -111zM611.002 1876h348l232 -321h-306zM131.002 1876
h348l232 -321h-306z" />
    <glyph glyph-name="uni020D" unicode="&#x20d;" horiz-adv-x="1278" 
d="M207 125c-105.333 104 -158 250.001 -158 438.001c0 183.333 53.333 327.666 160 432.999c105.333 104 248.333 156 429 156c182 0 325.333 -51.667 430 -155c106 -105.333 159 -250 159 -434c0 -188.667 -52.333 -334.667 -157 -438
c-103.333 -102 -247.333 -153 -432 -153c-184 0 -327.667 51 -431 153zM765 342.001c30.667 52 46 125.333 46 220c0 92.667 -15.667 165.334 -47 218.001c-30.667 52 -72.667 78 -126 78s-95.333 -26 -126 -78c-31.333 -52.667 -47 -125.334 -47 -218.001
c0 -94.667 15.333 -168 46 -220c30 -50.667 72.333 -76 127 -76c54 0 96.333 25.333 127 76zM298 1276l-211 320h309l182 -320h-280zM723 1276l-211 320h308l183 -320h-280z" />
    <glyph glyph-name="uni020E" unicode="&#x20e;" horiz-adv-x="1584" 
d="M1322 1267c130.667 -134 196 -316 196 -546s-65.333 -412 -196 -546c-130.667 -133.333 -307.667 -200 -531 -200c-224 0 -401 66.667 -531 200c-130.667 134 -196 316 -196 546s65.333 412 196 546s307.667 201 531 201s400.333 -67 531 -201zM577 1019
c-54 -74 -80.998 -173.333 -80.998 -298c0 -124 27 -223 81 -297c53.333 -74 124.666 -111 213.999 -111s160.666 37 213.999 111c54 74 81 173 81 297c0 124.667 -27 224 -81 298s-125.333 111 -214 111s-160 -37 -214 -111zM396.002 1536
c3.33301 94.667 38.332 173 104.999 235c72.667 66 169.334 99 290.001 99s217.334 -33 290.001 -99c66.667 -62 101.667 -140.333 105 -235h-236c-2 44.667 -16.333 80 -43 106c-28.667 28 -67.334 42 -116.001 42s-87 -14 -115 -42c-27.333 -26 -42 -61.333 -44 -106h-236
z" />
    <glyph glyph-name="uni020F" unicode="&#x20f;" horiz-adv-x="1278" 
d="M207 125c-105.333 104 -158 250.001 -158 438.001c0 183.333 53.333 327.666 160 432.999c105.333 104 248.333 156 429 156c182 0 325.333 -51.667 430 -155c106 -105.333 159 -250 159 -434c0 -188.667 -52.333 -334.667 -157 -438
c-103.333 -102 -247.333 -153 -432 -153c-184 0 -327.667 51 -431 153zM765 342.001c30.667 52 46 125.333 46 220c0 92.667 -15.667 165.334 -47 218.001c-30.667 52 -72.667 78 -126 78s-95.333 -26 -126 -78c-31.333 -52.667 -47 -125.334 -47 -218.001
c0 -94.667 15.333 -168 46 -220c30 -50.667 72.333 -76 127 -76c54 0 96.333 25.333 127 76zM243 1256c3.33301 94.667 38.332 173 104.999 235c72.667 66 169.334 99 290.001 99s217.334 -33 290.001 -99c66.667 -62 101.667 -140.333 105 -235h-236
c-2 44.667 -16.333 80 -43 106c-28.667 28 -67.334 42 -116.001 42s-87 -14 -115 -42c-27.333 -26 -42 -61.333 -44 -106h-236z" />
    <glyph glyph-name="uni0210" unicode="&#x210;" horiz-adv-x="1395" 
d="M523 764h175c59.333 0 106.333 16.667 141 50c34 33.333 51 77.333 51 132c0 54 -17.667 98 -53 132c-35.333 34.667 -81.333 52 -138 52h-176v-366zM523 0l-424 -0.000976562v1443h641c190.667 0 336 -43 436 -129c98 -84.667 147 -205 147 -361
c0 -87.333 -20 -167.333 -60 -240c-42 -75.333 -99.667 -130.666 -173 -165.999l274 -547h-474l-228 484h-139v-484zM517 1876h348l232 -321h-306zM37 1876h348l232 -321h-306z" />
    <glyph glyph-name="uni0211" unicode="&#x211;" horiz-adv-x="868" 
d="M80 1124h400v-220h8c41.333 157.333 129 236 263 236c36 0 68.333 -5.33301 97 -16v-345c-36 15.333 -76.333 23 -121 23c-158 0 -237 -79.333 -237 -238v-564h-410v1124zM100 1276l-211 320h309l182 -320h-280zM525 1276l-211 320h308l183 -320h-280z" />
    <glyph glyph-name="uni0212" unicode="&#x212;" horiz-adv-x="1395" 
d="M523 764h175c59.333 0 106.333 16.667 141 50c34 33.333 51 77.333 51 132c0 54 -17.667 98 -53 132c-35.333 34.667 -81.333 52 -138 52h-176v-366zM523 0l-424 -0.000976562v1443h641c190.667 0 336 -43 436 -129c98 -84.667 147 -205 147 -361
c0 -87.333 -20 -167.333 -60 -240c-42 -75.333 -99.667 -130.666 -173 -165.999l274 -547h-474l-228 484h-139v-484zM302 1536c3.33301 94.667 38.332 173 104.999 235c72.667 66 169.334 99 290.001 99s217.334 -33 290.001 -99c66.667 -62 101.667 -140.333 105 -235h-236
c-2 44.667 -16.333 80 -43 106c-28.667 28 -67.334 42 -116.001 42s-87 -14 -115 -42c-27.333 -26 -42 -61.333 -44 -106h-236z" />
    <glyph glyph-name="uni0213" unicode="&#x213;" horiz-adv-x="868" 
d="M79 1124h400v-220h8c41.333 157.333 129 236 263 236c36 0 68.333 -5.33301 97 -16v-345c-36 15.333 -76.333 23 -121 23c-158 0 -237 -79.333 -237 -238v-564h-410v1124zM44 1256c3.33301 94.667 38.332 173 104.999 235c72.667 66 169.334 99 290.001 99
s217.334 -33 290.001 -99c66.667 -62 101.667 -140.333 105 -235h-236c-2 44.667 -16.333 80 -43 106c-28.667 28 -67.334 42 -116.001 42s-87 -14 -115 -42c-27.333 -26 -42 -61.333 -44 -106h-236z" />
    <glyph glyph-name="uni0214" unicode="&#x214;" horiz-adv-x="1472" 
d="M523 561c0 -76 18.333 -134 55 -174c36 -40.667 88.333 -61 157 -61s121 20.333 157 61c36.667 40 55 98 55 174v882h424v-929c0 -164 -58.333 -295 -175 -393c-116 -97.333 -269.667 -146 -461 -146s-345 48.667 -461 146c-116.667 98 -175 229 -175 393v929h424v-882z
M555 1876h348l232 -321h-306zM75 1876h348l232 -321h-306z" />
    <glyph glyph-name="uni0215" unicode="&#x215;" horiz-adv-x="1319" 
d="M1238 0h-400v220h-8c-22.667 -76 -63.667 -135.333 -123 -178c-60 -42.667 -132 -64 -216 -64c-123.333 0 -223 37.333 -299 112c-78.667 78 -118 182.333 -118 313v721h410v-629c0 -58.667 16.667 -104.667 50 -138c31.333 -32 73 -48 125 -48c48.667 0 89 17 121 51
c32 34.667 48 79.667 48 135v629h410v-1124zM319 1276l-211 320h309l182 -320h-280zM744 1276l-211 320h308l183 -320h-280z" />
    <glyph glyph-name="uni0216" unicode="&#x216;" horiz-adv-x="1472" 
d="M523 561c0 -76 18.333 -134 55 -174c36 -40.667 88.333 -61 157 -61s121 20.333 157 61c36.667 40 55 98 55 174v882h424v-929c0 -164 -58.333 -295 -175 -393c-116 -97.333 -269.667 -146 -461 -146s-345 48.667 -461 146c-116.667 98 -175 229 -175 393v929h424v-882z
M340 1536c3.33301 94.667 38.332 173 104.999 235c72.667 66 169.334 99 290.001 99s217.334 -33 290.001 -99c66.667 -62 101.667 -140.333 105 -235h-236c-2 44.667 -16.333 80 -43 106c-28.667 28 -67.334 42 -116.001 42s-87 -14 -115 -42
c-27.333 -26 -42 -61.333 -44 -106h-236z" />
    <glyph glyph-name="uni0217" unicode="&#x217;" horiz-adv-x="1319" 
d="M1238 0h-400v220h-8c-22.667 -76 -63.667 -135.333 -123 -178c-60 -42.667 -132 -64 -216 -64c-123.333 0 -223 37.333 -299 112c-78.667 78 -118 182.333 -118 313v721h410v-629c0 -58.667 16.667 -104.667 50 -138c31.333 -32 73 -48 125 -48c48.667 0 89 17 121 51
c32 34.667 48 79.667 48 135v629h410v-1124zM264 1256c3.33301 94.667 38.332 173 104.999 235c72.667 66 169.334 99 290.001 99s217.334 -33 290.001 -99c66.667 -62 101.667 -140.333 105 -235h-236c-2 44.667 -16.333 80 -43 106c-28.667 28 -67.334 42 -116.001 42
s-87 -14 -115 -42c-27.333 -26 -42 -61.333 -44 -106h-236z" />
    <glyph glyph-name="uni0218" unicode="&#x218;" horiz-adv-x="1370" 
d="M460 425c6 -40 31 -73.002 75 -99.002c42.667 -24.667 93 -37 151 -37c62.667 0 112.667 11.333 150 34c36.667 22.667 55 51.667 55 87c0 33.333 -15.333 59 -46 77c-29.333 17.333 -83.333 33 -162 47l-191 34c-132 22.667 -233.333 71 -304 145
c-70 72.667 -105 165.667 -105 279c0 144 56 260 168 348c109.333 85.333 251.333 128 426 128c190 0 338 -41 444 -123c103.333 -80.667 155.666 -191.667 156.999 -333h-387c-1.33301 44 -21.666 79 -60.999 105c-38 25.333 -86.333 38 -145 38
c-55.333 0 -99.333 -10.667 -132 -32s-49 -50 -49 -86c0 -34 15.667 -61 47 -81c30 -20 79.667 -36 149 -48l198 -34c140 -24.667 243.667 -71 311 -139c66.667 -67.333 100 -159.666 100 -276.999c0 -147.333 -57 -264.666 -171 -351.999
c-114.667 -87.333 -268 -131 -460 -131c-194.667 0 -346 39 -454 117c-109.333 78.667 -164.333 189.667 -165 333h401zM347 -457.002l152 321h359l-203 -321h-308z" />
    </font>
</defs>
</svg>
